<?xml version="1.0" encoding="UTF-8"?>
<svg width="2882px" height="1715px" viewBox="0 0 2882 1715" version="1.1" xmlns="http://www.w3.org/2000/svg" xmlns:xlink="http://www.w3.org/1999/xlink" style="background: #1B2536;">
    <!-- Generator: Sketch 48.2 (47327) - http://www.bohemiancoding.com/sketch -->
    <title>Ai_TryImandra</title>
    <desc>Created with Sketch.</desc>
    <defs>
        <linearGradient x1="60.1798475%" y1="100%" x2="60.1798475%" y2="2.08864796%" id="linearGradient-1">
            <stop stop-color="#26282B" offset="0%"></stop>
            <stop stop-color="#13151A" offset="4.92090472%"></stop>
            <stop stop-color="#000000" offset="100%"></stop>
        </linearGradient>
        <linearGradient x1="50%" y1="50%" x2="50%" y2="-2.3059687%" id="linearGradient-2">
            <stop stop-color="#FFAE00" offset="0%"></stop>
            <stop stop-color="#FAD961" offset="100%"></stop>
        </linearGradient>
        <linearGradient x1="50%" y1="1.84609339%" x2="50%" y2="91.391447%" id="linearGradient-3">
            <stop stop-color="#020710" stop-opacity="0" offset="0%"></stop>
            <stop stop-color="#02060E" offset="100%"></stop>
        </linearGradient>
        <linearGradient x1="50%" y1="0%" x2="50%" y2="100%" id="linearGradient-4">
            <stop stop-color="#30D0D3" offset="0%"></stop>
            <stop stop-color="#00F0B1" offset="100%"></stop>
        </linearGradient>
    </defs>
    <g id="Page-1" stroke="none" stroke-width="1" fill="none" fill-rule="evenodd">
        <g id="Ai_TryImandra">
            <g id="Group-13">
                <polygon id="Page-1" fill="url(#linearGradient-1)" points="0 1720 2880 1720 2880 1 0 1"></polygon>
                <g id="Page-1" transform="translate(366.865476, 55.015625)" stroke-width="0.25">
                    <path d="M1453.68936,195.539326 C1237.24228,325.474283 1067.31247,620.402231 1075.17696,853.258613 C1067.31247,620.743705 896.33441,325.474283 693.911597,195.539326 C910.697509,65.2628938 1250.91978,65.6043681 1453.68936,195.539326 Z" id="Stroke-1" stroke="#21D8AF"></path>
                    <path d="M1257.41944,371.977794 C1156.88833,307.35179 988.31648,307.35179 880.947947,371.977794" id="Stroke-3" stroke="#21D8AF"></path>
                    <path d="M1121.67095,608.255009 C1093.97447,590.474519 1047.47307,590.474519 1017.72245,608.255009" id="Stroke-5" stroke="#21D8AF"></path>
                    <path d="M1214.67585,109.03064 C1129.87639,286.835535 1067.65394,620.403025 1075.17696,853.259408" id="Stroke-7" stroke="#21D8AF"></path>
                    <path d="M942.154973,108.688106 C1007.80805,286.493002 1067.31194,620.74344 1075.17643,853.258349" id="Stroke-9" stroke="#21D8AF"></path>
                    <path d="M693.910274,195.539326 C896.335734,325.474283 1067.31379,620.743705 1075.17564,853.258613 C1067.31379,620.743705 885.051198,536.791312 668.60676,666.723622 C465.498352,536.44719 477.127009,325.474283 693.910274,195.539326 Z" id="Stroke-11" stroke="#21D8AF"></path>
                    <path d="M880.948741,371.977794 C773.580208,436.603799 767.76985,540.893768 868.298308,605.519773" id="Stroke-13" stroke="#21D8AF"></path>
                    <path d="M1017.72351,608.255009 C987.975535,626.035498 986.606991,654.756402 1014.30347,672.536892" id="Stroke-15" stroke="#21D8AF"></path>
                    <path d="M545.854411,346.332807 C830.00077,393.178321 1067.3122,620.401701 1075.1767,853.258084" id="Stroke-17" stroke="#21D8AF"></path>
                    <path d="M536.620574,515.58999 C825.555515,469.088597 1067.31141,620.742911 1075.17591,853.260466" id="Stroke-19" stroke="#21D8AF"></path>
                    <path d="M668.26661,666.724946 C884.711047,536.789988 1067.65394,620.742381 1075.17696,853.259937 C1067.31247,620.742381 1225.61891,536.789988 1427.7029,666.724946 C1211.25846,797.001377 871.033544,796.659903 668.26661,666.724946 Z" id="Stroke-21" stroke="#21D8AF"></path>
                    <path d="M868.297514,605.518714 C968.828619,670.144719 1137.40047,670.144719 1244.769,605.518714" id="Stroke-23" stroke="#21D8AF"></path>
                    <path d="M1014.30374,672.53848 C1042.00022,690.31897 1088.50161,690.31897 1118.25223,672.53848" id="Stroke-25" stroke="#21D8AF"></path>
                    <path d="M907.277472,753.5759 C992.076933,575.771005 1067.31247,620.400907 1075.17696,853.259937" id="Stroke-27" stroke="#21D8AF"></path>
                    <path d="M1179.801,753.5759 C1116.8453,579.678107 1067.313,620.742381 1075.17749,853.259937" id="Stroke-29" stroke="#21D8AF"></path>
                    <path d="M1428.04305,666.724946 C1225.61759,536.789988 1067.31379,620.400907 1075.17564,853.259937 C1067.31379,620.742381 1237.2436,325.475607 1453.68804,195.540649 C1656.45497,325.817081 1644.82896,536.789988 1428.04305,666.724946 Z" id="Stroke-31" stroke="#21D8AF"></path>
                    <path d="M1244.76821,605.861247 C1352.13674,541.235243 1357.9471,436.945273 1257.41864,372.319269" id="Stroke-33" stroke="#21D8AF"></path>
                    <path d="M1118.25091,672.53848 C1147.99888,654.757991 1149.36743,626.03444 1121.67095,608.25395" id="Stroke-35" stroke="#21D8AF"></path>
                    <path d="M1576.10156,515.932524 C1291.95255,469.087009 1067.31273,620.74397 1075.17723,853.258878" id="Stroke-37" stroke="#21D8AF"></path>
                    <path d="M1585.33275,346.674016 C1296.40045,393.178057 1067.31352,620.742911 1075.17538,853.260466" id="Stroke-39" stroke="#21D8AF"></path>
                    <path d="M1075.17617,853.259143 C1083.04332,1085.77405 1265.28208,1169.36909 1482.07064,1039.7756 C1278.95959,909.499173 939.078792,909.499173 721.951406,1039.43413 C924.374219,1169.36909 1082.69919,1086.11553 1075.17617,853.259143 Z" id="Stroke-41" stroke="#21D8AF"></path>
                    <path d="M1075.17617,853.259143 C1083.04332,1085.77405 1158.25767,1130.38807 1243.05713,952.92465" id="Stroke-43" stroke="#21D8AF"></path>
                    <path d="M1075.17617,853.259143 C1083.04332,1085.77405 1035.84574,1130.38807 970.536785,952.580529" id="Stroke-45" stroke="#21D8AF"></path>
                    <path d="M1075.17617,853.259143 C1083.04332,1085.77405 924.374219,1169.36909 722.290233,1039.43413 C505.504321,1169.36909 493.878311,1380.34199 696.645245,1510.61843 C913.09233,1380.68347 1082.69919,1086.11553 1075.17617,853.259143 Z" id="Stroke-47" stroke="#21D8AF"></path>
                    <path d="M1075.17617,853.259143 C1083.04332,1085.77405 858.040842,1237.07101 574.233311,1190.56961" id="Stroke-49" stroke="#21D8AF"></path>
                    <path d="M1075.17617,853.259143 C1083.04332,1085.77405 853.935209,1312.98155 565.002916,1359.48294" id="Stroke-51" stroke="#21D8AF"></path>
                    <path d="M1075.17617,853.259143 C1083.04332,1085.77405 913.09233,1380.68347 696.645245,1510.61843 C899.414827,1640.89486 1239.63974,1640.89486 1456.42301,1510.9599 C1254.00019,1381.02494 1082.69919,1086.11553 1075.17617,853.259143 Z" id="Stroke-53" stroke="#21D8AF"></path>
                    <path d="M1075.17617,853.259143 C1083.04332,1085.77405 1020.11674,1419.66449 935.31728,1597.46938" id="Stroke-55" stroke="#21D8AF"></path>
                    <path d="M1075.17617,853.259143 C1083.04332,1085.77405 1142.52868,1419.66449 1208.1791,1597.46938" id="Stroke-57" stroke="#21D8AF"></path>
                    <path d="M1075.17617,853.259143 C1083.04332,1085.77405 1254.00019,1381.02494 1456.42301,1510.9599 C1673.21157,1381.02494 1684.83758,1170.05204 1482.07064,1039.7756 C1265.28208,1169.36909 1082.69919,1086.11553 1075.17617,853.259143 Z" id="Stroke-59" stroke="#21D8AF"></path>
                    <path d="M1075.17617,853.259143 C1083.04332,1085.77405 1320.33357,1312.98155 1604.48258,1359.82706" id="Stroke-61" stroke="#21D8AF"></path>
                    <path d="M1075.17617,853.259143 C1083.04332,1085.77405 1324.43656,1237.41513 1613.71297,1190.91109" id="Stroke-63" stroke="#21D8AF"></path>
                    <path d="M1075.17617,853.259143 C1083.04332,1085.77405 1265.37738,1169.86409 1482.16329,1040.27061 C1279.39371,909.994178 939.17144,909.994178 722.385528,1039.93178 C924.808341,1169.86409 1083.04332,1085.77405 1075.17617,853.259143 Z" id="Stroke-65" stroke="#21D8AF"></path>
                    <path d="M1075.17617,853.259143 C1083.04332,1085.77405 1158.35032,1130.88308 1243.14978,953.419656" id="Stroke-67" stroke="#21D8AF"></path>
                    <path d="M1075.17617,853.259143 C1083.04332,1085.77405 1035.93839,1130.88308 970.629433,953.078181" id="Stroke-69" stroke="#21D8AF"></path>
                    <path d="M1075.17617,853.259143 C1083.04332,1085.77405 924.466867,1169.86409 722.385528,1039.93178 C505.596969,1169.86409 493.973606,1380.83965 696.737893,1511.11343 C913.184978,1381.18112 1083.04332,1085.77405 1075.17617,853.259143 Z" id="Stroke-71" stroke="#21D8AF"></path>
                    <path d="M1075.17617,853.259143 C1083.04332,1085.77405 858.133491,1237.56866 574.325959,1191.06462" id="Stroke-73" stroke="#21D8AF"></path>
                    <path d="M1075.17617,853.259143 C1083.04332,1085.77405 854.027857,1313.47655 565.095564,1359.98059" id="Stroke-75" stroke="#21D8AF"></path>
                    <path d="M1075.17617,853.259143 C1083.04332,1085.77405 913.184978,1381.18112 696.737893,1511.11343 C899.507475,1641.39251 1239.72974,1641.39251 1456.5183,1511.45755 C1254.09284,1381.18112 1083.04332,1085.77405 1075.17617,853.259143 Z" id="Stroke-77" stroke="#21D8AF"></path>
                    <path d="M1075.17617,853.259143 C1083.04332,1085.77405 1020.20939,1420.16214 935.409928,1597.96703" id="Stroke-79" stroke="#21D8AF"></path>
                    <path d="M1075.17617,853.259143 C1083.04332,1085.77405 1142.62132,1420.16214 1208.27175,1597.96703" id="Stroke-81" stroke="#21D8AF"></path>
                    <path d="M1075.17617,853.259143 C1083.04332,1085.77405 1254.09284,1381.5226 1456.5183,1511.45755 C1673.30421,1381.5226 1684.93022,1170.54969 1482.16329,1040.27061 C1265.71621,1169.86409 1083.04332,1085.77405 1075.17617,853.259143 Z" id="Stroke-83" stroke="#21D8AF"></path>
                    <path d="M1075.17617,853.259143 C1083.04332,1085.77405 1320.42622,1313.47655 1604.57522,1360.32207" id="Stroke-85" stroke="#21D8AF"></path>
                    <path d="M1075.17617,853.259143 C1083.04332,1085.77405 1324.5292,1237.91014 1613.80562,1191.40609" id="Stroke-87" stroke="#21D8AF"></path>
                    <path d="M1482.16356,1039.93072 C1698.60799,909.995766 1868.54839,615.247821 1860.68389,382.391438 C1455.15002,122.177402 775.041666,121.835927 341.469841,382.049964 C349.33434,614.564872 520.301807,909.654292 722.72462,1039.58925 C939.171705,909.654292 1279.39397,909.995766 1482.16356,1039.93072 Z" id="Stroke-89" stroke="#21D8AF"></path>
                    <path d="M1678.092,863.491991 C1373.08394,667.562484 861.552734,667.562484 535.346796,863.150516" id="Stroke-91" stroke="#21D8AF"></path>
                    <path d="M1814.1817,627.557574 C1436.34432,385.126674 802.737352,384.7852 398.574675,627.2161" id="Stroke-93" stroke="#21D8AF"></path>
                    <path d="M1243.15005,953.078181 C1327.94951,775.273286 1390.52402,441.544324 1382.65952,208.687941" id="Stroke-95" stroke="#21D8AF"></path>
                    <path d="M970.629168,953.078181 C904.976094,775.273286 845.482793,441.544324 837.959769,208.687941" id="Stroke-97" stroke="#21D8AF"></path>
                    <path d="M722.384734,1039.93072 C519.959274,909.995766 348.991806,614.906347 341.129955,382.391438 C-92.4445161,642.602828 -115.355062,1064.20717 289.837333,1324.76268 C297.701831,1557.27759 479.953834,1641.04998 696.398272,1511.45649 C493.972812,1380.83859 505.598822,1169.86568 722.384734,1039.93072 Z" id="Stroke-99" stroke="#21D8AF"></path>
                    <path d="M535.346266,863.149722 C209.142975,1058.73775 192.045434,1376.05212 496.706724,1571.97898" id="Stroke-101" stroke="#21D8AF"></path>
                    <path d="M398.573881,627.215041 C-5.5940909,869.645941 -26.7919709,1262.52938 351.04277,1504.96028" id="Stroke-103" stroke="#21D8AF"></path>
                    <path d="M574.326224,1190.72288 C290.179866,1143.87737 52.8790224,916.833989 45.3559985,683.974959" id="Stroke-105" stroke="#21D8AF"></path>
                    <path d="M565.095034,1359.98007 C276.162741,1406.48411 34.4121429,1255.00715 26.8917662,1022.14812" id="Stroke-107" stroke="#21D8AF"></path>
                    <path d="M696.738423,1511.11476 C480.293985,1641.04971 297.703154,1557.27467 290.180131,1324.41829 C695.714,1584.62968 1375.81971,1584.9738 1809.39418,1324.76241 C1817.25868,1557.27467 1658.94165,1641.04971 1456.51619,1511.11476 C1239.73027,1641.39119 899.508004,1641.04971 696.738423,1511.11476 Z" id="Stroke-109" stroke="#21D8AF"></path>
                    <path d="M497.051375,1571.97978 C802.056786,1767.90928 1313.59064,1767.90928 1639.79393,1572.32125" id="Stroke-111" stroke="#21D8AF"></path>
                    <path d="M351.045152,1504.96107 C728.879893,1747.39197 1362.48686,1747.73344 1766.64953,1505.30254" id="Stroke-113" stroke="#21D8AF"></path>
                    <path d="M935.751667,1597.9673 C850.952206,1775.77219 775.727261,1730.98082 767.860116,1498.12179" id="Stroke-115" stroke="#21D8AF"></path>
                    <path d="M1208.27254,1597.9673 C1273.92562,1775.77219 1320.76849,1730.98082 1312.90399,1498.12179" id="Stroke-117" stroke="#21D8AF"></path>
                    <path d="M1456.51724,1511.11476 C1658.9427,1641.04971 1817.25709,1557.27467 1809.39524,1324.76241 C2242.96706,1064.54838 2265.87496,642.944037 1860.68522,382.391173 C1868.54707,614.906082 1698.60667,909.995502 1482.16223,1039.93046 C1684.92917,1170.20689 1673.30316,1381.1798 1456.51724,1511.11476 Z" id="Stroke-119" stroke="#21D8AF"></path>
                    <path d="M1639.79446,1572.32231 C1965.99776,1376.73428 1983.0953,1059.41991 1678.43401,863.493049" id="Stroke-121" stroke="#21D8AF"></path>
                    <path d="M1766.30938,1505.64481 C2170.47736,1263.21391 2191.67524,870.330478 1813.83785,627.899578" id="Stroke-123" stroke="#21D8AF"></path>
                    <path d="M1604.57575,1360.3226 C1888.72211,1407.16811 2113.37252,1255.69115 2105.50802,1022.83212" id="Stroke-125" stroke="#21D8AF"></path>
                    <path d="M1613.80694,1191.06541 C1902.74188,1144.56137 2131.83675,917.517996 2123.9749,684.658966" id="Stroke-127" stroke="#21D8AF"></path>
                    <path d="M1860.68416,382.732913 C1852.81701,150.218004 1670.56766,66.4429656 1454.12322,196.036449 C1251.35628,65.7600169 911.131367,65.7600169 694.345455,195.694974 C491.919995,65.7600169 333.602961,149.532408 341.470106,382.049964 C775.04193,122.177402 1455.15029,122.177402 1860.68416,382.732913 Z" id="Stroke-129" stroke="#21D8AF"></path>
                    <path d="M1799.8194,201.849454 C1421.98201,-40.581446 788.377694,-40.9229204 384.21237,201.507979" id="Stroke-131" stroke="#21D8AF"></path>
                    <path d="M1383.00126,209.029415 C1375.13676,-23.4854934 1299.91182,-68.2795152 1215.11236,109.183906" id="Stroke-133" stroke="#21D8AF"></path>
                    <path d="M837.959504,208.688205 C830.092359,-23.8267031 877.279348,-68.6207248 942.588301,109.184171" id="Stroke-135" stroke="#21D8AF"></path>
                    <path d="M341.470371,382.04917 C333.605873,149.534261 491.92026,65.7592228 694.348367,195.69418 C477.559808,325.629138 465.936445,536.602045 668.700732,666.881124 C452.258941,796.813434 282.315897,1091.56138 290.180395,1324.41776 C-115.353474,1064.20637 -92.4455749,642.260559 341.470371,382.04917 Z" id="Stroke-137" stroke="#21D8AF"></path>
                    <path d="M384.552521,201.506921 C-19.6128038,443.93782 -41.1548053,836.821256 336.682583,1079.59363" id="Stroke-139" stroke="#21D8AF"></path>
                    <path d="M45.3557338,684.318551 C37.4885885,451.803642 262.48312,300.326683 546.288004,347.172198" id="Stroke-141" stroke="#21D8AF"></path>
                    <path d="M26.8907073,1022.14944 C19.0262091,789.634532 248.12108,562.247033 537.058668,515.745639" id="Stroke-143" stroke="#4A90E2"></path>
                    <path d="M290.180395,1324.41882 C282.315897,1091.90391 452.258941,796.814493 668.700732,666.879536 C871.467667,797.155967 1211.69258,797.155967 1428.48114,667.223657 C1630.90395,797.155967 1801.87142,1092.24803 1809.73592,1324.7603 C1375.81997,1584.97433 695.714264,1584.63021 290.180395,1324.41882 Z" id="Stroke-145" stroke="#21D8AF"></path>
                    <path d="M336.682848,1079.59416 C714.520236,1322.02506 1348.12455,1322.36653 1752.28988,1079.93563" id="Stroke-147" stroke="#21D8AF"></path>
                    <path d="M767.860645,1498.12232 C759.996147,1265.60741 822.912133,931.536974 907.37012,754.073553" id="Stroke-149" stroke="#21D8AF"></path>
                    <path d="M1312.90505,1498.12232 C1305.04055,1265.60741 1245.5446,931.536974 1180.23565,753.732078" id="Stroke-151" stroke="#21D8AF"></path>
                    <path d="M1809.39418,1324.76135 C1801.52704,1092.24645 1630.55957,797.157026 1428.13676,667.222069 C1644.92267,537.287111 1656.54868,326.314204 1453.78174,196.037772 C1670.22618,66.1001677 1852.81701,149.875206 1860.34268,382.731589 C2266.21803,642.945625 2243.30748,1064.89144 1809.39418,1324.76135 Z" id="Stroke-153" stroke="#21D8AF"></path>
                    <path d="M1752.29067,1079.93669 C2156.45864,837.505793 2177.65652,444.622357 1799.81913,202.191458" id="Stroke-155" stroke="#21D8AF"></path>
                    <path d="M2105.50882,1022.83318 C2097.64432,790.318275 1860.34348,562.930775 1576.53595,516.085261" id="Stroke-157" stroke="#21D8AF"></path>
                    <path d="M2123.97384,684.65976 C2116.1067,452.144852 1874.70287,300.667893 1585.77058,347.171933" id="Stroke-159" stroke="#21D8AF"></path>
                </g>
                <g id="Page-1" transform="translate(591.865476, 212.146103)" stroke="#21D8AF" stroke-width="0.25">
                    <path d="M1150.69601,154.782946 C979.363122,257.635482 844.851886,491.09142 851.077182,675.413407 C844.851886,491.361721 709.510889,257.635482 549.279185,154.782946 C720.880279,51.6601095 990.189815,51.9304101 1150.69601,154.782946 Z" id="Stroke-1"></path>
                    <path d="M995.334747,294.446238 C915.757401,243.290271 782.321081,243.290271 697.331436,294.446238" id="Stroke-3"></path>
                    <path d="M887.880395,481.476051 C865.956708,467.401559 829.147628,467.401559 805.597947,481.476051" id="Stroke-5"></path>
                    <path d="M961.500231,86.3053176 C894.375572,227.050232 845.122186,491.092048 851.077182,675.414035" id="Stroke-7"></path>
                    <path d="M745.781044,86.0341789 C797.750009,226.779093 844.851467,491.361511 851.076763,675.413197" id="Stroke-9"></path>
                    <path d="M549.278137,154.782946 C709.511937,257.635482 844.852933,491.361721 851.076134,675.413407 C844.852933,491.361721 700.579444,424.907575 529.24865,527.758016 C368.47425,424.635179 377.679139,257.635482 549.278137,154.782946 Z" id="Stroke-11"></path>
                    <path d="M697.332064,294.446238 C612.342419,345.602206 607.743118,428.154954 687.318369,479.310922" id="Stroke-13"></path>
                    <path d="M805.598785,481.476051 C782.051199,495.550542 780.967901,518.285131 802.891588,532.359622" id="Stroke-15"></path>
                    <path d="M432.081647,274.146451 C657.003209,311.227927 844.851676,491.091001 851.076972,675.412987" id="Stroke-17"></path>
                    <path d="M424.772425,408.125258 C653.484481,371.316178 844.851048,491.361092 851.076344,675.414873" id="Stroke-19"></path>
                    <path d="M528.979398,527.759063 C700.310191,424.906527 845.122186,491.360673 851.077182,675.414454 C844.851886,491.360673 970.162424,424.906527 1130.12592,527.759063 C958.795129,630.8819 689.483498,630.6116 528.979398,527.759063 Z" id="Stroke-21"></path>
                    <path d="M687.31774,479.310084 C766.895086,530.466051 900.331406,530.466051 985.321051,479.310084" id="Stroke-23"></path>
                    <path d="M802.891798,532.360879 C824.815484,546.435371 861.624564,546.435371 885.174245,532.360879" id="Stroke-25"></path>
                    <path d="M718.173082,596.507621 C785.29774,455.762707 844.851886,491.090372 851.077182,675.414454" id="Stroke-27"></path>
                    <path d="M933.894364,596.507621 C884.060565,458.85545 844.852305,491.360673 851.077601,675.414454" id="Stroke-29"></path>
                    <path d="M1130.39518,527.759063 C970.161376,424.906527 844.852933,491.090372 851.076134,675.414454 C844.852933,491.360673 979.36417,257.63653 1150.69496,154.783994 C1311.19906,257.906831 1301.99627,424.906527 1130.39518,527.759063 Z" id="Stroke-31"></path>
                    <path d="M985.320422,479.581222 C1070.31007,428.425255 1074.90937,345.872507 995.334118,294.716539" id="Stroke-33"></path>
                    <path d="M885.173198,532.360879 C908.720784,518.286388 909.804082,495.549704 887.880395,481.475213" id="Stroke-35"></path>
                    <path d="M1247.59376,408.396397 C1022.6701,371.314921 844.852095,491.36193 851.077391,675.413616" id="Stroke-37"></path>
                    <path d="M1254.90089,274.416542 C1026.19093,311.227717 844.852724,491.361092 851.075925,675.414873" id="Stroke-39"></path>
                    <path d="M851.076553,675.413826 C857.303945,859.465512 1001.55858,925.636784 1173.16177,823.054549 C1012.38527,719.931712 743.346034,719.931712 571.474639,822.784248 C731.706343,925.636784 857.031549,859.735812 851.076553,675.413826 Z" id="Stroke-41"></path>
                    <path d="M851.076553,675.413826 C857.303945,859.465512 916.841327,894.780604 983.965986,754.305991" id="Stroke-43"></path>
                    <path d="M851.076553,675.413826 C857.303945,859.465512 819.943787,894.780604 768.247218,754.033595" id="Stroke-45"></path>
                    <path d="M851.076553,675.413826 C857.303945,859.465512 731.706343,925.636784 571.742844,822.784248 C400.141751,925.636784 390.938957,1092.63648 551.443057,1195.75932 C722.775945,1092.90678 857.031549,859.735812 851.076553,675.413826 Z" id="Stroke-47"></path>
                    <path d="M851.076553,675.413826 C857.303945,859.465512 679.198873,979.227553 454.545516,942.418473" id="Stroke-49"></path>
                    <path d="M851.076553,675.413826 C857.303945,859.465512 675.948979,1039.31601 447.239018,1076.12509" id="Stroke-51"></path>
                    <path d="M851.076553,675.413826 C857.303945,859.465512 722.775945,1092.90678 551.443057,1195.75932 C711.949252,1298.88215 981.260884,1298.88215 1152.85988,1196.02962 C992.628178,1093.17708 857.031549,859.735812 851.076553,675.413826 Z" id="Stroke-53"></path>
                    <path d="M851.076553,675.413826 C857.303945,859.465512 807.493194,1123.76296 740.368536,1264.50788" id="Stroke-55"></path>
                    <path d="M851.076553,675.413826 C857.303945,859.465512 904.390735,1123.76296 956.357604,1264.50788" id="Stroke-57"></path>
                    <path d="M851.076553,675.413826 C857.303945,859.465512 992.628178,1093.17708 1152.85988,1196.02962 C1324.46307,1093.17708 1333.66587,926.177386 1173.16177,823.054549 C1001.55858,925.636784 857.031549,859.735812 851.076553,675.413826 Z" id="Stroke-59"></path>
                    <path d="M851.076553,675.413826 C857.303945,859.465512 1045.13565,1039.31601 1270.05931,1076.39749" id="Stroke-61"></path>
                    <path d="M851.076553,675.413826 C857.303945,859.465512 1048.38345,979.499949 1277.3658,942.688773" id="Stroke-63"></path>
                    <path d="M851.076553,675.413826 C857.303945,859.465512 1001.63401,926.028615 1173.2351,823.44638 C1012.72891,720.323543 743.419371,720.323543 571.818277,823.178175 C732.049981,926.028615 857.303945,859.465512 851.076553,675.413826 Z" id="Stroke-65"></path>
                    <path d="M851.076553,675.413826 C857.303945,859.465512 916.914665,895.172436 984.039323,754.697822" id="Stroke-67"></path>
                    <path d="M851.076553,675.413826 C857.303945,859.465512 820.017124,895.172436 768.320555,754.427522" id="Stroke-69"></path>
                    <path d="M851.076553,675.413826 C857.303945,859.465512 731.779681,926.028615 571.818277,823.178175 C400.215088,926.028615 391.014389,1093.03041 551.516394,1196.15115 C722.849283,1093.30071 857.303945,859.465512 851.076553,675.413826 Z" id="Stroke-71"></path>
                    <path d="M851.076553,675.413826 C857.303945,859.465512 679.27221,979.621479 454.618854,942.810304" id="Stroke-73"></path>
                    <path d="M851.076553,675.413826 C857.303945,859.465512 676.022316,1039.70784 447.312355,1076.51902" id="Stroke-75"></path>
                    <path d="M851.076553,675.413826 C857.303945,859.465512 722.849283,1093.30071 551.516394,1196.15115 C712.02259,1299.27608 981.332126,1299.27608 1152.93532,1196.42354 C992.701516,1093.30071 857.303945,859.465512 851.076553,675.413826 Z" id="Stroke-77"></path>
                    <path d="M851.076553,675.413826 C857.303945,859.465512 807.566532,1124.15689 740.441873,1264.9018" id="Stroke-79"></path>
                    <path d="M851.076553,675.413826 C857.303945,859.465512 904.464072,1124.15689 956.430942,1264.9018" id="Stroke-81"></path>
                    <path d="M851.076553,675.413826 C857.303945,859.465512 992.701516,1093.57101 1152.93532,1196.42354 C1324.53641,1093.57101 1333.7392,926.571312 1173.2351,823.44638 C1001.90221,926.028615 857.303945,859.465512 851.076553,675.413826 Z" id="Stroke-83"></path>
                    <path d="M851.076553,675.413826 C857.303945,859.465512 1045.20899,1039.70784 1270.13264,1076.78932" id="Stroke-85"></path>
                    <path d="M851.076553,675.413826 C857.303945,859.465512 1048.45678,979.89178 1277.43914,943.080605" id="Stroke-87"></path>
                    <path d="M1173.23531,823.177337 C1344.56611,720.324801 1479.08572,487.011347 1472.86043,302.68936 C1151.85223,96.7118922 613.499264,96.4415916 270.297077,302.41906 C276.522373,486.470746 411.854988,720.0545 572.086692,822.907036 C743.41958,720.0545 1012.72912,720.324801 1173.23531,823.177337 Z" id="Stroke-89"></path>
                    <path d="M1328.32628,683.513835 C1086.89123,528.422033 681.978779,528.422033 423.764141,683.243534" id="Stroke-91"></path>
                    <path d="M1436.05072,496.755371 C1136.9662,304.854489 635.422322,304.584189 315.499515,496.48507" id="Stroke-93"></path>
                    <path d="M984.039533,754.427522 C1051.16419,613.682608 1100.69626,349.512974 1094.47096,165.190988" id="Stroke-95"></path>
                    <path d="M768.320346,754.427522 C716.351381,613.682608 669.258305,349.512974 663.303309,165.190988" id="Stroke-97"></path>
                    <path d="M571.817649,823.177337 C411.583849,720.324801 276.251234,486.741046 270.028033,302.68936 C-73.1762499,508.664733 -91.3115369,842.393826 229.426363,1048.64159 C235.651659,1232.69328 379.916767,1299.00494 551.24756,1196.42271 C391.013761,1093.02957 400.216555,926.029873 571.817649,823.177337 Z" id="Stroke-99"></path>
                    <path d="M423.763721,683.242905 C165.551179,838.064406 152.017289,1089.24075 393.177842,1244.33046" id="Stroke-101"></path>
                    <path d="M315.498887,496.484232 C-4.42811116,688.385113 -21.2077043,999.379618 277.874714,1191.2805" id="Stroke-103"></path>
                    <path d="M454.619063,942.539794 C229.697502,905.458318 41.8574159,725.737728 35.9024204,541.413646" id="Stroke-105"></path>
                    <path d="M447.311936,1076.5186 C218.601975,1113.32978 27.2395992,993.425251 21.2866991,809.101169" id="Stroke-107"></path>
                    <path d="M551.516813,1196.1522 C380.18602,1299.00473 235.652707,1232.69098 229.697711,1048.36899 C550.705911,1254.34436 1089.05678,1254.61676 1432.26106,1048.64139 C1438.48636,1232.69098 1313.16744,1299.00473 1152.93364,1196.1522 C981.332545,1299.27503 712.023009,1299.00473 551.516813,1196.1522 Z" id="Stroke-109"></path>
                    <path d="M393.450657,1244.33109 C634.883607,1399.42289 1039.79815,1399.42289 1298.0107,1244.60139" id="Stroke-111"></path>
                    <path d="M277.8766,1191.28113 C576.959018,1383.18201 1078.5029,1383.45231 1398.42571,1191.55143" id="Stroke-113"></path>
                    <path d="M740.712383,1264.90201 C673.587725,1405.64693 614.041961,1370.19144 607.814569,1185.86736" id="Stroke-115"></path>
                    <path d="M956.43157,1264.90201 C1008.40053,1405.64693 1045.47992,1370.19144 1039.25462,1185.86736" id="Stroke-117"></path>
                    <path d="M1152.93448,1196.1522 C1313.16828,1299.00473 1438.4851,1232.69098 1432.2619,1048.64139 C1775.46409,842.663917 1793.59728,508.934824 1472.86147,302.689151 C1479.08468,486.740837 1344.56506,720.324591 1173.23426,823.177127 C1333.73836,926.299964 1324.53557,1093.29966 1152.93448,1196.1522 Z" id="Stroke-119"></path>
                    <path d="M1298.01112,1244.60222 C1556.22366,1089.78072 1569.75755,838.604379 1328.597,683.514673" id="Stroke-121"></path>
                    <path d="M1398.15645,1191.82236 C1718.08345,999.921476 1734.86305,688.926972 1435.77853,497.02609" id="Stroke-123"></path>
                    <path d="M1270.13306,1076.78974 C1495.05462,1113.87122 1672.88101,993.96669 1666.65572,809.642608" id="Stroke-125"></path>
                    <path d="M1277.44019,942.810933 C1506.15225,905.999757 1687.49674,726.279167 1681.27353,541.955085" id="Stroke-127"></path>
                    <path d="M1472.86064,302.959661 C1466.63325,118.907975 1322.37023,52.5942182 1151.03944,155.176454 C990.535339,52.0536169 721.223707,52.0536169 549.622614,154.906153 C389.388814,52.0536169 264.069895,118.365278 270.297286,302.41906 C613.499474,96.7118922 1151.85244,96.7118922 1472.86064,302.959661 Z" id="Stroke-129"></path>
                    <path d="M1424.68196,159.777851 C1125.59744,-32.1230308 624.055657,-32.3933314 304.130754,159.50755" id="Stroke-131"></path>
                    <path d="M1094.74147,165.461288 C1088.51618,-18.5903979 1028.97041,-54.0479747 961.845755,86.4266386" id="Stroke-133"></path>
                    <path d="M663.3031,165.191197 C657.075708,-18.860489 694.427485,-54.3180658 746.124054,86.4268482" id="Stroke-135"></path>
                    <path d="M270.297496,302.418431 C264.0722,118.366745 389.389024,52.0529883 549.624918,154.905524 C378.021729,257.75806 368.821031,424.757757 529.323036,527.882689 C357.994338,630.73313 223.472625,864.046584 229.697921,1048.36857 C-91.3102797,842.393198 -73.177088,508.393804 270.297496,302.418431 Z" id="Stroke-137"></path>
                    <path d="M304.400007,159.506712 C-15.5248953,351.407593 -32.5768844,662.402098 266.507629,854.57328" id="Stroke-139"></path>
                    <path d="M35.9022109,541.685623 C29.6748194,357.633937 207.773605,237.729412 432.424866,274.810888" id="Stroke-141"></path>
                    <path d="M21.285861,809.102217 C15.0605649,625.050531 196.405054,445.057545 425.119206,408.248465" id="Stroke-143"></path>
                    <path d="M229.697921,1048.36941 C223.472625,864.317722 357.994338,630.733968 529.323036,527.881432 C689.827136,631.004269 959.138767,631.004269 1130.74196,528.153828 C1290.97366,631.004269 1426.30628,864.590118 1432.53157,1048.63971 C1089.05699,1254.61718 550.706121,1254.34478 229.697921,1048.36941 Z" id="Stroke-145"></path>
                    <path d="M266.507839,854.573699 C565.592352,1046.47458 1067.13414,1046.74488 1387.05904,854.843999" id="Stroke-147"></path>
                    <path d="M607.814988,1185.86778 C601.589692,1001.8161 651.392061,737.376161 718.246419,596.901548" id="Stroke-149"></path>
                    <path d="M1039.25546,1185.86778 C1033.03016,1001.8161 985.93499,737.376161 934.238421,596.631247" id="Stroke-151"></path>
                    <path d="M1432.26106,1048.64055 C1426.03367,864.588861 1290.70106,631.005107 1130.46935,528.152571 C1302.07044,425.300035 1311.27324,258.300338 1150.76914,155.177501 C1322.09993,52.3228699 1466.63325,118.636627 1472.59034,302.958613 C1793.86884,508.936081 1775.73355,842.935475 1432.26106,1048.64055 Z" id="Stroke-153"></path>
                    <path d="M1387.05967,854.844837 C1706.98667,662.943956 1723.76626,351.949452 1424.68175,160.04857" id="Stroke-155"></path>
                    <path d="M1666.65635,809.643446 C1660.43105,625.59176 1472.59096,445.598775 1247.93761,408.517299" id="Stroke-157"></path>
                    <path d="M1681.2727,541.955714 C1675.0453,357.904028 1483.95742,237.999503 1255.24746,274.810678" id="Stroke-159"></path>
                </g>
                <g id="Page-1" transform="translate(922.739167, 476.573051)" stroke="#21D8AF" stroke-width="0.25">
                    <path d="M703.5615,94.6377851 C598.804706,157.524146 516.561502,300.264373 520.367788,412.962993 C516.561502,300.429641 433.810964,157.524146 335.841685,94.6377851 C440.762465,31.5861564 605.424391,31.7514243 703.5615,94.6377851 Z" id="Stroke-1"></path>
                    <path d="M608.570118,180.031073 C559.914733,148.75316 478.328757,148.75316 426.364171,180.031073" id="Stroke-3"></path>
                    <path d="M542.870103,294.385319 C529.465467,285.779858 506.959565,285.779858 492.560758,294.385319" id="Stroke-5"></path>
                    <path d="M587.882932,52.7690182 C546.841401,138.823634 516.72677,300.264757 520.367788,412.963378" id="Stroke-7"></path>
                    <path d="M455.987355,52.6032378 C487.762352,138.657853 516.561246,300.429512 520.367532,412.962865" id="Stroke-9"></path>
                    <path d="M335.841044,94.6377851 C433.811604,157.524146 516.562143,300.429641 520.367148,412.962993 C516.562143,300.429641 428.350076,259.798077 323.594564,322.683157 C225.293469,259.631528 230.921546,157.524146 335.841044,94.6377851 Z" id="Stroke-11"></path>
                    <path d="M426.364555,180.031073 C374.399969,211.308985 371.587852,261.783598 420.241956,293.06151" id="Stroke-13"></path>
                    <path d="M492.561271,294.385319 C478.163746,302.990781 477.501393,316.891221 490.906029,325.496683" id="Stroke-15"></path>
                    <path d="M264.184467,167.619325 C401.706583,190.291776 516.561374,300.264116 520.36766,412.962737" id="Stroke-17"></path>
                    <path d="M259.715443,249.53699 C399.555154,227.031088 516.56099,300.429256 520.367276,412.96389" id="Stroke-19"></path>
                    <path d="M323.429937,322.683797 C428.185449,259.797436 516.72677,300.429 520.367788,412.963634 C516.561502,300.429 593.179192,259.797436 690.984484,322.683797 C586.228972,385.735426 421.565765,385.570158 323.429937,322.683797 Z" id="Stroke-21"></path>
                    <path d="M420.241571,293.060998 C468.896956,324.33891 550.482932,324.33891 602.447519,293.060998" id="Stroke-23"></path>
                    <path d="M490.906157,325.497451 C504.310794,334.102913 526.816696,334.102913 541.215502,325.497451" id="Stroke-25"></path>
                    <path d="M439.107223,364.718216 C480.148754,278.663601 516.561502,300.263732 520.367788,412.963634" id="Stroke-27"></path>
                    <path d="M571.004082,364.718216 C540.534573,280.554573 516.561758,300.429 520.368045,412.963634" id="Stroke-29"></path>
                    <path d="M691.149111,322.683797 C593.178551,259.797436 516.562143,300.263732 520.367148,412.963634 C516.562143,300.429 598.805347,157.524786 703.560859,94.6384256 C801.696687,157.690054 796.069891,259.797436 691.149111,322.683797 Z" id="Stroke-31"></path>
                    <path d="M602.447134,293.226778 C654.41172,261.948866 657.223837,211.474253 608.569734,180.196341" id="Stroke-33"></path>
                    <path d="M541.214862,325.497451 C555.612387,316.89199 556.27474,302.990268 542.870103,294.384807" id="Stroke-35"></path>
                    <path d="M762.80697,249.70277 C625.283572,227.030319 516.56163,300.429769 520.367917,412.963122" id="Stroke-37"></path>
                    <path d="M767.274712,167.784464 C627.436283,190.291647 516.562014,300.429256 520.36702,412.96389" id="Stroke-39"></path>
                    <path d="M520.367404,412.96325 C524.174972,525.496603 612.375508,565.955211 717.297569,503.234119 C618.995192,440.18249 454.498534,440.18249 349.412486,503.068851 C447.381765,565.955211 524.008423,525.66187 520.367404,412.96325 Z" id="Stroke-41"></path>
                    <path d="M520.367404,412.96325 C524.174972,525.496603 560.577471,547.089047 601.619001,461.199699" id="Stroke-43"></path>
                    <path d="M520.367404,412.96325 C524.174972,525.496603 501.332128,547.089047 469.72368,461.03315" id="Stroke-45"></path>
                    <path d="M520.367404,412.96325 C524.174972,525.496603 447.381765,565.955211 349.576473,503.068851 C244.655693,565.955211 239.028897,668.062593 337.164725,731.114222 C441.921518,668.227861 524.008423,525.66187 520.367404,412.96325 Z" id="Stroke-47"></path>
                    <path d="M520.367404,412.96325 C524.174972,525.496603 415.277513,598.721816 277.919383,576.215914" id="Stroke-49"></path>
                    <path d="M520.367404,412.96325 C524.174972,525.496603 413.290455,635.461257 273.452025,657.967158" id="Stroke-51"></path>
                    <path d="M520.367404,412.96325 C524.174972,525.496603 441.921518,668.227861 337.164725,731.114222 C435.301834,794.165851 599.965041,794.165851 704.88454,731.27949 C606.915261,668.393129 524.008423,525.66187 520.367404,412.96325 Z" id="Stroke-53"></path>
                    <path d="M520.367404,412.96325 C524.174972,525.496603 493.719555,687.094026 452.678025,773.148641" id="Stroke-55"></path>
                    <path d="M520.367404,412.96325 C524.174972,525.496603 552.964898,687.094026 584.738614,773.148641" id="Stroke-57"></path>
                    <path d="M520.367404,412.96325 C524.174972,525.496603 606.915261,668.393129 704.88454,731.27949 C809.806601,668.393129 815.433396,566.285747 717.297569,503.234119 C612.375508,565.955211 524.008423,525.66187 520.367404,412.96325 Z" id="Stroke-59"></path>
                    <path d="M520.367404,412.96325 C524.174972,525.496603 639.019513,635.461257 776.542911,658.133707" id="Stroke-61"></path>
                    <path d="M520.367404,412.96325 C524.174972,525.496603 641.00529,598.888365 781.010269,576.381182" id="Stroke-63"></path>
                    <path d="M520.367404,412.96325 C524.174972,525.496603 612.421629,566.194786 717.342409,503.473693 C619.2053,440.422064 454.543374,440.422064 349.622594,503.309706 C447.591873,566.194786 524.174972,525.496603 520.367404,412.96325 Z" id="Stroke-65"></path>
                    <path d="M520.367404,412.96325 C524.174972,525.496603 560.622311,547.328621 601.663841,461.439274" id="Stroke-67"></path>
                    <path d="M520.367404,412.96325 C524.174972,525.496603 501.376968,547.328621 469.76852,461.274006" id="Stroke-69"></path>
                    <path d="M520.367404,412.96325 C524.174972,525.496603 447.426605,566.194786 349.622594,503.309706 C244.700533,566.194786 239.075019,668.303449 337.209565,731.353797 C441.966358,668.468717 524.174972,525.496603 520.367404,412.96325 Z" id="Stroke-71"></path>
                    <path d="M520.367404,412.96325 C524.174972,525.496603 415.322353,598.962672 277.964223,576.455489" id="Stroke-73"></path>
                    <path d="M520.367404,412.96325 C524.174972,525.496603 413.335295,635.700831 273.496865,658.208014" id="Stroke-75"></path>
                    <path d="M520.367404,412.96325 C524.174972,525.496603 441.966358,668.468717 337.209565,731.353797 C435.346674,794.406706 600.0086,794.406706 704.930661,731.520346 C606.960101,668.468717 524.174972,525.496603 520.367404,412.96325 Z" id="Stroke-77"></path>
                    <path d="M520.367404,412.96325 C524.174972,525.496603 493.764395,687.334881 452.722865,773.389497" id="Stroke-79"></path>
                    <path d="M520.367404,412.96325 C524.174972,525.496603 553.009738,687.334881 584.783454,773.389497" id="Stroke-81"></path>
                    <path d="M520.367404,412.96325 C524.174972,525.496603 606.960101,668.633985 704.930661,731.520346 C809.851441,668.633985 815.478237,566.526603 717.342409,503.473693 C612.585616,566.194786 524.174972,525.496603 520.367404,412.96325 Z" id="Stroke-83"></path>
                    <path d="M520.367404,412.96325 C524.174972,525.496603 639.064353,635.700831 776.587751,658.373282" id="Stroke-85"></path>
                    <path d="M520.367404,412.96325 C524.174972,525.496603 641.05013,599.12794 781.055109,576.620757" id="Stroke-87"></path>
                    <path d="M717.342537,503.309194 C822.098049,440.422833 904.346378,297.769724 900.540092,185.071103 C704.268436,59.1318326 375.10729,58.9665647 165.26573,184.905835 C169.072017,297.439188 251.817431,440.257565 349.786709,503.143926 C454.543502,440.257565 619.205428,440.422833 717.342537,503.309194 Z" id="Stroke-89"></path>
                    <path d="M812.168651,417.915778 C664.549818,323.089152 416.97721,323.089152 259.098955,417.75051" id="Stroke-91"></path>
                    <path d="M878.033805,303.72744 C695.166787,186.394912 388.511542,186.229644 192.903521,303.562172" id="Stroke-93"></path>
                    <path d="M601.663969,461.274006 C642.7055,375.21939 672.990524,213.700117 669.184237,101.001496" id="Stroke-95"></path>
                    <path d="M469.768392,461.274006 C437.993395,375.21939 409.199625,213.700117 405.558607,101.001496" id="Stroke-97"></path>
                    <path d="M349.62221,503.309194 C251.65165,440.422833 168.906236,297.604456 165.101231,185.071103 C-44.74161,311.009093 -55.8299336,515.058589 140.276454,641.163127 C144.08274,753.69648 232.289682,794.240926 337.045194,731.519833 C239.074634,668.302937 244.70143,566.195554 349.62221,503.309194 Z" id="Stroke-99"></path>
                    <path d="M259.098699,417.750126 C101.221725,512.411484 92.9467997,665.986367 240.397802,760.811712" id="Stroke-101"></path>
                    <path d="M192.903137,303.56166 C-2.70744706,420.894188 -12.9668688,611.043243 169.898869,728.375771" id="Stroke-103"></path>
                    <path d="M277.964351,576.290093 C140.442234,553.617642 25.5925683,443.732419 21.9515498,331.032517" id="Stroke-105"></path>
                    <path d="M273.496609,658.207758 C133.658179,680.714941 16.6549055,607.402609 13.0151681,494.702707" id="Stroke-107"></path>
                    <path d="M337.209821,731.354437 C232.454309,794.240798 144.083381,753.695071 140.442362,640.99645 C336.714018,766.93444 665.873883,767.100989 875.716724,641.162999 C879.52301,753.695071 802.900196,794.240798 704.929636,731.354437 C600.008856,794.406066 435.34693,794.240798 337.209821,731.354437 Z" id="Stroke-109"></path>
                    <path d="M240.564608,760.812097 C388.18216,855.638723 635.756048,855.638723 793.633022,760.977364" id="Stroke-111"></path>
                    <path d="M169.900022,728.376156 C352.765759,845.708684 659.421004,845.873952 855.029025,728.541424" id="Stroke-113"></path>
                    <path d="M452.888261,773.389625 C411.84673,859.44424 375.439107,837.765959 371.631539,725.066057" id="Stroke-115"></path>
                    <path d="M584.783838,773.389625 C616.558836,859.44424 639.230005,837.765959 635.423719,725.066057" id="Stroke-117"></path>
                    <path d="M704.930148,731.354437 C802.900708,794.240798 879.522241,753.695071 875.717236,641.162999 C1085.5588,515.223729 1096.64584,311.174233 900.540732,185.070975 C904.345737,297.604328 822.097408,440.422705 717.341896,503.309066 C815.477724,566.360694 809.850928,668.468076 704.930148,731.354437 Z" id="Stroke-119"></path>
                    <path d="M793.633278,760.977877 C951.510252,666.316519 959.785178,512.741635 812.334175,417.91629" id="Stroke-121"></path>
                    <path d="M854.864398,728.707076 C1050.47498,611.374548 1060.7344,421.225492 877.867384,303.892964" id="Stroke-123"></path>
                    <path d="M776.588007,658.373538 C914.110124,681.045989 1022.83719,607.733657 1019.0309,495.033756" id="Stroke-125"></path>
                    <path d="M781.05575,576.455873 C920.895461,553.94869 1031.77357,444.063467 1027.96857,331.363565" id="Stroke-127"></path>
                    <path d="M900.54022,185.236371 C896.732652,72.7030183 808.526991,32.1572915 703.771479,94.8783844 C605.635652,31.8267557 440.972445,31.8267557 336.051665,94.7131165 C238.081105,31.8267557 161.458291,72.3712013 165.265858,184.905835 C375.107418,59.1318326 704.268564,59.1318326 900.54022,185.236371 Z" id="Stroke-129"></path>
                    <path d="M871.082688,97.6917823 C688.21567,-19.6407457 381.561707,-19.8060136 185.952404,97.5265144" id="Stroke-131"></path>
                    <path d="M669.349633,101.166764 C665.543347,-11.3665886 629.135723,-33.046151 588.094193,52.8431966" id="Stroke-133"></path>
                    <path d="M405.558479,101.001624 C401.750911,-11.5317284 424.58863,-33.2112908 456.197078,52.8433247" id="Stroke-135"></path>
                    <path d="M165.265986,184.905451 C161.4597,72.3720981 238.081233,31.8263713 336.053074,94.7127321 C231.131013,157.599093 225.505498,259.706475 323.640045,322.759385 C218.885814,385.644464 136.636204,528.297573 140.44249,640.996194 C-55.8291649,515.058205 -44.7421224,310.843441 165.265986,184.905451 Z" id="Stroke-137"></path>
                    <path d="M186.117031,97.5260019 C-9.49227121,214.85853 -19.918242,405.007586 162.948777,522.505382" id="Stroke-139"></path>
                    <path d="M21.9514216,331.19881 C18.143854,218.665457 127.037469,145.353125 264.394318,168.025576" id="Stroke-141"></path>
                    <path d="M13.0146556,494.703348 C9.20836912,382.169995 120.086481,272.118223 259.927473,249.612321" id="Stroke-143"></path>
                    <path d="M140.44249,640.996707 C136.636204,528.463354 218.885814,385.644977 323.640045,322.758616 C421.775873,385.810245 586.43908,385.810245 691.361141,322.925165 C789.330419,385.810245 872.075833,528.629903 875.88212,641.161974 C665.874011,767.101245 336.714146,766.934696 140.44249,640.996707 Z" id="Stroke-145"></path>
                    <path d="M162.948905,522.505638 C345.815923,639.838166 652.469887,640.003434 848.079189,522.670906" id="Stroke-147"></path>
                    <path d="M371.631796,725.066314 C367.825509,612.532961 398.275801,450.848419 439.152064,364.959072" id="Stroke-149"></path>
                    <path d="M635.424231,725.066314 C631.617945,612.532961 602.822895,450.848419 571.214446,364.793804" id="Stroke-151"></path>
                    <path d="M875.716724,641.162487 C871.909156,528.629134 789.163742,385.810757 691.194464,322.924396 C796.115243,260.038036 801.742039,157.930654 703.606212,94.879025 C808.361724,31.991383 896.732652,72.5371098 900.374952,185.235731 C1096.81187,311.175001 1085.72355,515.389765 875.716724,641.162487 Z" id="Stroke-153"></path>
                    <path d="M848.079573,522.671418 C1043.69016,405.33889 1053.94958,215.189834 871.08256,97.8573064" id="Stroke-155"></path>
                    <path d="M1019.03129,495.034268 C1015.225,382.500915 900.375336,272.449143 763.017206,249.776692" id="Stroke-157"></path>
                    <path d="M1027.96805,331.36395 C1024.16049,218.830597 907.325044,145.518265 767.486614,168.025448" id="Stroke-159"></path>
                </g>
                <g id="Page-1" transform="translate(738.865476, 355.721489)" stroke-width="0.25">
                    <path d="M953.572085,128.267323 C811.589964,213.500352 700.121636,406.96332 705.280487,559.709397 C700.121636,407.187316 587.965693,213.500352 455.183031,128.267323 C597.387411,42.8102973 820.561953,43.0342932 953.572085,128.267323 Z" id="Stroke-1" stroke="#21D8AF"></path>
                    <path d="M824.825515,244.005116 C758.880439,201.612597 648.302885,201.612597 577.872683,244.005116" id="Stroke-3" stroke="#21D8AF"></path>
                    <path d="M735.778999,398.995145 C717.611025,387.331733 687.10765,387.331733 667.592228,398.995145" id="Stroke-5" stroke="#21D8AF"></path>
                    <path d="M796.787137,71.5204892 C741.161498,188.154613 700.345632,406.963841 705.280487,559.709918" id="Stroke-7" stroke="#21D8AF"></path>
                    <path d="M618.022465,71.2957988 C661.088708,187.929923 700.121289,407.187142 705.280139,559.709223" id="Stroke-9" stroke="#21D8AF"></path>
                    <path d="M455.182162,128.267323 C587.966561,213.500352 700.122504,407.187316 705.279618,559.709397 C700.122504,407.187316 580.56428,352.117326 438.583896,437.348619 C305.351505,351.891594 312.979519,213.500352 455.182162,128.267323 Z" id="Stroke-11" stroke="#21D8AF"></path>
                    <path d="M577.873204,244.005116 C507.443001,286.397635 503.631599,354.808402 569.574939,397.200921" id="Stroke-13" stroke="#21D8AF"></path>
                    <path d="M667.592923,398.995145 C648.079237,410.658557 647.181517,429.498519 665.349491,441.161932" id="Stroke-15" stroke="#21D8AF"></path>
                    <path d="M358.062419,227.182853 C544.453021,257.91196 700.121463,406.962973 705.280313,559.70905" id="Stroke-17" stroke="#21D8AF"></path>
                    <path d="M352.005328,338.209961 C541.537081,307.706587 700.120942,407.186795 705.279792,559.710612" id="Stroke-19" stroke="#21D8AF"></path>
                    <path d="M438.360768,437.349487 C580.341152,352.116458 700.345632,407.186448 705.280487,559.710265 C700.121636,407.186448 803.965423,352.116458 936.525826,437.349487 C794.545442,522.806513 571.369163,522.582517 438.360768,437.349487 Z" id="Stroke-21" stroke="#21D8AF"></path>
                    <path d="M569.574418,397.200226 C635.519494,439.592745 746.097047,439.592745 816.52725,397.200226" id="Stroke-23" stroke="#21D8AF"></path>
                    <path d="M665.349665,441.162973 C683.517639,452.826386 714.021014,452.826386 733.536436,441.162973" id="Stroke-25" stroke="#21D8AF"></path>
                    <path d="M595.143979,494.320838 C650.769618,377.686714 700.121636,406.962452 705.280487,559.710265" id="Stroke-27" stroke="#21D8AF"></path>
                    <path d="M773.910387,494.320838 C732.613538,380.249643 700.121984,407.186448 705.280834,559.710265" id="Stroke-29" stroke="#21D8AF"></path>
                    <path d="M936.748954,437.349487 C803.964555,352.116458 700.122504,406.962452 705.279618,559.710265 C700.122504,407.186448 811.590832,213.501221 953.571216,128.268191 C1086.57961,213.725217 1078.95333,352.116458 936.748954,437.349487 Z" id="Stroke-31" stroke="#21D8AF"></path>
                    <path d="M816.526729,397.424917 C886.956931,355.032398 890.768334,286.621631 824.824994,244.229112" id="Stroke-33" stroke="#21D8AF"></path>
                    <path d="M733.535568,441.162973 C753.049254,429.499561 753.946973,410.657863 735.778999,398.99445" id="Stroke-35" stroke="#21D8AF"></path>
                    <path d="M1033.87043,338.434652 C847.478095,307.705545 700.12181,407.18749 705.28066,559.70957" id="Stroke-37" stroke="#21D8AF"></path>
                    <path d="M1039.92579,227.406675 C850.395771,257.911786 700.122331,407.186795 705.279445,559.710612" id="Stroke-39" stroke="#4A90E2"></path>
                    <path d="M705.279966,559.709744 C710.440553,712.231825 829.98315,767.067401 972.189266,682.058367 C838.955139,596.601341 616.004592,596.601341 473.576216,681.834371 C606.358879,767.067401 710.21482,712.455821 705.279966,559.709744 Z" id="Stroke-41" stroke="#21D8AF"></path>
                    <path d="M705.279966,559.709744 C710.440553,712.231825 759.77868,741.497145 815.404318,625.087017" id="Stroke-43" stroke="#21D8AF"></path>
                    <path d="M705.279966,559.709744 C710.440553,712.231825 679.480505,741.497145 636.639994,624.861284" id="Stroke-45" stroke="#21D8AF"></path>
                    <path d="M705.279966,559.709744 C710.440553,712.231825 606.358879,767.067401 473.798476,681.834371 C331.594096,767.067401 323.967818,905.458642 456.976213,990.915667 C598.958334,905.682638 710.21482,712.455821 705.279966,559.709744 Z" id="Stroke-47" stroke="#21D8AF"></path>
                    <path d="M705.279966,559.709744 C710.440553,712.231825 562.846381,811.477619 376.678038,780.974245" id="Stroke-49" stroke="#21D8AF"></path>
                    <path d="M705.279966,559.709744 C710.440553,712.231825 560.153221,861.27242 370.623204,891.775794" id="Stroke-51" stroke="#21D8AF"></path>
                    <path d="M705.279966,559.709744 C710.440553,712.231825 598.958334,905.682638 456.976213,990.915667 C589.986344,1076.37269 813.162623,1076.37269 955.365267,991.139663 C822.582604,905.906634 710.21482,712.455821 705.279966,559.709744 Z" id="Stroke-53" stroke="#21D8AF"></path>
                    <path d="M705.279966,559.709744 C710.440553,712.231825 669.162804,931.252894 613.537165,1047.88702" id="Stroke-55" stroke="#21D8AF"></path>
                    <path d="M705.279966,559.709744 C710.440553,712.231825 749.460979,931.252894 792.525485,1047.88702" id="Stroke-57" stroke="#21D8AF"></path>
                    <path d="M705.279966,559.709744 C710.440553,712.231825 822.582604,905.906634 955.365267,991.139663 C1097.57138,905.906634 1105.19766,767.515392 972.189266,682.058367 C829.98315,767.067401 710.21482,712.455821 705.279966,559.709744 Z" id="Stroke-59" stroke="#21D8AF"></path>
                    <path d="M705.279966,559.709744 C710.440553,712.231825 866.095103,861.27242 1052.48744,892.001526" id="Stroke-61" stroke="#21D8AF"></path>
                    <path d="M705.279966,559.709744 C710.440553,712.231825 868.786526,811.703351 1058.54228,781.19824" id="Stroke-63" stroke="#21D8AF"></path>
                    <path d="M705.279966,559.709744 C710.440553,712.231825 830.04566,767.392108 972.25004,682.383074 C839.239909,596.926049 616.065366,596.926049 473.860986,682.160815 C606.643649,767.392108 710.440553,712.231825 705.279966,559.709744 Z" id="Stroke-65" stroke="#21D8AF"></path>
                    <path d="M705.279966,559.709744 C710.440553,712.231825 759.839454,741.821852 815.465092,625.411724" id="Stroke-67" stroke="#21D8AF"></path>
                    <path d="M705.279966,559.709744 C710.440553,712.231825 679.541279,741.821852 636.700768,625.187728" id="Stroke-69" stroke="#21D8AF"></path>
                    <path d="M705.279966,559.709744 C710.440553,712.231825 606.419653,767.392108 473.860986,682.160815 C331.65487,767.392108 324.030329,905.785085 457.036987,991.240375 C599.019108,906.009081 710.440553,712.231825 705.279966,559.709744 Z" id="Stroke-71" stroke="#21D8AF"></path>
                    <path d="M705.279966,559.709744 C710.440553,712.231825 562.907155,811.804062 376.738812,781.298952" id="Stroke-73" stroke="#21D8AF"></path>
                    <path d="M705.279966,559.709744 C710.440553,712.231825 560.213995,861.597127 370.683978,892.102238" id="Stroke-75" stroke="#21D8AF"></path>
                    <path d="M705.279966,559.709744 C710.440553,712.231825 599.019108,906.009081 457.036987,991.240375 C590.047118,1076.69914 813.221661,1076.69914 955.427777,991.466107 C822.643378,906.009081 710.440553,712.231825 705.279966,559.709744 Z" id="Stroke-77" stroke="#21D8AF"></path>
                    <path d="M705.279966,559.709744 C710.440553,712.231825 669.223578,931.579338 613.597939,1048.21346" id="Stroke-79" stroke="#21D8AF"></path>
                    <path d="M705.279966,559.709744 C710.440553,712.231825 749.521753,931.579338 792.586259,1048.21346" id="Stroke-81" stroke="#21D8AF"></path>
                    <path d="M705.279966,559.709744 C710.440553,712.231825 822.643378,906.233077 955.427777,991.466107 C1097.63216,906.233077 1105.25844,767.841836 972.25004,682.383074 C830.26792,767.392108 710.440553,712.231825 705.279966,559.709744 Z" id="Stroke-83" stroke="#21D8AF"></path>
                    <path d="M705.279966,559.709744 C710.440553,712.231825 866.155877,861.597127 1052.54822,892.326233" id="Stroke-85" stroke="#21D8AF"></path>
                    <path d="M705.279966,559.709744 C710.440553,712.231825 868.8473,812.028058 1058.60305,781.522948" id="Stroke-87" stroke="#21D8AF"></path>
                    <path d="M972.250214,682.16012 C1114.2306,596.92709 1225.70587,403.582198 1220.54702,250.836121 C954.530231,80.1443299 508.401669,79.920334 223.992909,250.612126 C229.151759,403.134206 341.300757,596.703095 474.083419,681.936124 C616.06554,596.703095 839.240083,596.92709 972.250214,682.16012 Z" id="Stroke-89" stroke="#21D8AF"></path>
                    <path d="M1100.77279,566.422153 C900.697601,437.898885 565.150065,437.898885 351.169771,566.198158" id="Stroke-91" stroke="#21D8AF"></path>
                    <path d="M1190.04313,411.656988 C942.19431,252.630346 526.569122,252.40635 261.451789,411.432993" id="Stroke-93" stroke="#21D8AF"></path>
                    <path d="M815.465266,625.187728 C871.090905,508.553604 912.137712,289.638456 906.978862,136.892379" id="Stroke-95" stroke="#21D8AF"></path>
                    <path d="M636.700594,625.187728 C593.634351,508.553604 554.608716,289.638456 549.673861,136.892379" id="Stroke-97" stroke="#21D8AF"></path>
                    <path d="M473.860465,682.16012 C341.076066,596.92709 228.927069,403.358202 223.769955,250.836121 C-60.6405415,421.526177 -75.669101,698.084663 190.123693,869.00045 C195.282543,1021.52253 314.833823,1076.47445 456.814207,991.465412 C324.029808,905.784391 331.656085,767.39315 473.860465,682.16012 Z" id="Stroke-99" stroke="#21D8AF"></path>
                    <path d="M351.169424,566.197637 C137.190866,694.496909 125.975446,902.644629 325.823164,1031.16616" id="Stroke-101" stroke="#21D8AF"></path>
                    <path d="M261.451268,411.432298 C-3.66953839,570.458941 -17.5746458,828.177465 230.272433,987.204108" id="Stroke-103" stroke="#21D8AF"></path>
                    <path d="M376.738986,781.074782 C190.348383,750.345676 34.6868877,601.412738 29.7520332,448.664925" id="Stroke-105" stroke="#21D8AF"></path>
                    <path d="M370.683631,892.10189 C181.153614,922.607001 22.5732263,823.243132 17.6401081,670.495319" id="Stroke-107" stroke="#21D8AF"></path>
                    <path d="M457.037334,991.241243 C315.05695,1076.47427 195.283412,1021.52062 190.348557,868.774545 C456.365347,1039.4646 902.492173,1039.69033 1186.90267,869.000277 C1192.06152,1021.52062 1088.21079,1076.47427 955.426388,991.241243 C813.222008,1076.69827 590.047466,1076.47427 457.037334,991.241243 Z" id="Stroke-109" stroke="#21D8AF"></path>
                    <path d="M326.049243,1031.16668 C526.122693,1159.68995 861.671966,1159.68995 1075.65052,1031.39068" id="Stroke-111" stroke="#21D8AF"></path>
                    <path d="M230.273996,987.204629 C478.121075,1146.23127 893.746263,1146.45527 1158.8636,987.428625" id="Stroke-113" stroke="#21D8AF"></path>
                    <path d="M613.822109,1048.21363 C558.19647,1164.84776 508.851397,1135.4661 503.69081,982.718287" id="Stroke-115" stroke="#21D8AF"></path>
                    <path d="M792.58678,1048.21363 C835.653023,1164.84776 866.380393,1135.4661 861.221543,982.718287" id="Stroke-117" stroke="#21D8AF"></path>
                    <path d="M955.427083,991.241243 C1088.21148,1076.47427 1192.06048,1021.52062 1186.90336,869.000277 C1471.31212,698.308485 1486.33895,421.749999 1220.54789,250.835948 C1225.705,403.358029 1114.22973,596.926917 972.249346,682.159946 C1105.25774,767.616972 1097.63146,906.008213 955.427083,991.241243 Z" id="Stroke-119" stroke="#21D8AF"></path>
                    <path d="M1075.65087,1031.39137 C1289.62943,903.0921 1300.84485,694.94438 1100.99713,566.422848" id="Stroke-121" stroke="#21D8AF"></path>
                    <path d="M1158.64047,987.653142 C1423.76128,828.626499 1437.66638,570.907974 1189.81757,411.881332" id="Stroke-123" stroke="#21D8AF"></path>
                    <path d="M1052.54856,892.326581 C1238.93916,923.055687 1386.3024,823.691818 1381.14354,670.944005" id="Stroke-125" stroke="#21D8AF"></path>
                    <path d="M1058.60392,781.299473 C1248.13567,750.794362 1398.41432,601.861424 1393.25721,449.113611" id="Stroke-127" stroke="#21D8AF"></path>
                    <path d="M1220.54719,251.060117 C1215.38661,98.5380365 1095.83707,43.5843853 953.856681,128.593419 C820.848286,43.1363936 597.672007,43.1363936 455.467627,128.369423 C322.683228,43.1363936 218.832496,98.0883084 223.993083,250.612126 C508.401843,80.1443299 954.530405,80.1443299 1220.54719,251.060117 Z" id="Stroke-129" stroke="#21D8AF"></path>
                    <path d="M1180.62193,132.406558 C932.773114,-26.6200848 517.149662,-26.8440807 252.030592,132.182562" id="Stroke-131" stroke="#21D8AF"></path>
                    <path d="M907.203031,137.116375 C902.044181,-15.405706 852.699108,-44.789101 797.07347,71.6210269" id="Stroke-133" stroke="#21D8AF"></path>
                    <path d="M549.673688,136.892553 C544.513101,-15.6295282 575.466203,-45.0129233 618.306714,71.6212006" id="Stroke-135" stroke="#21D8AF"></path>
                    <path d="M223.993256,250.611605 C218.834406,98.0895239 322.683402,43.1358727 455.469537,128.368902 C313.263421,213.601932 305.638879,351.993173 438.645538,437.451935 C296.66689,522.683228 185.18988,716.028121 190.348731,868.774197 C-75.6680591,698.084142 -60.641236,421.30166 223.993256,250.611605 Z" id="Stroke-137" stroke="#21D8AF"></path>
                    <path d="M252.25372,132.181868 C-12.8653499,291.20851 -26.9961895,548.927035 220.852626,708.177673" id="Stroke-139" stroke="#21D8AF"></path>
                    <path d="M29.7518595,448.89031 C24.5912727,296.368229 172.180235,197.00436 358.346842,227.733466" id="Stroke-141" stroke="#21D8AF"></path>
                    <path d="M17.6394136,670.496187 C12.4805632,517.974106 162.759213,368.815436 352.292702,338.312062" id="Stroke-143" stroke="#21D8AF"></path>
                    <path d="M190.348731,868.774892 C185.18988,716.252811 296.66689,522.683923 438.645538,437.450893 C571.653933,522.907919 794.830212,522.907919 937.036328,437.676625 C1069.81899,522.907919 1181.96799,716.478543 1187.12684,868.998888 C902.492346,1039.69068 456.36552,1039.46495 190.348731,868.774892 Z" id="Stroke-145" stroke="#21D8AF"></path>
                    <path d="M220.8528,708.178021 C468.701615,867.204664 884.325067,867.428659 1149.44414,708.402017" id="Stroke-147" stroke="#21D8AF"></path>
                    <path d="M503.691158,982.718634 C498.532307,830.196554 539.80311,611.057409 595.204753,494.647281" id="Stroke-149" stroke="#21D8AF"></path>
                    <path d="M861.222238,982.718634 C856.063387,830.196554 817.036015,611.057409 774.195505,494.423285" id="Stroke-151" stroke="#21D8AF"></path>
                    <path d="M1186.90267,868.999582 C1181.74208,716.477501 1069.59308,522.908613 936.810422,437.675584 C1079.0148,352.442554 1086.64108,214.051313 953.632685,128.594287 C1095.61307,43.3595213 1215.38661,98.3131724 1220.3232,251.059249 C1486.56398,421.751041 1471.53542,698.533523 1186.90267,868.999582 Z" id="Stroke-153" stroke="#21D8AF"></path>
                    <path d="M1149.44466,708.402711 C1414.56546,549.376068 1428.47057,291.657544 1180.62176,132.630901" id="Stroke-155" stroke="#21D8AF"></path>
                    <path d="M1381.14407,670.944699 C1375.98522,518.422619 1220.32372,369.263949 1034.15538,338.534842" id="Stroke-157" stroke="#21D8AF"></path>
                    <path d="M1393.25651,449.114132 C1388.09592,296.592051 1229.74301,197.228182 1040.21299,227.733293" id="Stroke-159" stroke="#21D8AF"></path>
                </g>
                <ellipse id="Oval" fill="url(#linearGradient-2)" opacity="0.220278533" transform="translate(1096.697435, 583.209089) rotate(77.000000) translate(-1096.697435, -583.209089) " cx="1096.69744" cy="583.209089" rx="3.67454004" ry="5.53417667"></ellipse>
                <g id="Group-3" transform="translate(0.000000, 295.515625)"></g>
                <polygon id="Page-1" fill="url(#linearGradient-3)" opacity="0.420572917" transform="translate(1441.000000, 429.750000) scale(1, -1) translate(-1441.000000, -429.750000) " points="1 859.5 2881 859.5 2881 0 1 0"></polygon>
                <g id="logo" opacity="0.182291667" transform="translate(1406.000000, 892.000000)" fill="url(#linearGradient-4)">
                    <path d="M9.14836899,18.7689029 C13.9755954,18.7689029 17.8891956,14.7399732 17.8891956,9.76840124 C17.8891956,4.79783268 13.9755954,0.768902917 9.14836899,0.768902917 C4.32114259,0.768902917 0.407542407,4.79783268 0.407542407,9.76840124 C0.407542407,14.7399732 4.32114259,18.7689029 9.14836899,18.7689029" id="Fill-1"></path>
                    <path d="M65.2937816,18.7689029 C70.1205228,18.7689029 74.034123,14.7399732 74.034123,9.76840124 C74.034123,4.79783268 70.1205228,0.768902917 65.2937816,0.768902917 C60.4665552,0.768902917 56.552955,4.79783268 56.552955,9.76840124 C56.552955,14.7399732 60.4665552,18.7689029 65.2937816,18.7689029" id="Fill-4"></path>
                    <path d="M37.2106678,0.779488201 C39.4765385,0.773468134 41.3164061,2.67129422 41.3164061,5.01410359 L41.3164061,14.5333344 C41.3164061,16.8676153 39.4891536,18.7619297 37.2315313,18.7679497 C34.9656606,18.7739698 33.1253078,16.8761437 33.1253078,14.5333344 L33.1253078,5.01410359 C33.1253078,2.67932098 34.9530455,0.785508268 37.2106678,0.779488201" id="Fill-6"></path>
                </g>
            </g>
            <g id="Group-5" transform="translate(1348.998798, 830.046875)">
                <g id="Page-1" transform="translate(0.428142, 0.882106)">
                    <path d="M14.9463427,37.1084235 C24.4412183,22.4018731 67.1101292,33.0595391 110.250311,60.911995 C153.390492,88.7648905 180.66485,123.266133 171.169975,137.972244 C161.675099,152.678355 119.006188,142.021128 75.8660065,114.168673 C32.7258249,86.315777 5.45102739,51.8149739 14.9463427,37.1084235 Z" id="Stroke-1" stroke="#29ABE2"></path>
                    <path d="M60.3970261,0.535743298 C73.0808928,-4.22664155 97.9949401,30.8856706 116.044788,78.9605675 C134.095075,127.035025 138.445097,169.868353 125.76167,174.630298 C113.077804,179.392243 88.1633168,144.280371 70.113909,96.2054739 C52.063622,48.130577 47.7131594,5.29812815 60.3970261,0.535743298 Z" id="Stroke-3" stroke="#21D8AF"></path>
                    <path d="M75.0190379,59.613978 C118.15878,31.7615221 161.211917,21.6990993 171.181141,37.1398122 C181.150365,52.5805251 154.260233,87.6765715 111.120052,115.529467 C67.97987,143.382362 24.9267328,153.444346 14.957509,138.003633 C4.98828518,122.563359 31.8788563,87.4668735 75.0190379,59.613978 Z" id="Stroke-5" stroke="#21D8AF"></path>
                    <path d="M92.3221497,49.3726745 C143.662531,48.371224 185.616183,64.6599606 186.027666,85.7546043 C186.439149,106.849248 145.152837,124.761495 93.8120161,125.762945 C42.471195,126.764396 0.517982719,110.475659 0.106060389,89.3810155 C-0.304982705,68.2863718 40.9813286,50.3741249 92.3221497,49.3726745 Z" id="Stroke-7" stroke="#29ABE2"></path>
                    <path d="M67.1278018,76.456194 C87.3449674,29.2543791 115.348652,-4.03527571 129.676691,2.10135589 C144.00473,8.23798749 139.230915,51.4775229 119.01375,98.6793378 C98.7970236,145.881153 70.7928994,179.171247 56.4648604,173.034616 C42.1368213,166.897984 46.9110759,123.658009 67.1278018,76.456194 Z" id="Stroke-9" stroke="#29ABE2"></path>
                    <path d="M60.3635272,0.52545623 C61.3306874,0.173761604 62.3857713,0.0418761198 63.4408552,0.085837948 C64.4959391,0.129799776 65.5070611,0.437532574 66.5181832,0.7892272 C68.4964654,1.53657828 70.2549386,2.67958581 71.9694499,3.910517 C75.3105488,6.46030304 78.2120295,9.49366919 80.9376628,12.6589208 C86.3449677,19.0773477 90.9169978,26.1112403 95.1812952,33.3209801 C99.4455925,40.5307199 103.22631,48.0042307 106.743256,55.609627 C110.260202,63.2150233 113.469416,70.952305 116.45882,78.7775105 C119.404263,86.6027159 122.041972,94.5598068 124.371949,102.604821 C126.701926,110.649836 128.768132,118.782774 130.306796,127.003636 C131.84546,135.224498 132.988467,143.533283 133.164315,151.929993 C133.208277,156.106366 133.032429,160.326702 132.197155,164.459114 C131.757536,166.481358 131.142071,168.547564 130.17491,170.39396 C129.69133,171.317159 129.075865,172.196395 128.328953,172.943747 C127.581163,173.691098 126.701926,174.262601 125.734766,174.658697 C126.701926,174.262601 127.581163,173.647136 128.284552,172.900224 C129.031903,172.152434 129.603407,171.273197 130.087426,170.349999 C131.054147,168.504041 131.581689,166.481358 132.021307,164.415152 C132.768658,160.326702 132.900544,156.106366 132.768658,151.973954 C132.505327,143.621207 131.273956,135.356383 129.647808,127.179923 C126.350671,110.825683 121.470468,94.7796159 115.623545,79.1731669 C109.776622,63.5227561 102.874615,48.2684413 94.5658296,33.761038 C90.3894559,26.5508585 85.8613876,19.4734438 80.5859682,13.0545773 C77.9482585,9.84536381 75.0907397,6.76803584 71.7936025,4.17428797 C70.1230531,2.89939495 68.4085418,1.75638742 66.4302595,0.965074512 C65.4635389,0.569857677 64.4519772,0.305647089 63.3968934,0.217723433 C62.4297331,0.0418761198 61.3746493,0.173761604 60.3635272,0.52545623" id="Fill-11" fill="#21D8AF"></path>
                    <path d="M16.0938783,115.969481 C17.9152168,115.969481 19.3910154,116.795963 19.3910154,117.815438 C19.3910154,118.835792 17.9152168,119.661835 16.0938783,119.661835 C14.2729793,119.661835 12.7967412,118.835792 12.7967412,117.815438 C12.7967412,116.795963 14.2729793,115.969481 16.0938783,115.969481" id="Fill-13" fill="#FFB000"></path>
                </g>
            </g>
        </g>
    </g>
</svg>