<?xml version="1.0" encoding="utf-8"?>
<!-- Generator: Adobe Illustrator 22.0.1, SVG Export Plug-In . SVG Version: 6.00 Build 0)  -->
<svg version="1.1" id="Layer_1" xmlns="http://www.w3.org/2000/svg" xmlns:xlink="http://www.w3.org/1999/xlink" x="0px" y="0px"
	 viewBox="0 0 2882 1715" style="enable-background:new 0 0 2882 1715;" xml:space="preserve">
<style type="text/css">
	.st0{fill:url(#Page-1_8_);}
	.st1{fill:none;stroke:#21D8AF;stroke-width:0.25;}
	.st2{fill:none;stroke:#4A90E2;stroke-width:0.25;}
	.st3{opacity:0.2203;fill:url(#Oval_1_);enable-background:new    ;}
	.st4{opacity:0.78;fill:url(#Page-1_9_);enable-background:new    ;}
	.st5{opacity:0.69;}
	.st6{fill:url(#Fill-1_1_);}
	.st7{fill:url(#Fill-4_1_);}
	.st8{opacity:0.54;fill:url(#Fill-6_1_);}
	.st9{fill:none;stroke:#29ABE2;}
	.st10{fill:none;stroke:#21D8AF;}
	.st11{fill:#21D8AF;}
	.st12{fill:#FFB000;}
</style>
<title>Ai_TryImandra</title>
<desc>Created with Sketch.</desc>
<g id="Page-1_7_">
	<g id="Ai_TryImandra">
		
			<linearGradient id="Page-1_8_" gradientUnits="userSpaceOnUse" x1="1.4997" y1="1806.9465" x2="1.4997" y2="1807.9255" gradientTransform="matrix(2880 0 0 -1719 -2879 3107861)">
			<stop  offset="0" style="stop-color:#26282B"/>
			<stop  offset="4.920905e-02" style="stop-color:#13151A"/>
			<stop  offset="1" style="stop-color:#000000"/>
		</linearGradient>
		<polygon id="Page-1" class="st0" points="0,1720 2880,1720 2880,1 0,1 		"/>
		<g id="Page-1_1_" transform="translate(366.865476, 55.015625)">
			<path id="Stroke-1" class="st1" d="M1357.6,237.3C1154.8,359,995.5,635.4,1002.9,853.7C995.5,635.8,835.3,359,645.6,237.3
				C848.7,115.2,1167.6,115.5,1357.6,237.3z"/>
			<path id="Stroke-3" class="st1" d="M1173.7,402.6c-94.2-60.6-252.2-60.6-352.8,0"/>
			<path id="Stroke-5" class="st1" d="M1046.5,624c-26-16.7-69.5-16.7-97.4,0"/>
			<path id="Stroke-7" class="st1" d="M1133.6,156.2c-79.5,166.6-137.8,479.2-130.7,697.5"/>
			<path id="Stroke-9" class="st1" d="M878.2,155.9c61.5,166.6,117.3,479.9,124.7,697.8"/>
			<path id="Stroke-11" class="st1" d="M645.6,237.3C835.3,359,995.5,635.8,1002.9,853.7c-7.4-217.9-178.2-296.6-381-174.8
				C431.5,556.8,442.4,359,645.6,237.3z"/>
			<path id="Stroke-13" class="st1" d="M820.9,402.6C720.2,463.2,714.8,560.9,809,621.5"/>
			<path id="Stroke-15" class="st1" d="M949.1,624c-27.9,16.7-29.2,43.6-3.2,60.2"/>
			<path id="Stroke-17" class="st1" d="M506.8,378.6c266.3,43.9,488.7,256.9,496.1,475.1"/>
			<path id="Stroke-19" class="st1" d="M498.2,537.2c270.8-43.6,497.4,98.5,504.7,316.5"/>
			<path id="Stroke-21" class="st1" d="M621.5,678.8c202.8-121.8,374.3-43.1,381.3,174.8c-7.4-217.9,141-296.6,330.4-174.8
				C1130.4,800.9,811.6,800.6,621.5,678.8z"/>
			<path id="Stroke-23" class="st1" d="M809,621.5c94.2,60.6,252.2,60.6,352.8,0"/>
			<path id="Stroke-25" class="st1" d="M945.8,684.3c26,16.7,69.5,16.7,97.4,0"/>
			<path id="Stroke-27" class="st1" d="M845.5,760.2c79.5-166.6,150-124.8,157.4,93.4"/>
			<path id="Stroke-29" class="st1" d="M1100.9,760.2c-59-163-105.4-124.5-98.1,93.4"/>
			<path id="Stroke-31" class="st1" d="M1333.6,678.8c-189.7-121.8-338.1-43.4-330.7,174.8c-7.4-217.9,151.9-494.6,354.7-616.4
				C1547.7,359.4,1536.8,557.1,1333.6,678.8z"/>
			<path id="Stroke-33" class="st1" d="M1161.8,621.8c100.6-60.6,106.1-158.3,11.9-218.9"/>
			<path id="Stroke-35" class="st1" d="M1043.3,684.3c27.9-16.7,29.2-43.6,3.2-60.2"/>
			<path id="Stroke-37" class="st1" d="M1472.4,537.5c-266.3-43.9-476.8,98.2-469.5,316.1"/>
			<path id="Stroke-39" class="st1" d="M1481,378.9c-270.8,43.6-485.5,256.9-478.1,474.8"/>
			<path id="Stroke-41" class="st1" d="M1002.9,853.7c7.4,217.9,178.2,296.3,381.3,174.8c-190.4-122.1-508.9-122.1-712.4-0.3
				C861.6,1149.9,1009.9,1071.9,1002.9,853.7z"/>
			<path id="Stroke-43" class="st1" d="M1002.9,853.7c7.4,217.9,77.9,259.7,157.3,93.4"/>
			<path id="Stroke-45" class="st1" d="M1002.9,853.7c7.4,217.9-36.9,259.7-98.1,93.1"/>
			<path id="Stroke-47" class="st1" d="M1002.9,853.7c7.4,217.9-141.3,296.3-330.7,174.5c-203.2,121.8-214.1,319.5-24,441.6
				C851,1348,1009.9,1071.9,1002.9,853.7z"/>
			<path id="Stroke-49" class="st1" d="M1002.9,853.7c7.4,217.9-203.5,359.7-469.5,316.1"/>
			<path id="Stroke-51" class="st1" d="M1002.9,853.7c7.4,217.9-207.3,430.8-478.1,474.4"/>
			<path id="Stroke-53" class="st1" d="M1002.9,853.7c7.4,217.9-151.9,494.3-354.8,616.1c190,122.1,508.9,122.1,712,0.3
				C1170.5,1348.3,1009.9,1071.9,1002.9,853.7z"/>
			<path id="Stroke-55" class="st1" d="M1002.9,853.7c7.4,217.9-51.6,530.8-131.1,697.5"/>
			<path id="Stroke-57" class="st1" d="M1002.9,853.7c7.4,217.9,63.1,530.8,124.6,697.5"/>
			<path id="Stroke-59" class="st1" d="M1002.9,853.7c7.4,217.9,167.6,494.6,357.3,616.4c203.2-121.8,214.1-319.5,24-441.6
				C1181.1,1149.9,1009.9,1071.9,1002.9,853.7z"/>
			<path id="Stroke-61" class="st1" d="M1002.9,853.7c7.4,217.9,229.8,430.8,496.1,474.7"/>
			<path id="Stroke-63" class="st1" d="M1002.9,853.7c7.4,217.9,233.6,360,504.7,316.4"/>
			<path id="Stroke-65" class="st1" d="M1002.9,853.7c7.4,217.9,178.3,296.7,381.4,175.3c-190-122.1-508.9-122.1-712-0.3
				C862,1150.4,1010.3,1071.6,1002.9,853.7z"/>
			<path id="Stroke-67" class="st1" d="M1002.9,853.7c7.4,217.9,77.9,260.2,157.4,93.9"/>
			<path id="Stroke-69" class="st1" d="M1002.9,853.7c7.4,217.9-36.8,260.2-98,93.5"/>
			<path id="Stroke-71" class="st1" d="M1002.9,853.7c7.4,217.9-141.2,296.7-330.6,174.9c-203.2,121.8-214.1,319.5-24,441.6
				C851.1,1348.4,1010.3,1071.6,1002.9,853.7z"/>
			<path id="Stroke-73" class="st1" d="M1002.9,853.7c7.4,217.9-203.4,360.2-469.4,316.6"/>
			<path id="Stroke-75" class="st1" d="M1002.9,853.7c7.4,217.9-207.3,431.3-478,474.9"/>
			<path id="Stroke-77" class="st1" d="M1002.9,853.7c7.4,217.9-151.8,494.8-354.7,616.5c190,122.1,508.9,122.1,712,0.3
				C1170.6,1348.4,1010.3,1071.6,1002.9,853.7z"/>
			<path id="Stroke-79" class="st1" d="M1002.9,853.7c7.4,217.9-51.5,531.3-131,697.9"/>
			<path id="Stroke-81" class="st1" d="M1002.9,853.7c7.4,217.9,63.2,531.3,124.7,697.9"/>
			<path id="Stroke-83" class="st1" d="M1002.9,853.7c7.4,217.9,167.7,495.1,357.4,616.8c203.2-121.8,214.1-319.5,24-441.6
				C1181.5,1150.4,1010.3,1071.6,1002.9,853.7z"/>
			<path id="Stroke-85" class="st1" d="M1002.9,853.7c7.4,217.9,229.8,431.3,496.1,475.2"/>
			<path id="Stroke-87" class="st1" d="M1002.9,853.7c7.4,217.9,233.7,360.5,504.8,316.9"/>
			<path id="Stroke-89" class="st1" d="M1384.3,1028.6c202.8-121.8,362.1-398,354.7-616.2C1359,168.5,721.6,168.2,315.3,412.1
				c7.4,217.9,167.6,494.5,357.3,616.2C875.4,906.5,1194.3,906.8,1384.3,1028.6z"/>
			<path id="Stroke-91" class="st1" d="M1567.9,863.3c-285.8-183.6-765.2-183.6-1071-0.3"/>
			<path id="Stroke-93" class="st1" d="M1695.5,642.1c-354.1-227.2-947.9-227.5-1326.7-0.3"/>
			<path id="Stroke-95" class="st1" d="M1160.3,947.2c79.5-166.6,138.1-479.4,130.7-697.6"/>
			<path id="Stroke-97" class="st1" d="M904.9,947.2c-61.5-166.6-117.3-479.4-124.3-697.6"/>
			<path id="Stroke-99" class="st1" d="M672.3,1028.6C482.6,906.8,322.3,630.3,315,412.4c-406.3,243.9-427.8,639-48.1,883.2
				c7.4,217.9,178.2,296.4,381,175C458.2,1348.1,469.1,1150.4,672.3,1028.6z"/>
			<path id="Stroke-101" class="st1" d="M497,862.9c-305.7,183.3-321.7,480.7-36.2,664.3"/>
			<path id="Stroke-103" class="st1" d="M368.8,641.8C-10,869-29.8,1237.2,324.3,1464.4"/>
			<path id="Stroke-105" class="st1" d="M533.5,1169.9C267.2,1126,44.8,913.2,37.8,695"/>
			<path id="Stroke-107" class="st1" d="M524.9,1328.5c-270.8,43.6-497.3-98.4-504.4-316.6"/>
			<path id="Stroke-109" class="st1" d="M648.2,1470.2c-202.8,121.8-374,43.3-381-175c380.1,243.9,1017.4,244.2,1423.8,0.3
				c7.4,217.9-141,296.4-330.7,174.6C1157.1,1592.3,838.3,1592,648.2,1470.2z"/>
			<path id="Stroke-111" class="st1" d="M461.1,1527.2c285.8,183.6,765.2,183.6,1071,0.3"/>
			<path id="Stroke-113" class="st1" d="M324.3,1464.4c354.1,227.2,947.9,227.5,1326.7,0.3"/>
			<path id="Stroke-115" class="st1" d="M872.2,1551.6c-79.5,166.6-150,124.7-157.3-93.6"/>
			<path id="Stroke-117" class="st1" d="M1127.6,1551.6c61.5,166.6,105.4,124.7,98.1-93.6"/>
			<path id="Stroke-119" class="st1" d="M1360.3,1470.2c189.7,121.8,338.1,43.3,330.7-174.6c406.3-243.9,427.8-639,48.1-883.2
				c7.4,217.9-151.9,494.5-354.7,616.2C1574.3,1150.7,1563.4,1348.4,1360.3,1470.2z"/>
			<path id="Stroke-121" class="st1" d="M1532,1527.5c305.7-183.3,321.7-480.7,36.2-664.3"/>
			<path id="Stroke-123" class="st1" d="M1650.6,1465.1c378.8-227.2,398.6-595.4,44.5-822.6"/>
			<path id="Stroke-125" class="st1" d="M1499,1328.9c266.3,43.9,476.8-98.1,469.5-316.3"/>
			<path id="Stroke-127" class="st1" d="M1507.7,1170.2c270.8-43.6,485.5-256.4,478.1-474.6"/>
			<path id="Stroke-129" class="st1" d="M1739.1,412.7c-7.4-217.9-178.2-296.4-381-175c-190-122.1-508.9-122.1-712-0.3
				c-189.7-121.8-338.1-43.3-330.7,174.6C721.6,168.5,1359,168.5,1739.1,412.7z"/>
			<path id="Stroke-131" class="st1" d="M1682,243.2C1327.9,16,734.1,15.7,355.3,242.9"/>
			<path id="Stroke-133" class="st1" d="M1291.4,249.9C1284,32,1213.5-10,1134,156.3"/>
			<path id="Stroke-135" class="st1" d="M780.6,249.6c-7.4-217.9,36.8-259.9,98.1-93.3"/>
			<path id="Stroke-137" class="st1" d="M315.3,412.1c-7.4-217.9,141-296.4,330.7-174.6C442.8,359.2,431.9,556.9,622,679
				c-202.8,121.8-362.1,398-354.7,616.2C-112.8,1051.4-91.4,655.9,315.3,412.1z"/>
			<path id="Stroke-139" class="st1" d="M355.7,242.9c-378.8,227.2-399,595.4-44.9,822.9"/>
			<path id="Stroke-141" class="st1" d="M37.8,695.3c-7.4-217.9,203.5-359.9,469.5-316"/>
			<path id="Stroke-143" class="st2" d="M20.5,1011.9c-7.4-217.9,207.3-431,478.1-474.6"/>
			<path id="Stroke-145" class="st1" d="M267.2,1295.2C259.8,1077.3,419.1,800.8,622,679c190,122.1,508.9,122.1,712,0.3
				c189.7,121.8,349.9,398.3,357.3,616.2C1284.7,1539.4,647.3,1539.1,267.2,1295.2z"/>
			<path id="Stroke-147" class="st1" d="M310.8,1065.8c354.1,227.2,947.9,227.5,1326.7,0.3"/>
			<path id="Stroke-149" class="st1" d="M714.9,1458c-7.4-217.9,51.6-531,130.7-697.3"/>
			<path id="Stroke-151" class="st1" d="M1225.7,1458c-7.4-217.9-63.1-531-124.3-697.6"/>
			<path id="Stroke-153" class="st1" d="M1691,1295.5c-7.4-217.9-167.6-494.5-357.3-616.2c203.2-121.8,214.1-319.5,24-441.6
				c202.8-121.8,374-43.3,381,175C2119.1,656.6,2097.6,1052,1691,1295.5z"/>
			<path id="Stroke-155" class="st1" d="M1637.5,1066.1c378.8-227.2,398.6-595.4,44.5-822.6"/>
			<path id="Stroke-157" class="st1" d="M1968.5,1012.6c-7.4-217.9-229.8-431-495.7-474.9"/>
			<path id="Stroke-159" class="st1" d="M1985.8,695.7c-7.4-217.9-233.6-359.9-504.4-316.3"/>
		</g>
		<g id="Page-1_2_" transform="translate(591.865476, 212.146103)">
			<path id="Stroke-1_1_" class="st1" d="M1077,154.8C905.7,257.6,771.1,491.1,777.4,675.4c-6.2-184.1-141.6-417.8-301.8-520.6
				C647.2,51.7,916.5,51.9,1077,154.8z"/>
			<path id="Stroke-3_1_" class="st1" d="M921.6,294.4c-79.6-51.2-213-51.2-298,0"/>
			<path id="Stroke-5_1_" class="st1" d="M814.2,481.5c-21.9-14.1-58.7-14.1-82.3,0"/>
			<path id="Stroke-7_1_" class="st1" d="M887.8,86.3c-67.1,140.7-116.4,404.8-110.4,589.1"/>
			<path id="Stroke-9_1_" class="st1" d="M672.1,86c52,140.7,99.1,405.3,105.3,589.4"/>
			<path id="Stroke-11_1_" class="st1" d="M475.6,154.8c160.2,102.9,295.6,336.6,301.8,520.6c-6.2-184.1-150.5-250.5-321.8-147.7
				C294.8,424.6,304,257.6,475.6,154.8z"/>
			<path id="Stroke-13_1_" class="st1" d="M623.6,294.4c-85,51.2-89.6,133.7-10,184.9"/>
			<path id="Stroke-15_1_" class="st1" d="M731.9,481.5c-23.5,14.1-24.6,36.8-2.7,50.9"/>
			<path id="Stroke-17_1_" class="st1" d="M358.4,274.1c224.9,37.1,412.8,216.9,419,401.3"/>
			<path id="Stroke-19_1_" class="st1" d="M351.1,408.1c228.7-36.8,420.1,83.2,426.3,267.3"/>
			<path id="Stroke-21_1_" class="st1" d="M455.3,527.8c171.3-102.9,316.1-36.4,322.1,147.7c-6.2-184.1,119.1-250.5,279-147.7
				C885.1,630.9,615.8,630.6,455.3,527.8z"/>
			<path id="Stroke-23_1_" class="st1" d="M613.6,479.3c79.6,51.2,213,51.2,298,0"/>
			<path id="Stroke-25_1_" class="st1" d="M729.2,532.4c21.9,14.1,58.7,14.1,82.3,0"/>
			<path id="Stroke-27_1_" class="st1" d="M644.5,596.5c67.1-140.7,126.7-105.4,132.9,78.9"/>
			<path id="Stroke-29_1_" class="st1" d="M860.2,596.5c-49.8-137.7-89-105.1-82.8,78.9"/>
			<path id="Stroke-31_1_" class="st1" d="M1056.7,527.8c-160.2-102.9-285.5-36.7-279.3,147.7c-6.2-184.1,128.3-417.8,299.6-520.6
				C1237.5,257.9,1228.3,424.9,1056.7,527.8z"/>
			<path id="Stroke-33_1_" class="st1" d="M911.6,479.6c85-51.2,89.6-133.7,10-184.9"/>
			<path id="Stroke-35_1_" class="st1" d="M811.5,532.4c23.5-14.1,24.6-36.8,2.7-50.9"/>
			<path id="Stroke-37_1_" class="st1" d="M1173.9,408.4c-224.9-37.1-402.7,83-396.5,267"/>
			<path id="Stroke-39_1_" class="st1" d="M1181.2,274.4c-228.7,36.8-410,216.9-403.8,401"/>
			<path id="Stroke-41_1_" class="st1" d="M777.4,675.4c6.2,184.1,150.5,250.2,322.1,147.6c-160.8-103.1-429.8-103.1-601.7-0.3
				C658,925.6,783.3,859.7,777.4,675.4z"/>
			<path id="Stroke-43_1_" class="st1" d="M777.4,675.4c6.2,184.1,65.8,219.4,132.9,78.9"/>
			<path id="Stroke-45_1_" class="st1" d="M777.4,675.4c6.2,184.1-31.1,219.4-82.8,78.6"/>
			<path id="Stroke-47_1_" class="st1" d="M777.4,675.4C783.6,859.5,658,925.6,498,822.8c-171.6,102.9-180.8,269.9-20.3,373
				C649.1,1092.9,783.3,859.7,777.4,675.4z"/>
			<path id="Stroke-49_1_" class="st1" d="M777.4,675.4c6.2,184.1-171.9,303.8-396.5,267"/>
			<path id="Stroke-51_1_" class="st1" d="M777.4,675.4c6.2,184.1-175.1,363.9-403.8,400.7"/>
			<path id="Stroke-53_1_" class="st1" d="M777.4,675.4c6.2,184.1-128.3,417.5-299.6,520.3c160.5,103.1,429.8,103.1,601.4,0.3
				C918.9,1093.2,783.3,859.7,777.4,675.4z"/>
			<path id="Stroke-55_1_" class="st1" d="M777.4,675.4c6.2,184.1-43.6,448.3-110.7,589.1"/>
			<path id="Stroke-57_1_" class="st1" d="M777.4,675.4c6.2,184.1,53.3,448.3,105.3,589.1"/>
			<path id="Stroke-59_1_" class="st1" d="M777.4,675.4c6.2,184.1,141.6,417.8,301.8,520.6c171.6-102.9,180.8-269.9,20.3-373
				C927.8,925.6,783.3,859.7,777.4,675.4z"/>
			<path id="Stroke-61_1_" class="st1" d="M777.4,675.4c6.2,184.1,194.1,363.9,419,401"/>
			<path id="Stroke-63_1_" class="st1" d="M777.4,675.4c6.2,184.1,197.3,304.1,426.3,267.3"/>
			<path id="Stroke-65_1_" class="st1" d="M777.4,675.4c6.2,184.1,150.6,250.6,322.2,148C939,720.3,669.7,720.3,498.1,823.2
				C658.3,926,783.6,859.5,777.4,675.4z"/>
			<path id="Stroke-67_1_" class="st1" d="M777.4,675.4c6.2,184.1,65.8,219.8,133,79.3"/>
			<path id="Stroke-69_1_" class="st1" d="M777.4,675.4c6.2,184.1-31.1,219.8-82.8,79"/>
			<path id="Stroke-71_1_" class="st1" d="M777.4,675.4c6.2,184.1-119.3,250.6-279.3,147.8c-171.6,102.9-180.8,269.9-20.3,373
				C649.1,1093.3,783.6,859.5,777.4,675.4z"/>
			<path id="Stroke-73_1_" class="st1" d="M777.4,675.4c6.2,184.1-171.8,304.2-396.5,267.4"/>
			<path id="Stroke-75_1_" class="st1" d="M777.4,675.4c6.2,184.1-175.1,364.3-403.8,401.1"/>
			<path id="Stroke-77_1_" class="st1" d="M777.4,675.4c6.2,184.1-128.2,417.9-299.6,520.7c160.5,103.1,429.8,103.1,601.4,0.3
				C919,1093.3,783.6,859.5,777.4,675.4z"/>
			<path id="Stroke-79_1_" class="st1" d="M777.4,675.4c6.2,184.1-43.5,448.7-110.6,589.5"/>
			<path id="Stroke-81_1_" class="st1" d="M777.4,675.4c6.2,184.1,53.4,448.7,105.4,589.5"/>
			<path id="Stroke-83_1_" class="st1" d="M777.4,675.4c6.2,184.1,141.6,418.2,301.9,521c171.6-102.9,180.8-269.9,20.3-373
				C928.2,926,783.6,859.5,777.4,675.4z"/>
			<path id="Stroke-85_1_" class="st1" d="M777.4,675.4c6.2,184.1,194.1,364.3,419.1,401.4"/>
			<path id="Stroke-87_1_" class="st1" d="M777.4,675.4c6.2,184.1,197.4,304.5,426.4,267.7"/>
			<path id="Stroke-89_1_" class="st1" d="M1099.5,823.2c171.3-102.9,305.9-336.2,299.6-520.5c-321-206-859.4-206.2-1202.6-0.3
				c6.2,184.1,141.6,417.6,301.8,520.5C669.7,720.1,939,720.3,1099.5,823.2z"/>
			<path id="Stroke-91_1_" class="st1" d="M1254.6,683.5c-241.4-155.1-646.3-155.1-904.6-0.3"/>
			<path id="Stroke-93_1_" class="st1" d="M1362.3,496.8c-299.1-191.9-800.6-192.2-1120.6-0.3"/>
			<path id="Stroke-95_1_" class="st1" d="M910.3,754.4c67.1-140.7,116.7-404.9,110.4-589.2"/>
			<path id="Stroke-97_1_" class="st1" d="M694.6,754.4c-52-140.7-99.1-404.9-105-589.2"/>
			<path id="Stroke-99_1_" class="st1" d="M498.1,823.2C337.9,720.3,202.5,486.7,196.3,302.7c-343.2,206-361.3,539.7-40.6,746
				c6.2,184.1,150.5,250.4,321.8,147.8C317.3,1093,326.5,926,498.1,823.2z"/>
			<path id="Stroke-101_1_" class="st1" d="M350.1,683.2c-258.2,154.8-271.7,406-30.6,561.1"/>
			<path id="Stroke-103_1_" class="st1" d="M241.8,496.5c-319.9,191.9-336.7,502.9-37.6,694.8"/>
			<path id="Stroke-105_1_" class="st1" d="M380.9,942.5C156,905.5-31.9,725.7-37.8,541.4"/>
			<path id="Stroke-107_1_" class="st1" d="M373.6,1076.5c-228.7,36.8-420.1-83.1-426-267.4"/>
			<path id="Stroke-109_1_" class="st1" d="M477.8,1196.2C306.5,1299,161.9,1232.7,156,1048.4c321,206,859.4,206.2,1202.6,0.3
				c6.2,184-119.1,250.4-279.3,147.5C907.6,1299.3,638.3,1299,477.8,1196.2z"/>
			<path id="Stroke-111_1_" class="st1" d="M319.7,1244.3c241.4,155.1,646.3,155.1,904.6,0.3"/>
			<path id="Stroke-113_1_" class="st1" d="M204.2,1191.3c299.1,191.9,800.6,192.2,1120.5,0.3"/>
			<path id="Stroke-115_1_" class="st1" d="M667,1264.9c-67.1,140.7-126.7,105.3-132.9-79"/>
			<path id="Stroke-117_1_" class="st1" d="M882.7,1264.9c52,140.7,89,105.3,82.8-79"/>
			<path id="Stroke-119_1_" class="st1" d="M1079.2,1196.2c160.2,102.9,285.6,36.5,279.3-147.5c343.2-206,361.3-539.7,40.6-746
				c6.2,184.1-128.3,417.6-299.6,520.5C1260,926.3,1250.8,1093.3,1079.2,1196.2z"/>
			<path id="Stroke-121_1_" class="st1" d="M1224.3,1244.6c258.2-154.8,271.7-406,30.6-561.1"/>
			<path id="Stroke-123_1_" class="st1" d="M1324.4,1191.8c319.9-191.9,336.7-502.9,37.6-694.8"/>
			<path id="Stroke-125_1_" class="st1" d="M1196.4,1076.8c224.9,37.1,402.7-82.8,396.5-267.1"/>
			<path id="Stroke-127_1_" class="st1" d="M1203.7,942.8c228.7-36.8,410.1-216.5,403.8-400.9"/>
			<path id="Stroke-129_1_" class="st1" d="M1399.2,303c-6.2-184.1-150.5-250.4-321.8-147.8C916.8,52.1,647.5,52.1,475.9,154.9
				C315.7,52.1,190.4,118.4,196.6,302.4C539.8,96.7,1078.1,96.7,1399.2,303z"/>
			<path id="Stroke-131_1_" class="st1" d="M1351,159.8C1051.9-32.1,550.3-32.4,230.4,159.5"/>
			<path id="Stroke-133_1_" class="st1" d="M1021,165.5c-6.2-184.1-65.8-219.5-132.9-79"/>
			<path id="Stroke-135_1_" class="st1" d="M589.6,165.2c-6.2-184.1,31.1-219.5,82.8-78.8"/>
			<path id="Stroke-137_1_" class="st1" d="M196.6,302.4c-6.2-184.1,119.1-250.4,279.3-147.5c-171.6,102.9-180.8,269.9-20.3,373
				C284.3,630.7,149.8,864,156,1048.4C-165,842.4-146.9,508.4,196.6,302.4z"/>
			<path id="Stroke-139_1_" class="st1" d="M230.7,159.5c-319.9,191.9-337,502.9-37.9,695.1"/>
			<path id="Stroke-141_1_" class="st1" d="M-37.8,541.7c-6.2-184.1,171.9-304,396.5-266.9"/>
			<path id="Stroke-143_1_" class="st1" d="M-52.4,809.1c-6.2-184.1,175.1-364,403.8-400.9"/>
			<path id="Stroke-145_1_" class="st1" d="M156,1048.4c-6.2-184.1,128.3-417.6,299.6-520.5C616.1,631,885.4,631,1057,528.2
				c160.2,102.9,295.6,336.4,301.8,520.5C1015.3,1254.6,477,1254.3,156,1048.4z"/>
			<path id="Stroke-147_1_" class="st1" d="M192.8,854.6c299.1,191.9,800.6,192.2,1120.6,0.3"/>
			<path id="Stroke-149_1_" class="st1" d="M534.1,1185.9c-6.2-184.1,43.6-448.5,110.4-589"/>
			<path id="Stroke-151_1_" class="st1" d="M965.5,1185.9c-6.2-184.1-53.3-448.5-105-589.2"/>
			<path id="Stroke-153_1_" class="st1" d="M1358.6,1048.6c-6.2-184.1-141.6-417.6-301.8-520.5c171.6-102.9,180.8-269.9,20.3-373
				c171.3-102.9,315.9-36.5,321.8,147.8C1720.2,508.9,1702,842.9,1358.6,1048.6z"/>
			<path id="Stroke-155_1_" class="st1" d="M1313.3,854.8c319.9-191.9,336.7-502.9,37.6-694.8"/>
			<path id="Stroke-157_1_" class="st1" d="M1592.9,809.6c-6.2-184.1-194.1-364-418.7-401.1"/>
			<path id="Stroke-159_1_" class="st1" d="M1607.6,542c-6.2-184.1-197.3-304-426-267.1"/>
		</g>
		<g id="Page-1_3_" transform="translate(922.739167, 476.573051)">
			<path id="Stroke-1_2_" class="st1" d="M629.9,94.6c-104.8,62.9-187,205.6-183.2,318.3c-3.8-112.5-86.6-255.4-184.5-318.3
				C367.1,31.6,531.7,31.8,629.9,94.6z"/>
			<path id="Stroke-3_2_" class="st1" d="M534.9,180c-48.7-31.3-130.2-31.3-182.2,0"/>
			<path id="Stroke-5_2_" class="st1" d="M469.2,294.4c-13.4-8.6-35.9-8.6-50.3,0"/>
			<path id="Stroke-7_2_" class="st1" d="M514.2,52.8c-41,86.1-71.2,247.5-67.5,360.2"/>
			<path id="Stroke-9_2_" class="st1" d="M382.3,52.6c31.8,86.1,60.6,247.8,64.4,360.4"/>
			<path id="Stroke-11_2_" class="st1" d="M262.1,94.6c98,62.9,180.7,205.8,184.5,318.3c-3.8-112.5-92-153.2-196.8-90.3
				C151.6,259.6,157.2,157.5,262.1,94.6z"/>
			<path id="Stroke-13_2_" class="st1" d="M352.7,180c-52,31.3-54.8,81.8-6.1,113"/>
			<path id="Stroke-15_2_" class="st1" d="M418.9,294.4c-14.4,8.6-15.1,22.5-1.7,31.1"/>
			<path id="Stroke-17_2_" class="st1" d="M190.5,167.6C328,190.3,442.9,300.3,446.7,413"/>
			<path id="Stroke-19_2_" class="st1" d="M186,249.5C325.8,227,442.9,300.4,446.7,413"/>
			<path id="Stroke-21_2_" class="st1" d="M249.7,322.7C354.5,259.8,443,300.4,446.7,413c-3.8-112.5,72.8-153.2,170.6-90.3
				C512.5,385.7,347.9,385.6,249.7,322.7z"/>
			<path id="Stroke-23_2_" class="st1" d="M346.5,293.1c48.7,31.3,130.2,31.3,182.2,0"/>
			<path id="Stroke-25_2_" class="st1" d="M417.2,325.5c13.4,8.6,35.9,8.6,50.3,0"/>
			<path id="Stroke-27_2_" class="st1" d="M365.4,364.7c41-86.1,77.5-64.5,81.3,48.2"/>
			<path id="Stroke-29_2_" class="st1" d="M497.3,364.7c-30.5-84.2-54.4-64.3-50.6,48.2"/>
			<path id="Stroke-31_2_" class="st1" d="M617.4,322.7c-98-62.9-174.6-22.4-170.8,90.3c-3.8-112.5,78.4-255.4,183.2-318.3
				C728,157.7,722.4,259.8,617.4,322.7z"/>
			<path id="Stroke-33_2_" class="st1" d="M528.7,293.2c52-31.3,54.8-81.8,6.1-113"/>
			<path id="Stroke-35_2_" class="st1" d="M467.5,325.5c14.4-8.6,15.1-22.5,1.7-31.1"/>
			<path id="Stroke-37_2_" class="st1" d="M689.1,249.7C551.6,227,442.9,300.4,446.7,413"/>
			<path id="Stroke-39_2_" class="st1" d="M693.6,167.8C553.7,190.3,442.9,300.4,446.7,413"/>
			<path id="Stroke-41_2_" class="st1" d="M446.7,413c3.8,112.5,92,153,196.9,90.3c-98.3-63.1-262.8-63.1-367.9-0.2
				C373.7,566,450.3,525.7,446.7,413z"/>
			<path id="Stroke-43_2_" class="st1" d="M446.7,413c3.8,112.5,40.2,134.1,81.3,48.2"/>
			<path id="Stroke-45_2_" class="st1" d="M446.7,413c3.8,112.5-19,134.1-50.6,48.1"/>
			<path id="Stroke-47_2_" class="st1" d="M446.7,413c3.8,112.5-73,153-170.8,90.1c-104.9,62.9-110.5,165-12.4,228
				C368.2,668.2,450.3,525.7,446.7,413z"/>
			<path id="Stroke-49_2_" class="st1" d="M446.7,413c3.8,112.5-105.1,185.8-242.4,163.3"/>
			<path id="Stroke-51_2_" class="st1" d="M446.7,413c3.8,112.5-107.1,222.5-246.9,245"/>
			<path id="Stroke-53_2_" class="st1" d="M446.7,413c3.8,112.5-78.4,255.3-183.2,318.2c98.1,63.1,262.8,63.1,367.7,0.2
				C533.2,668.4,450.3,525.7,446.7,413z"/>
			<path id="Stroke-55_2_" class="st1" d="M446.7,413c3.8,112.5-26.6,274.1-67.7,360.2"/>
			<path id="Stroke-57_2_" class="st1" d="M446.7,413c3.8,112.5,32.6,274.1,64.4,360.2"/>
			<path id="Stroke-59_2_" class="st1" d="M446.7,413c3.8,112.5,86.5,255.4,184.5,318.3c104.9-62.9,110.5-165,12.4-228
				C538.7,566,450.3,525.7,446.7,413z"/>
			<path id="Stroke-61_2_" class="st1" d="M446.7,413c3.8,112.5,118.7,222.5,256.2,245.2"/>
			<path id="Stroke-63_2_" class="st1" d="M446.7,413c3.8,112.5,120.6,185.9,260.6,163.4"/>
			<path id="Stroke-65_2_" class="st1" d="M446.7,413c3.8,112.5,92.1,153.2,197,90.5c-98.1-63.1-262.8-63.1-367.7-0.2
				C373.9,566.2,450.5,525.5,446.7,413z"/>
			<path id="Stroke-67_2_" class="st1" d="M446.7,413c3.8,112.5,40.3,134.4,81.3,48.5"/>
			<path id="Stroke-69_2_" class="st1" d="M446.7,413c3.8,112.5-19,134.4-50.6,48.3"/>
			<path id="Stroke-71_2_" class="st1" d="M446.7,413c3.8,112.5-72.9,153.2-170.7,90.3c-104.9,62.9-110.5,165-12.4,228
				C368.3,668.5,450.5,525.5,446.7,413z"/>
			<path id="Stroke-73_2_" class="st1" d="M446.7,413c3.8,112.5-105,186-242.4,163.5"/>
			<path id="Stroke-75_2_" class="st1" d="M446.7,413c3.8,112.5-107,222.7-246.9,245.2"/>
			<path id="Stroke-77_2_" class="st1" d="M446.7,413c3.8,112.5-78.4,255.5-183.2,318.4c98.1,63.1,262.8,63.1,367.7,0.2
				C533.3,668.5,450.5,525.5,446.7,413z"/>
			<path id="Stroke-79_2_" class="st1" d="M446.7,413c3.8,112.5-26.6,274.4-67.6,360.4"/>
			<path id="Stroke-81_2_" class="st1" d="M446.7,413c3.8,112.5,32.6,274.4,64.4,360.4"/>
			<path id="Stroke-83_2_" class="st1" d="M446.7,413c3.8,112.5,86.6,255.7,184.6,318.6c104.9-62.9,110.5-165,12.4-228
				C538.9,566.2,450.5,525.5,446.7,413z"/>
			<path id="Stroke-85_2_" class="st1" d="M446.7,413c3.8,112.5,118.7,222.7,256.2,245.4"/>
			<path id="Stroke-87_2_" class="st1" d="M446.7,413c3.8,112.5,120.7,186.2,260.7,163.7"/>
			<path id="Stroke-89_2_" class="st1" d="M643.6,503.3c104.8-62.9,187-205.5,183.2-318.2C630.6,59.1,301.4,59,91.6,184.9
				c3.8,112.5,86.6,255.4,184.5,318.2C380.8,440.3,545.5,440.4,643.6,503.3z"/>
			<path id="Stroke-91_2_" class="st1" d="M738.5,417.9c-147.6-94.8-395.2-94.8-553.1-0.2"/>
			<path id="Stroke-93_2_" class="st1" d="M804.3,303.7c-182.9-117.3-489.5-117.5-685.1-0.2"/>
			<path id="Stroke-95_2_" class="st1" d="M528,461.3c41-86.1,71.3-247.6,67.5-360.3"/>
			<path id="Stroke-97_2_" class="st1" d="M396.1,461.3c-31.8-86.1-60.6-247.6-64.2-360.3"/>
			<path id="Stroke-99_2_" class="st1" d="M275.9,503.3c-98-62.9-180.7-205.7-184.5-318.2c-209.8,125.9-220.9,330-24.8,456.1
				c3.8,112.5,92,153.1,196.8,90.4C165.4,668.3,171,566.2,275.9,503.3z"/>
			<path id="Stroke-101_2_" class="st1" d="M185.4,417.8C27.5,512.4,19.2,666,166.7,760.8"/>
			<path id="Stroke-103_2_" class="st1" d="M119.2,303.6C-76.4,420.9-86.7,611,96.2,728.4"/>
			<path id="Stroke-105_2_" class="st1" d="M204.3,576.3C66.7,553.6-48.1,443.7-51.8,331"/>
			<path id="Stroke-107_2_" class="st1" d="M199.8,658.2C59.9,680.7-57.1,607.4-60.7,494.7"/>
			<path id="Stroke-109_2_" class="st1" d="M263.5,731.4C158.7,794.2,70.4,753.7,66.7,641C263,766.9,592.2,767.1,802,641.2
				c3.8,112.5-72.8,153.1-170.8,90.2C526.3,794.4,361.6,794.2,263.5,731.4z"/>
			<path id="Stroke-111_2_" class="st1" d="M166.9,760.8c147.6,94.8,395.2,94.8,553.1,0.2"/>
			<path id="Stroke-113_2_" class="st1" d="M96.2,728.4c182.9,117.3,489.5,117.5,685.1,0.2"/>
			<path id="Stroke-115_2_" class="st1" d="M379.2,773.4c-41,86.1-77.4,64.4-81.3-48.3"/>
			<path id="Stroke-117_2_" class="st1" d="M511.1,773.4c31.8,86.1,54.4,64.4,50.6-48.3"/>
			<path id="Stroke-119_2_" class="st1" d="M631.2,731.4c98,62.9,174.6,22.3,170.8-90.2c209.8-125.9,220.9-330,24.8-456.1
				c3.8,112.5-78.4,255.4-183.2,318.2C741.8,566.4,736.1,668.5,631.2,731.4z"/>
			<path id="Stroke-121_2_" class="st1" d="M719.9,761c157.9-94.7,166.2-248.2,18.7-343.1"/>
			<path id="Stroke-123_2_" class="st1" d="M781.2,728.7c195.6-117.3,205.9-307.5,23-424.8"/>
			<path id="Stroke-125_2_" class="st1" d="M702.9,658.4C840.4,681,949.1,607.7,945.3,495"/>
			<path id="Stroke-127_2_" class="st1" d="M707.3,576.5c139.8-22.5,250.7-132.4,246.9-245.1"/>
			<path id="Stroke-129_2_" class="st1" d="M826.8,185.2c-3.8-112.5-92-153.1-196.8-90.4c-98.1-63.1-262.8-63.1-367.7-0.2
				c-98-62.9-174.6-22.3-170.8,90.2C301.4,59.1,630.6,59.1,826.8,185.2z"/>
			<path id="Stroke-131_2_" class="st1" d="M797.4,97.7C614.5-19.6,307.9-19.8,112.2,97.5"/>
			<path id="Stroke-133_2_" class="st1" d="M595.6,101.2C591.8-11.4,555.4-33,514.4,52.8"/>
			<path id="Stroke-135_2_" class="st1" d="M331.8,101c-3.8-112.5,19-134.2,50.6-48.2"/>
			<path id="Stroke-137_2_" class="st1" d="M91.6,184.9C87.7,72.4,164.4,31.8,262.3,94.7c-104.9,62.9-110.5,165-12.4,228
				C145.2,385.6,62.9,528.3,66.7,641C-129.5,515.1-118.5,310.8,91.6,184.9z"/>
			<path id="Stroke-139_2_" class="st1" d="M112.4,97.5c-195.6,117.3-206,307.5-23.2,425"/>
			<path id="Stroke-141_2_" class="st1" d="M-51.8,331.2C-55.6,218.7,53.3,145.4,190.7,168"/>
			<path id="Stroke-143_2_" class="st1" d="M-60.7,494.7c-3.8-112.5,107.1-222.6,246.9-245.1"/>
			<path id="Stroke-145_2_" class="st1" d="M66.7,641c-3.8-112.5,78.4-255.4,183.2-318.2c98.1,63.1,262.8,63.1,367.7,0.2
				c98,62.9,180.7,205.7,184.5,318.2C592.2,767.1,263,766.9,66.7,641z"/>
			<path id="Stroke-147_2_" class="st1" d="M89.2,522.5c182.9,117.3,489.5,117.5,685.1,0.2"/>
			<path id="Stroke-149_2_" class="st1" d="M297.9,725.1c-3.8-112.5,26.6-274.2,67.5-360.1"/>
			<path id="Stroke-151_2_" class="st1" d="M561.7,725.1c-3.8-112.5-32.6-274.2-64.2-360.3"/>
			<path id="Stroke-153_2_" class="st1" d="M802,641.2c-3.8-112.5-86.6-255.4-184.5-318.2c104.9-62.9,110.5-165,12.4-228
				C734.7,32,823,72.5,826.7,185.2C1023.1,311.2,1012,515.4,802,641.2z"/>
			<path id="Stroke-155_2_" class="st1" d="M774.4,522.7c195.6-117.3,205.9-307.5,23-424.8"/>
			<path id="Stroke-157_2_" class="st1" d="M945.3,495c-3.8-112.5-118.7-222.6-256-245.3"/>
			<path id="Stroke-159_2_" class="st1" d="M954.3,331.4C950.5,218.8,833.6,145.5,693.8,168"/>
		</g>
		<g id="Page-1_4_" transform="translate(738.865476, 355.721489)">
			<path id="Stroke-1_3_" class="st1" d="M879.9,128.3c-142,85.2-253.5,278.7-248.3,431.4c-5.2-152.5-117.3-346.2-250.1-431.4
				C523.7,42.8,746.9,43,879.9,128.3z"/>
			<path id="Stroke-3_3_" class="st1" d="M751.1,244c-65.9-42.4-176.5-42.4-247,0"/>
			<path id="Stroke-5_3_" class="st1" d="M662.1,399c-18.2-11.7-48.7-11.7-68.2,0"/>
			<path id="Stroke-7_3_" class="st1" d="M723.1,71.5c-55.6,116.6-96.4,335.4-91.5,488.2"/>
			<path id="Stroke-9_3_" class="st1" d="M544.3,71.3c43.1,116.6,82.1,335.9,87.3,488.4"/>
			<path id="Stroke-11_3_" class="st1" d="M381.5,128.3c132.8,85.2,244.9,278.9,250.1,431.4c-5.2-152.5-124.7-207.6-266.7-122.4
				C231.6,351.9,239.3,213.5,381.5,128.3z"/>
			<path id="Stroke-13_3_" class="st1" d="M504.2,244c-70.4,42.4-74.2,110.8-8.3,153.2"/>
			<path id="Stroke-15_3_" class="st1" d="M593.9,399c-19.5,11.7-20.4,30.5-2.2,42.2"/>
			<path id="Stroke-17_3_" class="st1" d="M284.4,227.2C470.7,257.9,626.4,407,631.6,559.7"/>
			<path id="Stroke-19_3_" class="st1" d="M278.3,338.2c189.5-30.5,348.1,69,353.3,221.5"/>
			<path id="Stroke-21_3_" class="st1" d="M364.7,437.3c142-85.2,262-30.2,266.9,122.4c-5.2-152.5,98.7-207.6,231.2-122.4
				C720.8,522.8,497.7,522.6,364.7,437.3z"/>
			<path id="Stroke-23_3_" class="st1" d="M495.9,397.2c65.9,42.4,176.5,42.4,247,0"/>
			<path id="Stroke-25_3_" class="st1" d="M591.6,441.2c18.2,11.7,48.7,11.7,68.2,0"/>
			<path id="Stroke-27_3_" class="st1" d="M521.4,494.3c55.6-116.6,105-87.4,110.1,65.4"/>
			<path id="Stroke-29_3_" class="st1" d="M700.2,494.3c-41.3-114.1-73.8-87.1-68.6,65.4"/>
			<path id="Stroke-31_3_" class="st1" d="M863,437.3C730.3,352.1,626.4,407,631.6,559.7c-5.2-152.5,106.3-346.2,248.3-431.4
				C1012.9,213.7,1005.2,352.1,863,437.3z"/>
			<path id="Stroke-33_3_" class="st1" d="M742.8,397.4c70.4-42.4,74.2-110.8,8.3-153.2"/>
			<path id="Stroke-35_3_" class="st1" d="M659.8,441.2c19.5-11.7,20.4-30.5,2.2-42.2"/>
			<path id="Stroke-37_3_" class="st1" d="M960.2,338.4c-186.4-30.7-333.7,68.8-328.6,221.3"/>
			<path id="Stroke-39_3_" class="st2" d="M966.2,227.4c-189.5,30.5-339.8,179.8-334.6,332.3"/>
			<path id="Stroke-41_3_" class="st1" d="M631.6,559.7c5.2,152.5,124.7,207.4,266.9,122.3c-133.2-85.5-356.2-85.5-498.6-0.2
				C532.6,767.1,636.5,712.5,631.6,559.7z"/>
			<path id="Stroke-43_3_" class="st1" d="M631.6,559.7c5.2,152.5,54.5,181.8,110.1,65.4"/>
			<path id="Stroke-45_3_" class="st1" d="M631.6,559.7c5.2,152.5-25.8,181.8-68.6,65.2"/>
			<path id="Stroke-47_3_" class="st1" d="M631.6,559.7c5.2,152.5-98.9,207.4-231.5,122.1c-142.2,85.2-149.8,223.6-16.8,309.1
				C525.2,905.7,636.5,712.5,631.6,559.7z"/>
			<path id="Stroke-49_3_" class="st1" d="M631.6,559.7C636.7,712.2,489.1,811.5,303,781"/>
			<path id="Stroke-51_3_" class="st1" d="M631.6,559.7c5.2,152.5-145.1,301.6-334.7,332.1"/>
			<path id="Stroke-53_3_" class="st1" d="M631.6,559.7c5.2,152.5-106.3,346-248.3,431.2c133,85.5,356.2,85.5,498.4,0.2
				C748.9,905.9,636.5,712.5,631.6,559.7z"/>
			<path id="Stroke-55_3_" class="st1" d="M631.6,559.7c5.2,152.5-36.1,371.5-91.7,488.2"/>
			<path id="Stroke-57_3_" class="st1" d="M631.6,559.7c5.2,152.5,44.2,371.5,87.2,488.2"/>
			<path id="Stroke-59_3_" class="st1" d="M631.6,559.7c5.2,152.5,117.3,346.2,250.1,431.4c142.2-85.2,149.8-223.6,16.8-309.1
				C756.3,767.1,636.5,712.5,631.6,559.7z"/>
			<path id="Stroke-61_3_" class="st1" d="M631.6,559.7c5.2,152.5,160.8,301.6,347.2,332.3"/>
			<path id="Stroke-63_3_" class="st1" d="M631.6,559.7c5.2,152.5,163.5,252,353.3,221.5"/>
			<path id="Stroke-65_3_" class="st1" d="M631.6,559.7c5.2,152.5,124.8,207.7,267,122.7c-133-85.5-356.2-85.5-498.4-0.2
				C532.9,767.4,636.7,712.2,631.6,559.7z"/>
			<path id="Stroke-67_3_" class="st1" d="M631.6,559.7c5.2,152.5,54.6,182.1,110.2,65.7"/>
			<path id="Stroke-69_3_" class="st1" d="M631.6,559.7c5.2,152.5-25.7,182.1-68.6,65.5"/>
			<path id="Stroke-71_3_" class="st1" d="M631.6,559.7c5.2,152.5-98.9,207.7-231.4,122.5c-142.2,85.2-149.8,223.6-16.8,309.1
				C525.3,906,636.7,712.2,631.6,559.7z"/>
			<path id="Stroke-73_3_" class="st1" d="M631.6,559.7c5.2,152.5-142.4,252.1-328.5,221.6"/>
			<path id="Stroke-75_3_" class="st1" d="M631.6,559.7c5.2,152.5-145.1,301.9-334.6,332.4"/>
			<path id="Stroke-77_3_" class="st1" d="M631.6,559.7c5.2,152.5-106.3,346.3-248.2,431.5c133,85.5,356.2,85.5,498.4,0.2
				C748.9,906,636.7,712.2,631.6,559.7z"/>
			<path id="Stroke-79_3_" class="st1" d="M631.6,559.7c5.2,152.5-36.1,371.9-91.7,488.5"/>
			<path id="Stroke-81_3_" class="st1" d="M631.6,559.7c5.2,152.5,44.2,371.9,87.3,488.5"/>
			<path id="Stroke-83_3_" class="st1" d="M631.6,559.7c5.2,152.5,117.4,346.5,250.1,431.8c142.2-85.2,149.8-223.6,16.8-309.1
				C756.6,767.4,636.7,712.2,631.6,559.7z"/>
			<path id="Stroke-85_3_" class="st1" d="M631.6,559.7c5.2,152.5,160.9,301.9,347.3,332.6"/>
			<path id="Stroke-87_3_" class="st1" d="M631.6,559.7c5.2,152.5,163.6,252.3,353.3,221.8"/>
			<path id="Stroke-89_3_" class="st1" d="M898.5,682.2c142-85.2,253.5-278.6,248.3-431.3c-266-170.7-712.1-170.9-996.6-0.2
				c5.2,152.5,117.3,346.1,250.1,431.3C542.4,596.7,765.5,596.9,898.5,682.2z"/>
			<path id="Stroke-91_3_" class="st1" d="M1027.1,566.4C827,437.9,491.4,437.9,277.5,566.2"/>
			<path id="Stroke-93_3_" class="st1" d="M1116.3,411.7c-247.8-159-663.5-159.3-928.6-0.2"/>
			<path id="Stroke-95_3_" class="st1" d="M741.8,625.2c55.6-116.6,96.7-335.5,91.5-488.3"/>
			<path id="Stroke-97_3_" class="st1" d="M563,625.2c-43.1-116.6-82.1-335.5-87-488.3"/>
			<path id="Stroke-99_3_" class="st1" d="M400.2,682.2c-132.8-85.2-244.9-278.8-250.1-431.3C-134.4,421.5-149.4,698.1,116.4,869
				c5.2,152.5,124.7,207.5,266.7,122.5C250.3,905.8,257.9,767.4,400.2,682.2z"/>
			<path id="Stroke-101_3_" class="st1" d="M277.5,566.2c-214,128.3-225.2,336.4-25.3,465"/>
			<path id="Stroke-103_3_" class="st1" d="M187.7,411.4c-265.1,159-279,416.7-31.2,575.8"/>
			<path id="Stroke-105_3_" class="st1" d="M303,781.1C116.6,750.3-39,601.4-44,448.7"/>
			<path id="Stroke-107_3_" class="st1" d="M297,892.1c-189.5,30.5-348.1-68.9-353-221.6"/>
			<path id="Stroke-109_3_" class="st1" d="M383.3,991.2c-142,85.2-261.8,30.3-266.7-122.5c266,170.7,712.1,170.9,996.6,0.2
				c5.2,152.5-98.7,207.5-231.5,122.2C739.5,1076.7,516.3,1076.5,383.3,991.2z"/>
			<path id="Stroke-111_3_" class="st1" d="M252.3,1031.2c200.1,128.5,535.6,128.5,749.6,0.2"/>
			<path id="Stroke-113_3_" class="st1" d="M156.6,987.2c247.8,159,663.5,159.3,928.6,0.2"/>
			<path id="Stroke-115_3_" class="st1" d="M540.1,1048.2c-55.6,116.6-105,87.3-110.1-65.5"/>
			<path id="Stroke-117_3_" class="st1" d="M718.9,1048.2c43.1,116.6,73.8,87.3,68.6-65.5"/>
			<path id="Stroke-119_3_" class="st1" d="M881.7,991.2c132.8,85.2,236.6,30.3,231.5-122.2c284.4-170.7,299.4-447.3,33.6-618.2
				c5.2,152.5-106.3,346.1-248.3,431.3C1031.5,767.6,1023.9,906,881.7,991.2z"/>
			<path id="Stroke-121_3_" class="st1" d="M1001.9,1031.4c214-128.3,225.2-336.4,25.3-465"/>
			<path id="Stroke-123_3_" class="st1" d="M1084.9,987.7c265.1-159,279-416.7,31.2-575.8"/>
			<path id="Stroke-125_3_" class="st1" d="M978.8,892.3c186.4,30.7,333.8-68.6,328.6-221.4"/>
			<path id="Stroke-127_3_" class="st1" d="M984.9,781.3c189.5-30.5,339.8-179.4,334.7-332.2"/>
			<path id="Stroke-129_3_" class="st1" d="M1146.8,251.1c-5.2-152.5-124.7-207.5-266.7-122.5c-133-85.5-356.2-85.5-498.4-0.2
				C249,43.1,145.1,98.1,150.3,250.6C434.7,80.1,880.8,80.1,1146.8,251.1z"/>
			<path id="Stroke-131_3_" class="st1" d="M1106.9,132.4c-247.8-159-663.5-159.3-928.6-0.2"/>
			<path id="Stroke-133_3_" class="st1" d="M833.5,137.1C828.3-15.4,779-44.8,723.4,71.6"/>
			<path id="Stroke-135_3_" class="st1" d="M476,136.9C470.8-15.6,501.8-45,544.6,71.6"/>
			<path id="Stroke-137_3_" class="st1" d="M150.3,250.6C145.1,98.1,249,43.1,381.8,128.4C239.6,213.6,231.9,352,364.9,437.5
				C223,522.7,111.5,716,116.6,868.8C-149.4,698.1-134.4,421.3,150.3,250.6z"/>
			<path id="Stroke-139_3_" class="st1" d="M178.5,132.2c-265.1,159-279.2,416.7-31.4,576"/>
			<path id="Stroke-141_3_" class="st1" d="M-44,448.9C-49.1,296.4,98.5,197,284.6,227.7"/>
			<path id="Stroke-143_3_" class="st1" d="M-56.1,670.5C-61.2,518,89,368.8,278.6,338.3"/>
			<path id="Stroke-145_3_" class="st1" d="M116.6,868.8C111.5,716.3,223,522.7,364.9,437.5c133,85.5,356.2,85.5,498.4,0.2
				c132.8,85.2,244.9,278.8,250.1,431.3C828.8,1039.7,382.7,1039.5,116.6,868.8z"/>
			<path id="Stroke-147_3_" class="st1" d="M147.1,708.2c247.8,159,663.5,159.3,928.6,0.2"/>
			<path id="Stroke-149_3_" class="st1" d="M430,982.7c-5.2-152.5,36.1-371.7,91.5-488.1"/>
			<path id="Stroke-151_3_" class="st1" d="M787.5,982.7c-5.2-152.5-44.2-371.7-87-488.3"/>
			<path id="Stroke-153_3_" class="st1" d="M1113.2,869c-5.2-152.5-117.3-346.1-250.1-431.3c142.2-85.2,149.8-223.6,16.8-309.1
				c142-85.2,261.8-30.3,266.7,122.5C1412.9,421.8,1397.8,698.5,1113.2,869z"/>
			<path id="Stroke-155_3_" class="st1" d="M1075.7,708.4c265.1-159,279-416.7,31.2-575.8"/>
			<path id="Stroke-157_3_" class="st1" d="M1307.4,670.9c-5.2-152.5-160.8-301.7-347-332.4"/>
			<path id="Stroke-159_3_" class="st1" d="M1319.5,449.1c-5.2-152.5-163.5-251.9-353-221.4"/>
		</g>
		
			<linearGradient id="Oval_1_" gradientUnits="userSpaceOnUse" x1="11.4109" y1="1799.0533" x2="11.4109" y2="1799.5764" gradientTransform="matrix(1.6532 7.1607 10.7847 -2.4898 -18398.0781 4980.8501)">
			<stop  offset="0" style="stop-color:#FFAE00"/>
			<stop  offset="1" style="stop-color:#FAD961"/>
		</linearGradient>
		<path id="Oval" class="st3" d="M1028.4,582c0.5,2-1.6,4.1-4.6,4.8s-5.8-0.4-6.2-2.3c-0.5-2,1.6-4.1,4.6-4.8S1027.9,580,1028.4,582
			z"/>
		<g id="Group-3" transform="translate(0.000000, 295.515625)">
		</g>
		
			<linearGradient id="Page-1_9_" gradientUnits="userSpaceOnUse" x1="1.4997" y1="1808.0886" x2="1.4997" y2="1807.1931" gradientTransform="matrix(2880 0 0 859.5 -2878 -1553208.5)">
			<stop  offset="0" style="stop-color:#020710;stop-opacity:0"/>
			<stop  offset="1" style="stop-color:#02060E"/>
		</linearGradient>
		<polygon id="Page-1_5_" class="st4" points="1,0 2881,0 2881,859.5 1,859.5 		"/>
		<g id="logo" transform="translate(1406.000000, 892.000000)" class="st5">
			
				<linearGradient id="Fill-1_1_" gradientUnits="userSpaceOnUse" x1="-1408.7737" y1="910.2432" x2="-1408.7737" y2="909.2432" gradientTransform="matrix(17.4817 0 0 -18 24563.1309 16396.7695)">
				<stop  offset="0" style="stop-color:#30D0D3"/>
				<stop  offset="1" style="stop-color:#00F0B1"/>
			</linearGradient>
			<path id="Fill-1" class="st6" d="M-64.6,30.4c4.8,0,8.7-4,8.7-9c0-5-3.9-9-8.7-9s-8.7,4-8.7,9C-73.3,26.4-69.4,30.4-64.6,30.4"/>
			
				<linearGradient id="Fill-4_1_" gradientUnits="userSpaceOnUse" x1="-1408.7737" y1="910.2432" x2="-1408.7737" y2="909.2432" gradientTransform="matrix(17.4812 0 0 -18 24618.5977 16396.7695)">
				<stop  offset="0" style="stop-color:#30D0D3"/>
				<stop  offset="1" style="stop-color:#00F0B1"/>
			</linearGradient>
			<path id="Fill-4" class="st7" d="M-8.4,30.4c4.8,0,8.7-4,8.7-9c0-5-3.9-9-8.7-9c-4.8,0-8.7,4-8.7,9
				C-17.2,26.4-13.2,30.4-8.4,30.4"/>
			
				<linearGradient id="Fill-6_1_" gradientUnits="userSpaceOnUse" x1="-1413.6208" y1="910.2394" x2="-1413.6208" y2="909.2394" gradientTransform="matrix(8.1911 0 0 -17.9885 11542.6221 16386.2363)">
				<stop  offset="0" style="stop-color:#30D0D3"/>
				<stop  offset="1" style="stop-color:#00F0B1"/>
			</linearGradient>
			<path id="Fill-6" class="st8" d="M-36.5,12.4c2.3,0,4.1,1.9,4.1,4.2v9.5c0,2.3-1.8,4.2-4.1,4.2c-2.3,0-4.1-1.9-4.1-4.2v-9.5
				C-40.6,14.3-38.8,12.4-36.5,12.4"/>
		</g>
		<g id="Group-5" transform="translate(1348.998798, 830.046875)">
			<g id="Page-1_6_" transform="translate(0.428142, 0.882106)">
				<path id="Stroke-1_4_" class="st9" d="M-58.8,37.1c9.5-14.7,52.2-4,95.3,23.8C79.7,88.8,107,123.3,97.5,138
					c-9.5,14.7-52.2,4-95.3-23.8C-41,86.3-68.3,51.8-58.8,37.1z"/>
				<path id="Stroke-3_4_" class="st10" d="M-13.3,0.5C-0.6-4.2,24.3,30.9,42.3,79c18.1,48.1,22.4,90.9,9.7,95.7
					c-12.7,4.8-37.6-30.3-55.6-78.4C-21.6,48.1-26,5.3-13.3,0.5z"/>
				<path id="Stroke-5_4_" class="st10" d="M1.3,59.6c43.1-27.9,86.2-37.9,96.2-22.5s-16.9,50.5-60.1,78.4s-86.2,37.9-96.2,22.5
					C-68.7,122.6-41.8,87.5,1.3,59.6z"/>
				<path id="Stroke-7_4_" class="st9" d="M18.6,49.4c51.3-1,93.3,15.3,93.7,36.4s-40.9,39-92.2,40s-93.3-15.3-93.7-36.4
					C-74,68.3-32.7,50.4,18.6,49.4z"/>
				<path id="Stroke-9_4_" class="st9" d="M-6.6,76.5C13.6,29.3,41.6-4,56,2.1s9.6,49.4-10.7,96.6C25.1,145.9-2.9,179.2-17.2,173
					C-31.6,166.9-26.8,123.7-6.6,76.5z"/>
				<path id="Fill-11" class="st11" d="M-13.3,0.5c1-0.4,2-0.5,3.1-0.4s2.1,0.4,3.1,0.7c2,0.7,3.7,1.9,5.5,3.1
					c3.3,2.5,6.2,5.6,9,8.7c5.4,6.4,10,13.5,14.2,20.7S29.5,48,33,55.6s6.7,15.3,9.7,23.2c2.9,7.8,5.6,15.8,7.9,23.8
					s4.4,16.2,5.9,24.4s2.7,16.5,2.9,24.9c0,4.2-0.1,8.4-1,12.5c-0.4,2-1.1,4.1-2,5.9c-0.5,0.9-1.1,1.8-1.8,2.5
					c-0.7,0.7-1.6,1.3-2.6,1.7c1-0.4,1.8-1,2.5-1.8c0.7-0.7,1.3-1.6,1.8-2.6c1-1.8,1.5-3.9,1.9-5.9c0.7-4.1,0.9-8.3,0.7-12.4
					c-0.3-8.4-1.5-16.6-3.1-24.8c-3.3-16.4-8.2-32.4-14-48c-5.8-15.7-12.7-30.9-21.1-45.4c-4.2-7.2-8.7-14.3-14-20.7
					C4.2,9.8,1.4,6.8-1.9,4.2C-3.6,2.9-5.3,1.8-7.3,1c-1-0.4-2-0.7-3-0.7C-11.3,0-12.3,0.2-13.3,0.5"/>
				<path id="Fill-13" class="st12" d="M-16.7,1.4c1.8,0,3.3,0.8,3.3,1.8c0,1-1.5,1.8-3.3,1.8c-1.8,0-3.3-0.8-3.3-1.8
					C-20,2.2-18.5,1.4-16.7,1.4"/>
			</g>
		</g>
	</g>
</g>
</svg>
