<?xml version="1.0" encoding="UTF-8"?>
<svg width="827px" height="141px" viewBox="0 0 827 141" version="1.1" xmlns="http://www.w3.org/2000/svg" xmlns:xlink="http://www.w3.org/1999/xlink">
    <!-- Generator: Sketch 48.2 (47327) - http://www.bohemiancoding.com/sketch -->
    <title>Group 16</title>
    <desc>Created with Sketch.</desc>
    <defs>
        <linearGradient x1="50%" y1="0%" x2="50%" y2="100%" id="linearGradient-1">
            <stop stop-color="#30D0D3" offset="0%"></stop>
            <stop stop-color="#00F0B1" offset="100%"></stop>
        </linearGradient>
    </defs>
    <g id="Ai_TryImandra" stroke="none" stroke-width="1" fill="none" fill-rule="evenodd" transform="translate(-1564.000000, -738.000000)">
        <g id="Group-9" transform="translate(1494.000000, 677.000000)">
            <g id="Group-2">
                <g id="Group-15" transform="translate(70.000000, 60.000000)">
                    <g id="Group-8" transform="translate(0.000000, 0.500000)">
                        <g id="Group-16">
                            <path d="M17.1505166,108.208703 L27.0305166,118.928703 L24.1905166,118.928703 L14.5105166,108.328703 L6.87051664,108.328703 L6.87051664,118.928703 L4.71051664,118.928703 L4.71051664,90.9287033 L17.0305166,90.9287033 C23.1105166,90.9287033 26.1905166,95.2887033 26.2305166,99.6487033 C26.2705166,104.208703 23.2705166,108.208703 17.1505166,108.208703 Z M6.87051664,92.9287033 L6.87051664,106.288703 L16.7905166,106.288703 C21.6705166,106.288703 23.8305166,103.528703 23.8705166,99.6087033 C23.9105166,96.3287033 21.6705166,92.9287033 17.0305166,92.9287033 L6.87051664,92.9287033 Z M46.8805168,92.9687033 L46.8805168,103.848703 L63.2805168,103.848703 L63.2805168,105.808703 L46.8805168,105.808703 L46.8805168,116.848703 L64.5605168,116.848703 L64.5605168,118.928703 L44.7605168,118.928703 L44.7605168,90.9287033 L64.0805168,90.9287033 L64.0805168,92.9687033 L46.8805168,92.9687033 Z M108.050517,118.928703 L105.730517,118.928703 L102.650517,112.048703 L85.9305169,112.048703 L82.8905169,118.928703 L80.5705169,118.928703 L93.1305169,90.9287033 L95.4905169,90.9287033 L108.050517,118.928703 Z M86.7705169,110.048703 L101.810517,110.048703 L94.2905169,93.0087033 L86.7705169,110.048703 Z M145.260517,95.2887033 L143.500517,96.3287033 C141.460517,93.0487033 138.180517,92.5687033 135.020517,92.5287033 C131.740517,92.5287033 126.540517,93.7287033 126.540517,98.2087033 C126.540517,101.768703 130.380517,102.608703 135.100517,103.488703 C140.500517,104.528703 146.100517,105.488703 146.100517,111.528703 C146.060517,117.848703 139.700517,119.368703 135.020517,119.368703 C130.660517,119.368703 125.700517,117.568703 123.540517,113.288703 L125.460517,112.328703 C127.180517,115.728703 131.580517,117.408703 135.020517,117.408703 C138.460517,117.408703 143.940517,116.448703 143.940517,111.488703 C143.980517,107.288703 139.340517,106.368703 134.740517,105.488703 C129.620517,104.488703 124.380517,103.448703 124.380517,98.2887033 C124.260517,92.3687033 130.420517,90.5287033 135.020517,90.5287033 C139.020517,90.5287033 142.500517,91.1687033 145.260517,95.2887033 Z M177.710517,90.4887033 C187.150517,90.4887033 191.870517,97.4087033 191.830517,104.968703 C191.790517,112.328703 187.110517,119.408703 177.710517,119.408703 C168.310517,119.408703 163.590517,112.288703 163.590517,104.888703 C163.590517,97.3687033 168.270517,90.4887033 177.710517,90.4887033 Z M177.710517,92.4887033 C169.670517,92.4887033 165.670517,98.3287033 165.710517,104.928703 C165.750517,111.248703 169.750517,117.408703 177.710517,117.408703 C185.710517,117.408703 189.750517,111.248703 189.750517,104.928703 C189.750517,98.4487033 185.750517,92.4887033 177.710517,92.4887033 Z M211.120517,90.9287033 L212.040517,90.9287033 L230.880517,114.088703 L230.880517,90.9287033 L233.000517,90.9287033 L233.000517,118.928703 L232.160517,118.928703 L213.280517,95.8087033 L213.280517,118.928703 L211.120517,118.928703 L211.120517,90.9287033 Z M255.530517,118.928703 L253.410517,118.928703 L253.410517,90.9287033 L255.530517,90.9287033 L255.530517,118.928703 Z M275.860517,90.9287033 L276.780517,90.9287033 L295.620517,114.088703 L295.620517,90.9287033 L297.740517,90.9287033 L297.740517,118.928703 L296.900517,118.928703 L278.020517,95.8087033 L278.020517,118.928703 L275.860517,118.928703 L275.860517,90.9287033 Z M341.390518,94.7287033 L340.150518,96.0887033 C337.710518,93.6887033 334.310518,92.4887033 331.150518,92.4887033 C322.950518,92.4887033 318.750518,98.4887033 318.790518,104.968703 C318.790518,111.568703 322.990518,117.248703 331.150518,117.248703 C334.150518,117.248703 337.270518,116.208703 339.670518,114.008703 L339.670518,106.168703 L329.910518,106.168703 L329.910518,104.288703 L341.710518,104.288703 L341.710518,114.768703 C338.790518,117.688703 335.310518,119.288703 331.150518,119.288703 C321.630518,119.288703 316.710518,112.648703 316.710518,105.008703 C316.670518,96.2487033 322.630518,90.5287033 331.150518,90.5287033 C334.830518,90.5287033 338.550518,91.9287033 341.390518,94.7287033 Z M411.410518,118.928703 L409.090518,118.928703 L406.010518,112.048703 L389.290518,112.048703 L386.250518,118.928703 L383.930518,118.928703 L396.490518,90.9287033 L398.850518,90.9287033 L411.410518,118.928703 Z M390.130518,110.048703 L405.170518,110.048703 L397.650518,93.0087033 L390.130518,110.048703 Z M448.620518,95.2887033 L446.860518,96.3287033 C444.820518,93.0487033 441.540518,92.5687033 438.380518,92.5287033 C435.100518,92.5287033 429.900518,93.7287033 429.900518,98.2087033 C429.900518,101.768703 433.740518,102.608703 438.460518,103.488703 C443.860518,104.528703 449.460518,105.488703 449.460518,111.528703 C449.420518,117.848703 443.060518,119.368703 438.380518,119.368703 C434.020518,119.368703 429.060518,117.568703 426.900518,113.288703 L428.820518,112.328703 C430.540518,115.728703 434.940518,117.408703 438.380518,117.408703 C441.820518,117.408703 447.300518,116.448703 447.300518,111.488703 C447.340518,107.288703 442.700518,106.368703 438.100518,105.488703 C432.980518,104.488703 427.740518,103.448703 427.740518,98.2887033 C427.620518,92.3687033 433.780518,90.5287033 438.380518,90.5287033 C442.380518,90.5287033 445.860518,91.1687033 448.620518,95.2887033 Z M517.880518,118.928703 L515.560518,118.928703 L512.480518,112.048703 L495.760518,112.048703 L492.720518,118.928703 L490.400518,118.928703 L502.960518,90.9287033 L505.320518,90.9287033 L517.880518,118.928703 Z M496.600518,110.048703 L511.640518,110.048703 L504.120518,93.0087033 L496.600518,110.048703 Z M580.220518,95.2887033 L578.460518,96.3287033 C576.420518,93.0487033 573.140518,92.5687033 569.980518,92.5287033 C566.700518,92.5287033 561.500518,93.7287033 561.500518,98.2087033 C561.500518,101.768703 565.340518,102.608703 570.060518,103.488703 C575.460518,104.528703 581.060518,105.488703 581.060518,111.528703 C581.020518,117.848703 574.660518,119.368703 569.980518,119.368703 C565.620518,119.368703 560.660518,117.568703 558.500518,113.288703 L560.420518,112.328703 C562.140518,115.728703 566.540518,117.408703 569.980518,117.408703 C573.420518,117.408703 578.900518,116.448703 578.900518,111.488703 C578.940518,107.288703 574.300518,106.368703 569.700518,105.488703 C564.580518,104.488703 559.340518,103.448703 559.340518,98.2887033 C559.220518,92.3687033 565.380518,90.5287033 569.980518,90.5287033 C573.980518,90.5287033 577.460518,91.1687033 580.220518,95.2887033 Z M601.870518,92.9687033 L601.870518,103.848703 L618.270518,103.848703 L618.270518,105.808703 L601.870518,105.808703 L601.870518,116.848703 L619.550518,116.848703 L619.550518,118.928703 L599.750518,118.928703 L599.750518,90.9287033 L619.070518,90.9287033 L619.070518,92.9687033 L601.870518,92.9687033 Z M650.920519,108.208703 L660.800519,118.928703 L657.960519,118.928703 L648.280519,108.328703 L640.640519,108.328703 L640.640519,118.928703 L638.480519,118.928703 L638.480519,90.9287033 L650.800519,90.9287033 C656.880519,90.9287033 659.960519,95.2887033 660.000519,99.6487033 C660.040519,104.208703 657.040519,108.208703 650.920519,108.208703 Z M640.640519,92.9287033 L640.640519,106.288703 L650.560519,106.288703 C655.440519,106.288703 657.600519,103.528703 657.640519,99.6087033 C657.680519,96.3287033 655.440519,92.9287033 650.800519,92.9287033 L640.640519,92.9287033 Z M699.450519,90.9287033 L701.770519,90.9287033 L690.250519,119.008703 L687.930519,119.008703 L676.410519,90.9287033 L678.730519,90.9287033 L689.090519,116.528703 L699.450519,90.9287033 Z M721.780519,118.928703 L719.660519,118.928703 L719.660519,90.9287033 L721.780519,90.9287033 L721.780519,118.928703 Z M763.750519,113.688703 L765.190519,115.048703 C762.390519,117.848703 758.670519,119.248703 754.990519,119.248703 C745.550519,119.248703 740.630519,112.648703 740.590519,105.088703 C740.510519,97.6087033 745.390519,90.6087033 754.990519,90.6087033 C758.670519,90.6087033 762.390519,92.0087033 765.190519,94.8087033 L763.710519,96.0887033 C761.310519,93.6887033 758.150519,92.5287033 754.990519,92.5287033 C746.830519,92.5287033 742.630519,98.2887033 742.670519,105.008703 C742.750519,111.568703 746.910519,117.248703 754.990519,117.248703 C758.150519,117.248703 761.350519,116.048703 763.750519,113.688703 Z M785.240519,92.9687033 L785.240519,103.848703 L801.640519,103.848703 L801.640519,105.808703 L785.240519,105.808703 L785.240519,116.848703 L802.920519,116.848703 L802.920519,118.928703 L783.120519,118.928703 L783.120519,90.9287033 L802.440519,90.9287033 L802.440519,92.9687033 L785.240519,92.9687033 Z" id="Reasoning-as-a-Servi" fill="#96CEC1"></path>
                            <path d="M813.310516,98.0487033 L813.310516,90.8877033 L810.527516,90.8877033 L810.527516,90.3597033 L816.687516,90.3597033 L816.687516,90.8877033 L813.904516,90.8877033 L813.904516,98.0487033 L813.310516,98.0487033 Z M826.380517,98.0487033 L826.380517,91.2067033 L823.432517,95.7167033 L823.234517,95.7167033 L820.264517,91.2067033 L820.264517,98.0487033 L819.670517,98.0487033 L819.670517,90.3487033 L820.374517,90.3487033 L823.322517,94.8367033 L826.237517,90.3487033 L826.963517,90.3487033 L826.963517,98.0487033 L826.380517,98.0487033 Z" id="TM" fill="#96CEC1"></path>
                            <g id="Page-1" transform="translate(1.610517, 0.963544)" fill="url(#linearGradient-1)">
                                <path d="M24.4130154,46.9333672 C37.3436366,46.9333672 47.8269406,36.4955524 47.8269406,23.6156191 C47.8269406,10.7382851 37.3436366,0.30047036 24.4130154,0.30047036 C11.4823942,0.30047036 0.999090217,10.7382851 0.999090217,23.6156191 C0.999090217,36.4955524 11.4823942,46.9333672 24.4130154,46.9333672" id="Fill-1"></path>
                                <path d="M174.808916,46.9333672 C187.738238,46.9333672 198.221542,36.4955524 198.221542,23.6156191 C198.221542,10.7382851 187.738238,0.30047036 174.808916,0.30047036 C161.878295,0.30047036 151.394991,10.7382851 151.394991,23.6156191 C151.394991,36.4955524 161.878295,46.9333672 174.808916,46.9333672" id="Fill-4"></path>
                                <path d="M99.5830875,0.327893831 C105.652642,0.312297544 110.581069,5.22902688 110.581069,11.2985817 L110.581069,35.9602098 C110.581069,42.0076699 105.686434,46.9153015 99.6389742,46.9308977 C93.5694194,46.946494 88.6396931,42.0297647 88.6396931,35.9602098 L88.6396931,11.2985817 C88.6396931,5.24982193 93.5356274,0.343490117 99.5830875,0.327893831" id="Fill-6"></path>
                                <g id="Group-7" transform="translate(266.000000, 2.941799)">
                                    <polygon id="Fill-8" points="0.336665545 39.0930567 5.03914762 39.0930567 5.03914762 0.198615899 0.336665545 0.198615899"></polygon>
                                    <polygon id="Fill-10" points="79.8939262 26.8469812 78.808738 26.8469812 64.7064106 7.04059082 64.7064106 39.0928861 60.0056348 39.0928861 60.0056348 0.198445272 65.7898925 0.198445272 79.5321968 20.0031294 93.2745011 0.198445272 99.0587588 0.198445272 99.0587588 39.0928861 94.3596893 39.0928861 94.3596893 7.39890767"></polygon>
                                    <path d="M172.105744,0.198274644 L189.463636,39.0927155 L184.40113,39.0927155 L180.423813,30.4487481 L158.00171,30.4487481 L154.386122,39.0927155 L148.963594,39.0927155 L166.31978,0.198274644 L172.105744,0.198274644 Z M169.213615,5.24030459 L159.812063,26.1267644 L178.255143,26.1267644 L169.213615,5.24030459 Z" id="Fill-11"></path>
                                    <polygon id="Fill-12" points="242.982693 0.198274644 266.850008 29.7304081 266.850008 0.198274644 271.550784 0.198274644 271.550784 39.0927155 268.296926 39.0927155 244.431317 9.5622883 244.431317 39.0927155 239.728835 39.0927155 239.728835 0.198274644"></polygon>
                                    <path d="M326.516588,0.198274644 L340.620622,0.198274644 C353.999491,0.198274644 360.147184,9.5622883 360.147184,19.2846188 C360.147184,29.3686787 354.36122,39.0927155 340.620622,39.0927155 L326.516588,39.0927155 L326.516588,0.198274644 Z M355.446408,19.2846188 C355.446408,12.0824501 350.745633,4.8785752 340.620622,4.8785752 L331.219071,4.8785752 L331.219071,34.4107087 L340.620622,34.4107087 C351.107362,34.4107087 355.446408,26.4884938 355.446408,19.2846188 Z" id="Fill-13"></path>
                                    <path d="M412.942612,8.01382513 L417.281659,11.6394388 L417.281659,11.929654 L417.281659,20.7271001 L429.938775,20.7271001 C435.726445,20.7271001 438.618574,17.1251626 438.618574,12.8031789 C438.618574,8.8412183 435.726445,4.52094086 430.300504,4.52094086 L417.281659,4.52094086 L417.281659,4.52251896 L412.942612,4.52251896 L412.942612,0.198957153 L430.662234,0.198957153 C439.342033,0.198957153 443.681079,6.32105646 443.681079,12.4414495 C443.681079,18.2069382 440.427221,23.9673082 432.470881,24.325625 L445.489726,38.7316686 L439.342033,38.7316686 L427.046646,25.0490838 L417.643388,25.0490838 L417.643388,39.093398 L412.942612,39.093398 L412.942612,8.33346257 L412.942612,8.01382513 Z" id="Combined-Shape"></path>
                                    <path d="M516.727552,0.198274644 L534.447174,39.0927155 L529.384668,39.0927155 L525.407351,30.4487481 L502.986954,30.4487481 L499.36966,39.0927155 L493.945426,39.0927155 L511.303318,0.198274644 L516.727552,0.198274644 Z M514.197153,5.24030459 L504.795601,26.1267644 L523.236975,26.1267644 L514.197153,5.24030459 Z" id="Fill-15"></path>
                                </g>
                            </g>
                            <path d="M0.5,141 L805.273438,141" id="Line-3" stroke="#1EBB98" stroke-linecap="square"></path>
                        </g>
                    </g>
                </g>
            </g>
        </g>
    </g>
</svg>