<svg xmlns="http://www.w3.org/2000/svg" xmlns:xlink="http://www.w3.org/1999/xlink" viewBox="0 0 826.96 140.24">
  <defs>
    <linearGradient id="9e106a4f-1dd3-435c-921b-e7e7cfa681fe" x1="26.02" y1="-11.76" x2="26.02" y2="47.37" gradientUnits="userSpaceOnUse">
      <stop offset="0" stop-color="#0080ff"/>
      <stop offset="0.21" stop-color="#009eea"/>
      <stop offset="0.56" stop-color="#00cacb"/>
      <stop offset="0.84" stop-color="#00e6b8"/>
      <stop offset="1" stop-color="#00f0b1"/>
    </linearGradient>
    <linearGradient id="10807ed3-eb2f-4dc1-aa21-f56d67960b8c" x1="176.42" y1="-11.76" x2="176.42" y2="47.37" xlink:href="#9e106a4f-1dd3-435c-921b-e7e7cfa681fe"/>
    <linearGradient id="db006dfc-082a-4b02-9114-019db864154b" x1="101.22" y1="-11.76" x2="101.22" y2="47.37" xlink:href="#9e106a4f-1dd3-435c-921b-e7e7cfa681fe"/>
    <linearGradient id="52f298d9-c28d-48da-8945-5a5138f69350" x1="270.3" y1="-11.76" x2="270.3" y2="47.37" xlink:href="#9e106a4f-1dd3-435c-921b-e7e7cfa681fe"/>
    <linearGradient id="3dd5cd03-ddcb-4c59-9111-18a3cee3135f" x1="347.14" y1="-11.76" x2="347.14" y2="47.37" xlink:href="#9e106a4f-1dd3-435c-921b-e7e7cfa681fe"/>
    <linearGradient id="d0faf97b-3e9d-41ca-a4bd-2ea0f4f43aa8" x1="436.82" y1="-11.76" x2="436.82" y2="47.37" xlink:href="#9e106a4f-1dd3-435c-921b-e7e7cfa681fe"/>
    <linearGradient id="7232a982-81d4-493e-a723-72043b8ddee0" x1="523.25" y1="-11.76" x2="523.25" y2="47.37" xlink:href="#9e106a4f-1dd3-435c-921b-e7e7cfa681fe"/>
    <linearGradient id="4e9adfb7-80d3-48d9-bdc7-a2e788b5c382" x1="610.94" y1="-11.76" x2="610.94" y2="47.37" xlink:href="#9e106a4f-1dd3-435c-921b-e7e7cfa681fe"/>
    <linearGradient id="ed048e6b-1326-4052-b514-6fb428e20cd3" x1="696.83" y1="-11.76" x2="696.83" y2="47.37" xlink:href="#9e106a4f-1dd3-435c-921b-e7e7cfa681fe"/>
    <linearGradient id="1d69c45c-bad3-4572-bc74-3b3df28f86fb" x1="781.81" y1="-11.76" x2="781.81" y2="47.37" xlink:href="#9e106a4f-1dd3-435c-921b-e7e7cfa681fe"/>
  </defs>
  <title>logo_imandra_reasoning</title>
  <g id="a107b456-e09b-4cb9-a1d8-c0e17040a3ad" data-name="Layer 2">
    <g id="00d6d518-0e76-4cad-b392-beaed047074a" data-name="Layer 1">
      <path id="cfe77526-c35c-4028-b949-940fdc03eeff" data-name="Reasoning-as-a-Servi" d="M17.15,106.94,27,117.66H24.19l-9.68-10.6H6.87v10.6H4.71v-28H17c6.08,0,9.16,4.36,9.2,8.72C26.27,102.94,23.27,106.94,17.15,106.94ZM6.87,91.66V105h9.92c4.88,0,7-2.76,7.08-6.68A6.45,6.45,0,0,0,17,91.66Zm40,0v10.88h16.4v2H46.88v11H64.56v2.08H44.76v-28H64.08v2Zm61.17,26h-2.32l-3.08-6.88H85.93l-3,6.88H80.57l12.56-28h2.36Zm-21.28-8.88h15l-7.52-17ZM145.26,94l-1.76,1c-2-3.28-5.32-3.76-8.48-3.8s-8.48,1.2-8.48,5.68c0,3.56,3.84,4.4,8.56,5.28,5.4,1,11,2,11,8,0,6.32-6.4,7.84-11.08,7.84-4.36,0-9.32-1.8-11.48-6.08l1.92-1c1.72,3.4,6.12,5.08,9.56,5.08s8.92-1,8.92-5.92c0-4.2-4.6-5.12-9.2-6-5.12-1-10.36-2-10.36-7.2-.12-5.92,6-7.76,10.64-7.76C139,89.26,142.5,89.9,145.26,94Zm32.45-4.8c9.44,0,14.16,6.92,14.12,14.48,0,7.36-4.72,14.44-14.12,14.44s-14.12-7.12-14.12-14.52S168.27,89.22,177.71,89.22Zm0,2c-8,0-12,5.84-12,12.44,0,6.32,4,12.48,12,12.48s12-6.16,12-12.48C189.75,97.18,185.75,91.22,177.71,91.22Zm33.41-1.56H212l18.84,23.16V89.66H233v28h-.84L213.28,94.54v23.12h-2.16Zm44.41,28h-2.12v-28h2.12Zm20.33-28h.92l18.84,23.16V89.66h2.12v28h-.84L278,94.54v23.12h-2.16Zm65.53,3.8-1.24,1.36a13,13,0,0,0-9-3.6c-8.2,0-12.4,6-12.36,12.48S323,116,331.15,116a12.62,12.62,0,0,0,8.52-3.24V104.9h-9.76V103h11.8V113.5A14.46,14.46,0,0,1,331.15,118c-9.52,0-14.44-6.64-14.44-14.28,0-8.76,5.92-14.48,14.44-14.48A14.58,14.58,0,0,1,341.39,93.46Zm70,24.2h-2.32L406,110.78H389.29l-3,6.88h-2.32l12.56-28h2.36Zm-21.28-8.88h15l-7.52-17ZM448.62,94l-1.76,1c-2-3.28-5.32-3.76-8.48-3.8s-8.48,1.2-8.48,5.68c0,3.56,3.84,4.4,8.56,5.28,5.4,1,11,2,11,8,0,6.32-6.4,7.84-11.08,7.84-4.36,0-9.32-1.8-11.48-6.08l1.92-1c1.72,3.4,6.12,5.08,9.56,5.08s8.92-1,8.92-5.92c0-4.2-4.6-5.12-9.2-6-5.12-1-10.36-2-10.36-7.2-.12-5.92,6-7.76,10.64-7.76C442.38,89.26,445.86,89.9,448.62,94Zm69.26,23.64h-2.32l-3.08-6.88H495.76l-3,6.88H490.4l12.56-28h2.36Zm-21.28-8.88h15l-7.52-17ZM580.22,94l-1.76,1c-2-3.28-5.32-3.76-8.48-3.8s-8.48,1.2-8.48,5.68c0,3.56,3.84,4.4,8.56,5.28,5.4,1,11,2,11,8,0,6.32-6.4,7.84-11.08,7.84-4.36,0-9.32-1.8-11.48-6.08l1.92-1c1.72,3.4,6.12,5.08,9.56,5.08s8.92-1,8.92-5.92c0-4.2-4.6-5.12-9.2-6-5.12-1-10.36-2-10.36-7.2-.12-5.92,6-7.76,10.64-7.76C574,89.26,577.46,89.9,580.22,94Zm21.65-2.32v10.88h16.4v2h-16.4v11h17.68v2.08h-19.8v-28h19.32v2Zm49,15.24,9.88,10.72H658l-9.68-10.6h-7.64v10.6h-2.16v-28H650.8c6.08,0,9.16,4.36,9.2,8.72C660,102.94,657,106.94,650.92,106.94ZM640.64,91.66V105h9.92c4.88,0,7-2.76,7.08-6.68a6.45,6.45,0,0,0-6.84-6.68Zm58.81-2h2.32l-11.52,28.08h-2.32L676.41,89.66h2.32l10.36,25.6Zm22.33,28h-2.12v-28h2.12Zm42-5.24,1.44,1.36A14.42,14.42,0,0,1,755,118c-9.44,0-14.36-6.6-14.4-14.16s4.8-14.48,14.4-14.48a14.42,14.42,0,0,1,10.2,4.2l-1.48,1.28A12.25,12.25,0,0,0,755,91.26c-8.16,0-12.36,5.76-12.32,12.48C742.75,110.3,746.91,116,755,116A12.52,12.52,0,0,0,763.75,112.42ZM785.24,91.7v10.88h16.4v2h-16.4v11h17.68v2.08h-19.8v-28h19.32v2Z" style="fill: #96cec1"/>
      <path id="0901a875-a104-4272-ad1e-05ab779b2f95" data-name="TM" d="M813.31,96.78V89.62h-2.78V89.1h6.16v.52H813.9v7.16Zm13.07,0V89.94l-3,4.51h-.2l-3-4.51v6.84h-.59v-7.7h.7l3,4.49,2.92-4.49H827v7.7Z" style="fill: #96cec1"/>
      <path id="7f6ceece-7555-4be5-879c-b08c72a19eb7" data-name="Fill-1" d="M26,46.63A23.32,23.32,0,1,0,2.61,23.32,23.36,23.36,0,0,0,26,46.63" style="fill: url(#9e106a4f-1dd3-435c-921b-e7e7cfa681fe)"/>
      <path id="10dd1df1-d6ea-4ec4-aae8-1877df1b5ac1" data-name="Fill-4" d="M176.42,46.63A23.32,23.32,0,1,0,153,23.32a23.36,23.36,0,0,0,23.41,23.31" style="fill: url(#10807ed3-eb2f-4dc1-aa21-f56d67960b8c)"/>
      <path id="a248f5b4-f472-4e98-aa4b-584d06801cf2" data-name="Fill-6" d="M101.19,0a11,11,0,0,1,11,11V35.66a11,11,0,1,1-21.94,0V11A11,11,0,0,1,101.19,0" style="fill: url(#db006dfc-082a-4b02-9114-019db864154b)"/>
      <polygon id="7bcf67e3-c0fd-4dcb-97fb-d08e2cc1da86" data-name="Fill-8" points="267.95 41.73 272.65 41.73 272.65 2.84 267.95 2.84 267.95 41.73" style="fill: url(#52f298d9-c28d-48da-8945-5a5138f69350)"/>
      <polygon id="ded26f76-502f-40d3-9582-a6f0a4c8d680" data-name="Fill-10" points="347.5 29.49 346.42 29.49 332.32 9.68 332.32 41.73 327.62 41.73 327.62 2.84 333.4 2.84 347.14 22.64 360.88 2.84 366.67 2.84 366.67 41.73 361.97 41.73 361.97 10.04 347.5 29.49" style="fill: url(#3dd5cd03-ddcb-4c59-9111-18a3cee3135f)"/>
      <path id="b7e71d89-01d3-4394-8ff1-f67d38a6e490" data-name="Fill-11" d="M439.72,2.84l17.35,38.89H452l-4-8.64H425.61L422,41.73h-5.43L433.93,2.84Zm-2.9,5-9.4,20.89h18.45Z" style="fill: url(#d0faf97b-3e9d-41ca-a4bd-2ea0f4f43aa8)"/>
      <polygon id="c7a18c06-cc4b-4b70-b005-aba970784c7e" data-name="Fill-12" points="510.59 2.84 534.46 32.37 534.46 2.84 539.16 2.84 539.16 41.73 535.91 41.73 512.04 12.2 512.04 41.73 507.34 41.73 507.34 2.84 510.59 2.84" style="fill: url(#7232a982-81d4-493e-a723-72043b8ddee0)"/>
      <path id="8d0189b2-cfe2-4ff6-b094-4d892531d30f" data-name="Fill-13" d="M594.13,2.84h14.1c13.38,0,19.53,9.36,19.53,19.09,0,10.08-5.79,19.8-19.53,19.8h-14.1Zm28.93,19.09c0-7.21-4.7-14.41-14.83-14.41h-9.4V37.05h9.4C618.72,37.05,623.06,29.13,623.06,21.93Z" style="fill: url(#4e9adfb7-80d3-48d9-bdc7-a2e788b5c382)"/>
      <path id="45a68190-e3d8-4cc9-abe3-b3d12a02b290" data-name="Combined-Shape" d="M680.55,10.66l4.34,3.62v9.09h12.66c5.79,0,8.68-3.6,8.68-7.93a8.14,8.14,0,0,0-8.32-8.28H680.55V2.84h17.72c8.68,0,13,6.12,13,12.24,0,5.77-3.25,11.53-11.21,11.89l13,14.4H707L694.66,27.69h-9.41v14h-4.7V10.66Z" style="fill: url(#ed048e6b-1326-4052-b514-6fb428e20cd3)"/>
      <path id="079d37bc-98c0-4627-8a1d-f4a77d448d38" data-name="Fill-15" d="M784.34,2.84l17.72,38.89H797l-4-8.64H770.6L767,41.73h-5.42L778.91,2.84Zm-2.53,5-9.4,20.89h18.44Z" style="fill: url(#1d69c45c-bad3-4572-bc74-3b3df28f86fb)"/>
      <path id="fed3395a-b375-4f73-ac2a-3ec9cf171b5f" data-name="Line-3" d="M.5,139.74H805.27" style="fill: none;stroke: #1ebb98;stroke-linecap: square"/>
    </g>
  </g>
</svg>
