<?xml version="1.0" encoding="utf-8"?>
<!-- Generator: Adobe Illustrator 22.0.1, SVG Export Plug-In . SVG Version: 6.00 Build 0)  -->
<svg version="1.1" id="Layer_1" xmlns="http://www.w3.org/2000/svg" xmlns:xlink="http://www.w3.org/1999/xlink" x="0px" y="0px"
	 viewBox="0 0 827 141" style="enable-background:new 0 0 827 141;" xml:space="preserve">
<style type="text/css">
	.st0{fill:#96CEC1;}
	.st1{fill:url(#Fill-1_1_);}
	.st2{fill:url(#Fill-4_1_);}
	.st3{fill:url(#Fill-6_1_);}
	.st4{fill:url(#Fill-8_1_);}
	.st5{fill:url(#Fill-10_1_);}
	.st6{fill:url(#Fill-11_1_);}
	.st7{fill:url(#Fill-12_1_);}
	.st8{fill:url(#Fill-13_1_);}
	.st9{fill:url(#Combined-Shape_1_);}
	.st10{fill:url(#Fill-15_1_);}
	.st11{fill:none;stroke:#1EBB98;stroke-linecap:square;}
</style>
<title>Group 16</title>
<desc>Created with Sketch.</desc>
<path id="Reasoning-as-a-Servi" class="st0" d="M17.2,107.7l9.9,10.7h-2.8l-9.7-10.6H6.9v10.6H4.7v-28H17c6.1,0,9.2,4.4,9.2,8.7
	C26.3,103.7,23.3,107.7,17.2,107.7z M6.9,92.4v13.4h9.9c4.9,0,7-2.8,7.1-6.7c0-3.3-2.2-6.7-6.8-6.7H6.9z M46.9,92.5v10.9h16.4v2
	H46.9v11h17.7v2.1H44.8v-28h19.3v2H46.9z M108.1,118.4h-2.3l-3.1-6.9H85.9l-3,6.9h-2.3l12.6-28h2.4L108.1,118.4z M86.8,109.5h15
	l-7.5-17L86.8,109.5z M145.3,94.8l-1.8,1c-2-3.3-5.3-3.8-8.5-3.8c-3.3,0-8.5,1.2-8.5,5.7c0,3.6,3.8,4.4,8.6,5.3c5.4,1,11,2,11,8
	c0,6.3-6.4,7.8-11.1,7.8c-4.4,0-9.3-1.8-11.5-6.1l1.9-1c1.7,3.4,6.1,5.1,9.6,5.1c3.4,0,8.9-1,8.9-5.9c0-4.2-4.6-5.1-9.2-6
	c-5.1-1-10.4-2-10.4-7.2c-0.1-5.9,6-7.8,10.6-7.8C139,90,142.5,90.7,145.3,94.8z M177.7,90c9.4,0,14.2,6.9,14.1,14.5
	c0,7.4-4.7,14.4-14.1,14.4c-9.4,0-14.1-7.1-14.1-14.5C163.6,96.9,168.3,90,177.7,90z M177.7,92c-8,0-12,5.8-12,12.4
	c0,6.3,4,12.5,12,12.5c8,0,12-6.2,12-12.5C189.8,97.9,185.8,92,177.7,92z M211.1,90.4h0.9l18.8,23.2V90.4h2.1v28h-0.8l-18.9-23.1
	v23.1h-2.2V90.4z M255.5,118.4h-2.1v-28h2.1V118.4z M275.9,90.4h0.9l18.8,23.2V90.4h2.1v28h-0.8L278,95.3v23.1h-2.2V90.4z
	 M341.4,94.2l-1.2,1.4c-2.4-2.4-5.8-3.6-9-3.6c-8.2,0-12.4,6-12.4,12.5c0,6.6,4.2,12.3,12.4,12.3c3,0,6.1-1,8.5-3.2v-7.8h-9.8v-1.9
	h11.8v10.5c-2.9,2.9-6.4,4.5-10.6,4.5c-9.5,0-14.4-6.6-14.4-14.3c0-8.8,5.9-14.5,14.4-14.5C334.8,90,338.6,91.4,341.4,94.2z
	 M411.4,118.4h-2.3l-3.1-6.9h-16.7l-3,6.9h-2.3l12.6-28h2.4L411.4,118.4z M390.1,109.5h15l-7.5-17L390.1,109.5z M448.6,94.8l-1.8,1
	c-2-3.3-5.3-3.8-8.5-3.8c-3.3,0-8.5,1.2-8.5,5.7c0,3.6,3.8,4.4,8.6,5.3c5.4,1,11,2,11,8c0,6.3-6.4,7.8-11.1,7.8
	c-4.4,0-9.3-1.8-11.5-6.1l1.9-1c1.7,3.4,6.1,5.1,9.6,5.1s8.9-1,8.9-5.9c0-4.2-4.6-5.1-9.2-6c-5.1-1-10.4-2-10.4-7.2
	c-0.1-5.9,6-7.8,10.6-7.8C442.4,90,445.9,90.7,448.6,94.8z M517.9,118.4h-2.3l-3.1-6.9h-16.7l-3,6.9h-2.3l12.6-28h2.4L517.9,118.4z
	 M496.6,109.5h15l-7.5-17L496.6,109.5z M580.2,94.8l-1.8,1c-2-3.3-5.3-3.8-8.5-3.8c-3.3,0-8.5,1.2-8.5,5.7c0,3.6,3.8,4.4,8.6,5.3
	c5.4,1,11,2,11,8c0,6.3-6.4,7.8-11.1,7.8c-4.4,0-9.3-1.8-11.5-6.1l1.9-1c1.7,3.4,6.1,5.1,9.6,5.1s8.9-1,8.9-5.9c0-4.2-4.6-5.1-9.2-6
	c-5.1-1-10.4-2-10.4-7.2c-0.1-5.9,6-7.8,10.6-7.8C574,90,577.5,90.7,580.2,94.8z M601.9,92.5v10.9h16.4v2h-16.4v11h17.7v2.1h-19.8
	v-28h19.3v2H601.9z M650.9,107.7l9.9,10.7H658l-9.7-10.6h-7.6v10.6h-2.2v-28h12.3c6.1,0,9.2,4.4,9.2,8.7
	C660,103.7,657,107.7,650.9,107.7z M640.6,92.4v13.4h9.9c4.9,0,7-2.8,7.1-6.7c0-3.3-2.2-6.7-6.8-6.7H640.6z M699.5,90.4h2.3
	l-11.5,28.1h-2.3l-11.5-28.1h2.3l10.4,25.6L699.5,90.4z M721.8,118.4h-2.1v-28h2.1V118.4z M763.8,113.2l1.4,1.4
	c-2.8,2.8-6.5,4.2-10.2,4.2c-9.4,0-14.4-6.6-14.4-14.2c-0.1-7.5,4.8-14.5,14.4-14.5c3.7,0,7.4,1.4,10.2,4.2l-1.5,1.3
	c-2.4-2.4-5.6-3.6-8.7-3.6c-8.2,0-12.4,5.8-12.3,12.5c0.1,6.6,4.2,12.2,12.3,12.2C758.2,116.7,761.4,115.5,763.8,113.2z M785.2,92.5
	v10.9h16.4v2h-16.4v11h17.7v2.1h-19.8v-28h19.3v2H785.2z"/>
<path id="TM" class="st0" d="M813.3,97.5v-7.2h-2.8v-0.5h6.2v0.5h-2.8v7.2H813.3z M826.4,97.5v-6.8l-2.9,4.5h-0.2l-3-4.5v6.8h-0.6
	v-7.7h0.7l2.9,4.5l2.9-4.5h0.7v7.7H826.4z"/>
<linearGradient id="Fill-1_1_" gradientUnits="userSpaceOnUse" x1="26.0235" y1="-11" x2="26.0235" y2="48.1354">
	<stop  offset="0" style="stop-color:#0080FF"/>
	<stop  offset="0.21" style="stop-color:#009EEA"/>
	<stop  offset="0.5646" style="stop-color:#00CACB"/>
	<stop  offset="0.8398" style="stop-color:#00E6B8"/>
	<stop  offset="1" style="stop-color:#00F0B1"/>
</linearGradient>
<path id="Fill-1" class="st1" d="M26,47.4C39,47.4,49.4,37,49.4,24.1C49.4,11.2,39,0.8,26,0.8S2.6,11.2,2.6,24.1
	C2.6,37,13.1,47.4,26,47.4"/>
<linearGradient id="Fill-4_1_" gradientUnits="userSpaceOnUse" x1="176.4188" y1="-11" x2="176.4188" y2="48.1354">
	<stop  offset="0" style="stop-color:#0080FF"/>
	<stop  offset="0.21" style="stop-color:#009EEA"/>
	<stop  offset="0.5646" style="stop-color:#00CACB"/>
	<stop  offset="0.8398" style="stop-color:#00E6B8"/>
	<stop  offset="1" style="stop-color:#00F0B1"/>
</linearGradient>
<path id="Fill-4" class="st2" d="M176.4,47.4c12.9,0,23.4-10.4,23.4-23.3c0-12.9-10.5-23.3-23.4-23.3c-12.9,0-23.4,10.4-23.4,23.3
	C153,37,163.5,47.4,176.4,47.4"/>
<linearGradient id="Fill-6_1_" gradientUnits="userSpaceOnUse" x1="101.2209" y1="-11" x2="101.2209" y2="48.1354">
	<stop  offset="0" style="stop-color:#0080FF"/>
	<stop  offset="0.21" style="stop-color:#009EEA"/>
	<stop  offset="0.5646" style="stop-color:#00CACB"/>
	<stop  offset="0.8398" style="stop-color:#00E6B8"/>
	<stop  offset="1" style="stop-color:#00F0B1"/>
</linearGradient>
<path id="Fill-6" class="st3" d="M101.2,0.8c6.1,0,11,4.9,11,11v24.7c0,6-4.9,11-10.9,11c-6.1,0-11-4.9-11-11V11.8
	C90.3,5.7,95.1,0.8,101.2,0.8"/>
<linearGradient id="Fill-8_1_" gradientUnits="userSpaceOnUse" x1="270.2984" y1="-11" x2="270.2984" y2="48.1354">
	<stop  offset="0" style="stop-color:#0080FF"/>
	<stop  offset="0.21" style="stop-color:#009EEA"/>
	<stop  offset="0.5646" style="stop-color:#00CACB"/>
	<stop  offset="0.8398" style="stop-color:#00E6B8"/>
	<stop  offset="1" style="stop-color:#00F0B1"/>
</linearGradient>
<polygon id="Fill-8" class="st4" points="267.9,42.5 272.6,42.5 272.6,3.6 267.9,3.6 "/>
<linearGradient id="Fill-10_1_" gradientUnits="userSpaceOnUse" x1="347.1427" y1="-11" x2="347.1427" y2="48.1354">
	<stop  offset="0" style="stop-color:#0080FF"/>
	<stop  offset="0.21" style="stop-color:#009EEA"/>
	<stop  offset="0.5646" style="stop-color:#00CACB"/>
	<stop  offset="0.8398" style="stop-color:#00E6B8"/>
	<stop  offset="1" style="stop-color:#00F0B1"/>
</linearGradient>
<polygon id="Fill-10" class="st5" points="347.5,30.3 346.4,30.3 332.3,10.4 332.3,42.5 327.6,42.5 327.6,3.6 333.4,3.6 347.1,23.4 
	360.9,3.6 366.7,3.6 366.7,42.5 362,42.5 362,10.8 "/>
<linearGradient id="Fill-11_1_" gradientUnits="userSpaceOnUse" x1="436.8241" y1="-11" x2="436.8241" y2="48.1354">
	<stop  offset="0" style="stop-color:#0080FF"/>
	<stop  offset="0.21" style="stop-color:#009EEA"/>
	<stop  offset="0.5646" style="stop-color:#00CACB"/>
	<stop  offset="0.8398" style="stop-color:#00E6B8"/>
	<stop  offset="1" style="stop-color:#00F0B1"/>
</linearGradient>
<path id="Fill-11" class="st6" d="M439.7,3.6l17.4,38.9H452l-4-8.6h-22.4l-3.6,8.6h-5.4l17.4-38.9H439.7z M436.8,8.6l-9.4,20.9h18.4
	L436.8,8.6z"/>
<linearGradient id="Fill-12_1_" gradientUnits="userSpaceOnUse" x1="523.2503" y1="-11" x2="523.2503" y2="48.1354">
	<stop  offset="0" style="stop-color:#0080FF"/>
	<stop  offset="0.21" style="stop-color:#009EEA"/>
	<stop  offset="0.5646" style="stop-color:#00CACB"/>
	<stop  offset="0.8398" style="stop-color:#00E6B8"/>
	<stop  offset="1" style="stop-color:#00F0B1"/>
</linearGradient>
<polygon id="Fill-12" class="st7" points="510.6,3.6 534.5,33.1 534.5,3.6 539.2,3.6 539.2,42.5 535.9,42.5 512,13 512,42.5 
	507.3,42.5 507.3,3.6 "/>
<linearGradient id="Fill-13_1_" gradientUnits="userSpaceOnUse" x1="610.9424" y1="-11" x2="610.9424" y2="48.1354">
	<stop  offset="0" style="stop-color:#0080FF"/>
	<stop  offset="0.21" style="stop-color:#009EEA"/>
	<stop  offset="0.5646" style="stop-color:#00CACB"/>
	<stop  offset="0.8398" style="stop-color:#00E6B8"/>
	<stop  offset="1" style="stop-color:#00F0B1"/>
</linearGradient>
<path id="Fill-13" class="st8" d="M594.1,3.6h14.1c13.4,0,19.5,9.4,19.5,19.1c0,10.1-5.8,19.8-19.5,19.8h-14.1V3.6z M623.1,22.7
	c0-7.2-4.7-14.4-14.8-14.4h-9.4v29.5h9.4C618.7,37.8,623.1,29.9,623.1,22.7z"/>
<linearGradient id="Combined-Shape_1_" gradientUnits="userSpaceOnUse" x1="696.8267" y1="-11" x2="696.8267" y2="48.1354">
	<stop  offset="0" style="stop-color:#0080FF"/>
	<stop  offset="0.21" style="stop-color:#009EEA"/>
	<stop  offset="0.5646" style="stop-color:#00CACB"/>
	<stop  offset="0.8398" style="stop-color:#00E6B8"/>
	<stop  offset="1" style="stop-color:#00F0B1"/>
</linearGradient>
<path id="Combined-Shape" class="st9" d="M680.6,11.4l4.3,3.6v0.3v8.8h12.7c5.8,0,8.7-3.6,8.7-7.9c0-4-2.9-8.3-8.3-8.3h-13v0h-4.3
	V3.6h17.7c8.7,0,13,6.1,13,12.2c0,5.8-3.3,11.5-11.2,11.9l13,14.4H707l-12.3-13.7h-9.4v14h-4.7V11.7V11.4z"/>
<linearGradient id="Fill-15_1_" gradientUnits="userSpaceOnUse" x1="781.8068" y1="-11" x2="781.8068" y2="48.1354">
	<stop  offset="0" style="stop-color:#0080FF"/>
	<stop  offset="0.21" style="stop-color:#009EEA"/>
	<stop  offset="0.5646" style="stop-color:#00CACB"/>
	<stop  offset="0.8398" style="stop-color:#00E6B8"/>
	<stop  offset="1" style="stop-color:#00F0B1"/>
</linearGradient>
<path id="Fill-15" class="st10" d="M784.3,3.6l17.7,38.9H797l-4-8.6h-22.4l-3.6,8.6h-5.4l17.4-38.9H784.3z M781.8,8.6l-9.4,20.9
	h18.4L781.8,8.6z"/>
<path id="Line-3" class="st11" d="M0.5,140.5h804.8"/>
</svg>
