<?xml version="1.0" encoding="utf-8"?>
<!-- Generator: Adobe Illustrator 22.0.1, SVG Export Plug-In . SVG Version: 6.00 Build 0)  -->
<svg version="1.1" id="Layer_1" xmlns="http://www.w3.org/2000/svg" xmlns:xlink="http://www.w3.org/1999/xlink" x="0px" y="0px"
	 viewBox="0 0 1085 1058.5" style="enable-background:new 0 0 1085 1058.5;" xml:space="preserve">
<style type="text/css">
	.st0{fill:url(#Fill-34_2_);}
	.st1{fill:url(#Fill-35_1_);}
	.st2{opacity:0.1993;fill:url(#Rectangle-5_2_);enable-background:new    ;}
	.st3{fill:url(#Fill-34_3_);}
	.st4{fill:url(#Rectangle-Copy_1_);}
	.st5{fill:url(#Rectangle-Copy-3_1_);}
	.st6{fill:url(#Rectangle-Copy-2_1_);}
	.st7{fill:url(#Rectangle-4-Copy-4_1_);}
	.st8{fill:url(#Rectangle-4-Copy-5_1_);}
	.st9{fill:none;stroke:#0076FF;stroke-width:0.5;stroke-linecap:square;}
	.st10{opacity:0.1993;fill:url(#Rectangle-5_3_);enable-background:new    ;}
	.st11{fill:url(#Rectangle_1_);}
	.st12{fill:url(#Rectangle-4-Copy-2_1_);}
	.st13{fill:url(#Rectangle-4-Copy-3_1_);}
</style>
<title>logo_ai3d</title>
<desc>Created with Sketch.</desc>
<g id="Page-1">
	<g id="logo_ai3d">
		<g id="Group-3" transform="translate(364.377310, 242.370308)">
			
				<linearGradient id="Fill-34_2_" gradientUnits="userSpaceOnUse" x1="-2508.5376" y1="-31.0612" x2="-2511.6387" y2="-31.0905" gradientTransform="matrix(153.9434 0 0 568.596 386944.8438 17957.5762)">
				<stop  offset="0" style="stop-color:#0E294C"/>
				<stop  offset="0.2073" style="stop-color:#02569E"/>
				<stop  offset="0.4181" style="stop-color:#1C80CA"/>
				<stop  offset="0.5947" style="stop-color:#2E9EEA"/>
				<stop  offset="0.8273" style="stop-color:#8CCFFC"/>
				<stop  offset="1" style="stop-color:#7EC7F7"/>
			</linearGradient>
			<polygon id="Fill-34" class="st0" points="531.4,0.9 379.1,0.9 379.1,72 455,72 455,498.4 377.4,498.4 377.4,569.5 531.4,569.5 
							"/>
			<linearGradient id="Fill-35_1_" gradientUnits="userSpaceOnUse" x1="-23.9218" y1="345.639" x2="313.5613" y2="237.6444">
				<stop  offset="0" style="stop-color:#0E294C"/>
				<stop  offset="0.2073" style="stop-color:#02569E"/>
				<stop  offset="0.4037" style="stop-color:#2E9EEA"/>
				<stop  offset="0.8273" style="stop-color:#8CCFFC"/>
				<stop  offset="1" style="stop-color:#7EC7F7"/>
			</linearGradient>
			<polygon id="Fill-35" class="st1" points="269.3,498.4 107.3,72 171.4,72 171.4,0.9 0.1,0.9 120.5,330.7 25.7,330.7 26.3,407 
				148.6,407 181.7,498.4 119.4,498.4 119.4,569.5 329.8,569.5 329.8,498.4 			"/>
		</g>
		
			<linearGradient id="Rectangle-5_2_" gradientUnits="userSpaceOnUse" x1="-1786.7955" y1="-24.588" x2="-1786.7955" y2="-25.5874" gradientTransform="matrix(267.5836 0 0 108.8668 478879.1562 3597.4197)">
			<stop  offset="0" style="stop-color:#0E294C;stop-opacity:0"/>
			<stop  offset="1" style="stop-color:#7EC7F7"/>
		</linearGradient>
		<polygon id="Rectangle-5" class="st2" points="741.8,811.9 895.8,811.8 831,920.6 628.2,920.6 		"/>
		
			<linearGradient id="Fill-34_3_" gradientUnits="userSpaceOnUse" x1="-1769.9407" y1="-30.61" x2="-1771.3989" y2="-30.6107" gradientTransform="matrix(78.1915 0 0 427 139223.3281 13598)">
			<stop  offset="0" style="stop-color:#0E294C"/>
			<stop  offset="0.2073" style="stop-color:#02569E"/>
			<stop  offset="0.4901" style="stop-color:#2E9EEA"/>
			<stop  offset="0.7857" style="stop-color:#8CCFFC"/>
			<stop  offset="1" style="stop-color:#7EC7F7"/>
		</linearGradient>
		<polygon id="Fill-34_1_" class="st3" points="819.3,314 744,314 778,327 819.3,327 819.4,730 760,730 741.8,740.8 819.4,741 		"/>
		<linearGradient id="Rectangle-Copy_1_" gradientUnits="userSpaceOnUse" x1="532.817" y1="216.2308" x2="556.817" y2="339.2308">
			<stop  offset="0" style="stop-color:#0E294C"/>
			<stop  offset="0.2073" style="stop-color:#02569E"/>
			<stop  offset="0.5603" style="stop-color:#2E9EEA"/>
			<stop  offset="0.8273" style="stop-color:#8CCFFC"/>
			<stop  offset="1" style="stop-color:#7EC7F7"/>
		</linearGradient>
		<polygon id="Rectangle-Copy" class="st4" points="535.7,243.3 558,262 558,331 535.7,314.3 		"/>
		<linearGradient id="Rectangle-Copy-3_1_" gradientUnits="userSpaceOnUse" x1="703.35" y1="826" x2="703.35" y2="718.9953">
			<stop  offset="0" style="stop-color:#0E294C"/>
			<stop  offset="0.2073" style="stop-color:#02569E"/>
			<stop  offset="0.5208" style="stop-color:#2E9EEA"/>
			<stop  offset="0.8273" style="stop-color:#8CCFFC"/>
			<stop  offset="1" style="stop-color:#87CDFA"/>
			<stop  offset="1" style="stop-color:#7EC7F7"/>
		</linearGradient>
		<polygon id="Rectangle-Copy-3" class="st5" points="694,740.8 712.7,729 712.7,795 694.2,811.9 		"/>
		
			<linearGradient id="Rectangle-Copy-2_1_" gradientUnits="userSpaceOnUse" x1="448.4206" y1="243.0836" x2="724.5088" y2="928.2538">
			<stop  offset="0" style="stop-color:#0E294C"/>
			<stop  offset="0.2073" style="stop-color:#02569E"/>
			<stop  offset="0.5603" style="stop-color:#2E9EEA"/>
			<stop  offset="0.8273" style="stop-color:#8CCFFC"/>
			<stop  offset="1" style="stop-color:#7EC7F7"/>
		</linearGradient>
		<polygon id="Rectangle-Copy-2" class="st6" points="471.7,314.3 499,330.5 654,730 633.7,741 		"/>
		
			<linearGradient id="Rectangle-4-Copy-4_1_" gradientUnits="userSpaceOnUse" x1="771.0179" y1="710.8537" x2="638.4526" y2="744.3592">
			<stop  offset="0" style="stop-color:#0E294C"/>
			<stop  offset="0.2073" style="stop-color:#02569E"/>
			<stop  offset="0.5603" style="stop-color:#2E9EEA"/>
			<stop  offset="0.8273" style="stop-color:#8CCFFC"/>
			<stop  offset="1" style="stop-color:#7EC7F7"/>
		</linearGradient>
		<polygon id="Rectangle-4-Copy-4" class="st7" points="633.6,740.8 694.1,740.8 712.8,729 653.7,730 		"/>
		<linearGradient id="Rectangle-4-Copy-5_1_" gradientUnits="userSpaceOnUse" x1="459" y1="322.4" x2="577" y2="322.4">
			<stop  offset="0" style="stop-color:#0E294C"/>
			<stop  offset="0.2073" style="stop-color:#02569E"/>
			<stop  offset="0.5603" style="stop-color:#2E9EEA"/>
			<stop  offset="0.8273" style="stop-color:#8CCFFC"/>
			<stop  offset="1" style="stop-color:#7EC7F7"/>
		</linearGradient>
		<polygon id="Rectangle-4-Copy-5" class="st8" points="498.8,330.5 558.2,330.8 535.7,314 471.6,314.3 		"/>
		<path id="Line-Copy-2" class="st9" d="M936.9,746.6l-194,309.8"/>
		<path id="Line-Copy-3" class="st9" d="M483.8,812L301.5,912.5"/>
		<path id="Line-Copy-7" class="st9" d="M736,679.2l-83.8,50.2"/>
		<path id="Line-Copy-4" class="st9" d="M370.5,246.5l-254-124"/>
		<path id="Line-Copy-6" class="st9" d="M927.3,297L755.3,1"/>
		<path id="Line-Copy-11" class="st9" d="M1030.5,268.5H911.1"/>
		<path id="Line-Copy-9" class="st9" d="M1084.5,811.9H720.3"/>
		<path id="Line-Copy-16" class="st9" d="M956,788h-45"/>
		<path id="Line-Copy-10" class="st9" d="M522.5,243.3H303.6"/>
		<path id="Line-Copy-14" class="st9" d="M412.1,574H295.3"/>
		<path id="Line-Copy-18" class="st9" d="M389.4,647h-99.9"/>
		<path id="Line-Copy-17" class="st9" d="M622.6,262.3h-64.3"/>
		
			<linearGradient id="Rectangle-5_3_" gradientUnits="userSpaceOnUse" x1="-1788.2932" y1="-24.1352" x2="-1788.2932" y2="-25.1351" gradientTransform="matrix(344.554 0 0 102.6084 616685.5 3390.9766)">
			<stop  offset="0" style="stop-color:#0E294C;stop-opacity:0"/>
			<stop  offset="1" style="stop-color:#7EC7F7"/>
		</linearGradient>
		<polygon id="Rectangle-5_1_" class="st10" points="484,811.9 694.2,811.9 574.7,914.5 349.7,882.6 		"/>
		
			<linearGradient id="Rectangle_1_" gradientUnits="userSpaceOnUse" x1="-1675.8079" y1="-30.5807" x2="-1675.8077" y2="-31.5807" gradientTransform="matrix(15.2437 0 0 568.6205 26448.9121 18200.7461)">
			<stop  offset="0" style="stop-color:#0E294C"/>
			<stop  offset="0.3753" style="stop-color:#02569E"/>
			<stop  offset="0.632" style="stop-color:#2E9EEA"/>
			<stop  offset="0.8273" style="stop-color:#8CCFFC"/>
			<stop  offset="1" style="stop-color:#7EC7F7"/>
		</linearGradient>
		<polygon id="Rectangle" class="st11" points="895.8,243.3 911,269 911,788 895.8,811.9 		"/>
		
			<linearGradient id="Rectangle-4-Copy-2_1_" gradientUnits="userSpaceOnUse" x1="495.7226" y1="567.9877" x2="425.2261" y2="566.4878">
			<stop  offset="0" style="stop-color:#0E294C"/>
			<stop  offset="0.2073" style="stop-color:#02569E"/>
			<stop  offset="0.5603" style="stop-color:#2E9EEA"/>
			<stop  offset="0.8273" style="stop-color:#8CCFFC"/>
			<stop  offset="1" style="stop-color:#7EC7F7"/>
		</linearGradient>
		<polygon id="Rectangle-4-Copy-2" class="st12" points="390.2,573.1 485.6,574 480.2,560.3 		"/>
		<linearGradient id="Rectangle-4-Copy-3_1_" gradientUnits="userSpaceOnUse" x1="554.0898" y1="735.4" x2="495.5928" y2="735.4">
			<stop  offset="0" style="stop-color:#0E294C"/>
			<stop  offset="0.2073" style="stop-color:#02569E"/>
			<stop  offset="0.5603" style="stop-color:#2E9EEA"/>
			<stop  offset="0.8273" style="stop-color:#8CCFFC"/>
			<stop  offset="1" style="stop-color:#7EC7F7"/>
		</linearGradient>
		<polygon id="Rectangle-4-Copy-3" class="st13" points="483.8,740.8 546.9,741 542.2,729.8 		"/>
		<path id="Line-Copy-8" class="st9" d="M977.5,243.9h-83"/>
		<path id="Line-Copy-13" class="st9" d="M666.9,811.9h-302"/>
		<path id="Line-Copy-14_1_" class="st9" d="M482.5,559.5l-167,26"/>
		<path id="Line-Copy-15" class="st9" d="M392.5,648.5l-392,98"/>
		<path id="Line-Copy-15_1_" class="st9" d="M392.5,648.5l-392,98"/>
	</g>
</g>
</svg>
