<?xml version="1.0" encoding="utf-8"?>
<!-- Generator: Adobe Illustrator 22.0.1, SVG Export Plug-In . SVG Version: 6.00 Build 0)  -->
<svg version="1.1" xmlns="http://www.w3.org/2000/svg" xmlns:xlink="http://www.w3.org/1999/xlink" x="0px" y="0px"
	 viewBox="0 0 1085 1058.5" style="enable-background:new 0 0 1085 1058.5;" xml:space="preserve">
<style type="text/css">
	.st0{fill:url(#Fill-34_2_);}
	.st1{fill:url(#Fill-35_1_);}
	.st2{fill:url(#Fill-34_3_);}
	.st3{fill:url(#Rectangle-Copy_2_);}
	.st4{fill:url(#Rectangle-Copy_3_);}
	.st5{fill:url(#Rectangle-Copy-3_2_);}
	.st6{fill:url(#Rectangle-Copy-3_3_);}
	.st7{fill:url(#Rectangle-Copy-2_1_);}
	.st8{fill:url(#Rectangle-4-Copy-4_1_);}
	.st9{fill:url(#Rectangle-4-Copy-5_1_);}
	.st10{fill:url(#Rectangle_1_);}
	.st11{fill:url(#Rectangle-4-Copy-2_1_);}
	.st12{fill:url(#Rectangle-4-Copy-3_1_);}
	.st13{fill:none;stroke:#0076FF;stroke-width:0.5;stroke-linecap:square;}
	.st14{opacity:0.1993;fill:url(#Rectangle-5_4_);enable-background:new    ;}
	.st15{opacity:0.1993;fill:url(#Rectangle-5_5_);enable-background:new    ;}
	.st16{opacity:0.1993;fill:url(#Rectangle-5_6_);enable-background:new    ;}
</style>
<g id="Layer_1">
	<title>logo_ai3d</title>
	<desc>Created with Sketch.</desc>
	<g id="Group-3" transform="translate(364.377310, 242.370308)">
		
			<linearGradient id="Fill-34_2_" gradientUnits="userSpaceOnUse" x1="-3764.8496" y1="1267.9523" x2="-3767.9507" y2="1267.9816" gradientTransform="matrix(153.9434 0 0 -568.596 580228.5625 721248.875)">
			<stop  offset="0" style="stop-color:#0E294C"/>
			<stop  offset="0.2073" style="stop-color:#02569E"/>
			<stop  offset="0.4181" style="stop-color:#1C80CA"/>
			<stop  offset="0.5947" style="stop-color:#2E9EEA"/>
			<stop  offset="0.8273" style="stop-color:#8CCFFC"/>
			<stop  offset="1" style="stop-color:#7EC7F7"/>
		</linearGradient>
		<polygon id="Fill-34" class="st0" points="414.2,0.9 261.9,0.9 261.9,72 337.8,72 337.8,498.4 260.2,498.4 260.2,569.5 
			414.2,569.5 		"/>
		
			<linearGradient id="Fill-35_1_" gradientUnits="userSpaceOnUse" x1="-505.5378" y1="471.9907" x2="-168.0547" y2="579.9853" gradientTransform="matrix(1 0 0 -1 364.3773 817.6297)">
			<stop  offset="0" style="stop-color:#0E294C"/>
			<stop  offset="0.2073" style="stop-color:#02569E"/>
			<stop  offset="0.4037" style="stop-color:#2E9EEA"/>
			<stop  offset="0.8273" style="stop-color:#8CCFFC"/>
			<stop  offset="1" style="stop-color:#7EC7F7"/>
		</linearGradient>
		<polygon id="Fill-35" class="st1" points="152.1,498.4 -9.9,72 54.2,72 54.2,0.9 -117.1,0.9 3.3,330.7 -91.5,330.7 -90.9,407 
			31.4,407 64.5,498.4 2.2,498.4 2.2,569.5 212.6,569.5 212.6,498.4 		"/>
	</g>
	<linearGradient id="Fill-34_3_" gradientUnits="userSpaceOnUse" x1="787.4912" y1="467.2236" x2="638.9855" y2="539.9815">
		<stop  offset="0" style="stop-color:#0E294C"/>
		<stop  offset="0.2073" style="stop-color:#02569E"/>
		<stop  offset="0.4901" style="stop-color:#2E9EEA"/>
		<stop  offset="0.7857" style="stop-color:#8CCFFC"/>
		<stop  offset="1" style="stop-color:#7EC7F7"/>
	</linearGradient>
	<polygon id="Fill-34_1_" class="st2" points="702.1,314 626.8,314 614.5,331 701.5,331 687,729 616.3,729 624.6,740.8 702.2,741 	
		"/>
	
		<linearGradient id="Rectangle-Copy_2_" gradientUnits="userSpaceOnUse" x1="410.6414" y1="842.1915" x2="434.1078" y2="721.9264" gradientTransform="matrix(1 0 0 -1 0 1060)">
		<stop  offset="0" style="stop-color:#0E294C"/>
		<stop  offset="0.2073" style="stop-color:#02569E"/>
		<stop  offset="0.5603" style="stop-color:#2E9EEA"/>
		<stop  offset="0.8273" style="stop-color:#8CCFFC"/>
		<stop  offset="1" style="stop-color:#7EC7F7"/>
	</linearGradient>
	<polygon id="Rectangle-Copy" class="st3" points="418.5,243.3 430.3,262 430.3,331 418.5,314.3 	"/>
	
		<linearGradient id="Rectangle-Copy_3_" gradientUnits="userSpaceOnUse" x1="527.5746" y1="842.1915" x2="551.041" y2="721.9264" gradientTransform="matrix(-1 0 0 -1 1161.7332 1060)">
		<stop  offset="0" style="stop-color:#0E294C"/>
		<stop  offset="0.2073" style="stop-color:#02569E"/>
		<stop  offset="0.5603" style="stop-color:#2E9EEA"/>
		<stop  offset="0.8273" style="stop-color:#8CCFFC"/>
		<stop  offset="1" style="stop-color:#7EC7F7"/>
	</linearGradient>
	<polygon id="Rectangle-Copy_1_" class="st4" points="626.3,314.3 614.5,331 614.5,262 626.3,243.3 	"/>
	
		<linearGradient id="Rectangle-Copy-3_2_" gradientUnits="userSpaceOnUse" x1="580.8666" y1="234" x2="580.8666" y2="341.0047" gradientTransform="matrix(1 0 0 -1 0 1060)">
		<stop  offset="0" style="stop-color:#0E294C"/>
		<stop  offset="0.2073" style="stop-color:#02569E"/>
		<stop  offset="0.5208" style="stop-color:#2E9EEA"/>
		<stop  offset="0.8273" style="stop-color:#8CCFFC"/>
		<stop  offset="1" style="stop-color:#87CDFA"/>
		<stop  offset="1" style="stop-color:#7EC7F7"/>
	</linearGradient>
	<polygon id="Rectangle-Copy-3" class="st5" points="576.8,740.8 585,729 585,795 577,811.9 	"/>
	
		<linearGradient id="Rectangle-Copy-3_3_" gradientUnits="userSpaceOnUse" x1="579.3561" y1="234" x2="579.3561" y2="341.0047" gradientTransform="matrix(-1 0 0 -1 1199.7894 1060)">
		<stop  offset="0" style="stop-color:#0E294C"/>
		<stop  offset="0.2073" style="stop-color:#02569E"/>
		<stop  offset="0.5208" style="stop-color:#2E9EEA"/>
		<stop  offset="0.8273" style="stop-color:#8CCFFC"/>
		<stop  offset="1" style="stop-color:#87CDFA"/>
		<stop  offset="1" style="stop-color:#7EC7F7"/>
	</linearGradient>
	<polygon id="Rectangle-Copy-3_1_" class="st6" points="624.3,811.9 616.3,795 616.3,729 624.5,740.8 	"/>
	
		<linearGradient id="Rectangle-Copy-2_1_" gradientUnits="userSpaceOnUse" x1="328.5718" y1="815.8647" x2="604.66" y2="130.6945" gradientTransform="matrix(1 0 0 -1 0 1060)">
		<stop  offset="0" style="stop-color:#0E294C"/>
		<stop  offset="0.2073" style="stop-color:#02569E"/>
		<stop  offset="0.5603" style="stop-color:#2E9EEA"/>
		<stop  offset="0.8273" style="stop-color:#8CCFFC"/>
		<stop  offset="1" style="stop-color:#7EC7F7"/>
	</linearGradient>
	<polygon id="Rectangle-Copy-2" class="st7" points="354.5,314.3 375.8,330.8 526.3,730 516.5,741 	"/>
	
		<linearGradient id="Rectangle-4-Copy-4_1_" gradientUnits="userSpaceOnUse" x1="636.0698" y1="345.9958" x2="520.4247" y2="316.7669" gradientTransform="matrix(1 0 0 -1 0 1060)">
		<stop  offset="0" style="stop-color:#0E294C"/>
		<stop  offset="0.2073" style="stop-color:#02569E"/>
		<stop  offset="0.5603" style="stop-color:#2E9EEA"/>
		<stop  offset="0.8273" style="stop-color:#8CCFFC"/>
		<stop  offset="1" style="stop-color:#7EC7F7"/>
	</linearGradient>
	<polygon id="Rectangle-4-Copy-4" class="st8" points="516.4,740.8 576.9,740.8 585.1,729 526,730 	"/>
	
		<linearGradient id="Rectangle-4-Copy-5_1_" gradientUnits="userSpaceOnUse" x1="343.2875" y1="737.6" x2="446.9947" y2="737.6" gradientTransform="matrix(1 0 0 -1 0 1060)">
		<stop  offset="0" style="stop-color:#0E294C"/>
		<stop  offset="0.2073" style="stop-color:#02569E"/>
		<stop  offset="0.5603" style="stop-color:#2E9EEA"/>
		<stop  offset="0.8273" style="stop-color:#8CCFFC"/>
		<stop  offset="1" style="stop-color:#7EC7F7"/>
	</linearGradient>
	<polygon id="Rectangle-4-Copy-5" class="st9" points="375.6,330.8 430.5,330.8 418.5,314 354.4,314.3 	"/>
	<linearGradient id="Rectangle_1_" gradientUnits="userSpaceOnUse" x1="694.5613" y1="208" x2="694.5613" y2="907.1517">
		<stop  offset="0" style="stop-color:#0E294C"/>
		<stop  offset="0.3753" style="stop-color:#02569E"/>
		<stop  offset="0.632" style="stop-color:#2E9EEA"/>
		<stop  offset="0.8273" style="stop-color:#8CCFFC"/>
		<stop  offset="1" style="stop-color:#7EC7F7"/>
	</linearGradient>
	<polygon id="Rectangle" class="st10" points="687,331 702.2,314 702.2,741 687,729 	"/>
	
		<linearGradient id="Rectangle-4-Copy-2_1_" gradientUnits="userSpaceOnUse" x1="378.4839" y1="492.0123" x2="307.9875" y2="493.5122" gradientTransform="matrix(1 0 0 -1 0 1060)">
		<stop  offset="0" style="stop-color:#0E294C"/>
		<stop  offset="0.2073" style="stop-color:#02569E"/>
		<stop  offset="0.5603" style="stop-color:#2E9EEA"/>
		<stop  offset="0.8273" style="stop-color:#8CCFFC"/>
		<stop  offset="1" style="stop-color:#7EC7F7"/>
	</linearGradient>
	<polygon id="Rectangle-4-Copy-2" class="st11" points="273,573.1 368.4,574 363,560.3 	"/>
	
		<linearGradient id="Rectangle-4-Copy-3_1_" gradientUnits="userSpaceOnUse" x1="436.8511" y1="324.6" x2="378.3542" y2="324.6" gradientTransform="matrix(1 0 0 -1 0 1060)">
		<stop  offset="0" style="stop-color:#0E294C"/>
		<stop  offset="0.2073" style="stop-color:#02569E"/>
		<stop  offset="0.5603" style="stop-color:#2E9EEA"/>
		<stop  offset="0.8273" style="stop-color:#8CCFFC"/>
		<stop  offset="1" style="stop-color:#7EC7F7"/>
	</linearGradient>
	<polygon id="Rectangle-4-Copy-3" class="st12" points="366.6,740.8 429.7,741 425,729.8 	"/>
</g>
<g id="Layer_2">
	<path id="Line-Copy-3" class="st13" d="M363.4,810.7L182.5,913.8"/>
	<path id="Line-Copy-3_1_" class="st13" d="M959.5,913.8L778.6,810.7"/>
	<path id="Line-Copy-3_2_" class="st13" d="M741.6,991.1l-117-180.3"/>
	<path id="Line-Copy-3_4_" class="st13" d="M526.3,900.9l50.7-89"/>
	<path id="Line-Copy-3_3_" class="st13" d="M626.3,243.9l58.5-90.2"/>
	<path id="Line-Copy-4" class="st13" d="M263.1,251.6l-254-124"/>
	<path id="Line-Copy-4_2_" class="st13" d="M418.5,243.3L273,44"/>
	<path id="Line-Copy-4_1_" class="st13" d="M1017.9,127.6l-254,124"/>
	<path id="Line-Copy-11" class="st13" d="M898,314.3H778.6"/>
	<path id="Line-Copy-9" class="st13" d="M918.6,811.9H772.8"/>
	<path id="Line-Copy-16" class="st13" d="M819.3,788h-45"/>
	<path id="Line-Copy-10" class="st13" d="M481.5,243.3h-63"/>
	<path id="Line-Copy-14" class="st13" d="M273,573.1H156.2"/>
	<path id="Line-Copy-18" class="st13" d="M272.7,649.4h-99.9"/>
	<path id="Line-Copy-17" class="st13" d="M622.6,262.3h-64.3"/>
	<path id="Line-Copy-8" class="st13" d="M838.3,243.9h-83"/>
	<path id="Line-Copy-13" class="st13" d="M196.5,811.9h168.4"/>
	<path id="Line-Copy-14_1_" class="st13" d="M280,572.5l-167,26"/>
	<path id="Line-Copy-15_1_" class="st13" d="M395.7,650.2L99.8,722.8"/>
	<linearGradient id="Rectangle-5_4_" gradientUnits="userSpaceOnUse" x1="887.0732" y1="532.4395" x2="761.035" y2="532.4395">
		<stop  offset="0" style="stop-color:#0E294C;stop-opacity:0"/>
		<stop  offset="0.9232" style="stop-color:#7EC7F7"/>
	</linearGradient>
	<polygon id="Rectangle-5_1_" class="st14" points="778.5,243.3 778.6,810.7 898,878.8 898,186.1 	"/>
	<linearGradient id="Rectangle-5_5_" gradientUnits="userSpaceOnUse" x1="204.765" y1="381.1631" x2="305.26" y2="345.1648">
		<stop  offset="0" style="stop-color:#0E294C;stop-opacity:0"/>
		<stop  offset="0.9232" style="stop-color:#7EC7F7"/>
	</linearGradient>
	<polygon id="Rectangle-5_2_" class="st15" points="244.6,578.2 113,178.2 247.2,243.3 363,560.3 	"/>
	<linearGradient id="Rectangle-5_6_" gradientUnits="userSpaceOnUse" x1="329.7491" y1="726.8172" x2="430.312" y2="690.7947">
		<stop  offset="0" style="stop-color:#0E294C;stop-opacity:0"/>
		<stop  offset="0.9232" style="stop-color:#7EC7F7"/>
	</linearGradient>
	<polygon id="Rectangle-5_3_" class="st16" points="325.4,796.8 280.7,675.9 395.7,649.4 428.8,740.8 	"/>
</g>
</svg>
