<svg xmlns="http://www.w3.org/2000/svg" xmlns:xlink="http://www.w3.org/1999/xlink" width="846" height="80.02" viewBox="0 0 846 80.02">
  <defs>
    <linearGradient id="linear-gradient" x1="-12.95" y1="24.68" x2="855.29" y2="24.68" gradientUnits="userSpaceOnUse">
      <stop offset="0" stop-color="#0080ff"/>
      <stop offset="0.21" stop-color="#009eea"/>
      <stop offset="0.56" stop-color="#00cacb"/>
      <stop offset="0.84" stop-color="#00e6b8"/>
      <stop offset="1" stop-color="#00f0b1"/>
    </linearGradient>
    <linearGradient id="linear-gradient-2" x1="-12.95" y1="24.68" x2="855.29" y2="24.68" xlink:href="#linear-gradient"/>
    <linearGradient id="linear-gradient-3" x1="-12.95" y1="25.13" x2="855.29" y2="25.13" xlink:href="#linear-gradient"/>
    <linearGradient id="linear-gradient-4" x1="-12.95" y1="1010.44" x2="855.29" y2="1010.44" gradientTransform="matrix(1, 0, 0, -1, 0, 1034.04)" xlink:href="#linear-gradient"/>
    <linearGradient id="linear-gradient-9" x1="-12.95" y1="1010.46" x2="855.29" y2="1010.46" gradientTransform="matrix(1, 0, 0, -1, 0, 1034.04)" xlink:href="#linear-gradient"/>
  </defs>
  <title>imandra_console_logo</title>
  <g id="Layer_2" data-name="Layer 2">
    <g id="Layer_1-2" data-name="Layer 1">
      <g>
        <g>
          <path id="_7f6ceece-7555-4be5-879c-b08c72a19eb7" data-name="7f6ceece-7555-4be5-879c-b08c72a19eb7" d="M24.75,49.36A24.68,24.68,0,1,0,0,24.69,24.7,24.7,0,0,0,24.75,49.36" style="fill: url(#linear-gradient)"/>
          <path id="_10dd1df1-d6ea-4ec4-aae8-1877df1b5ac1" data-name="10dd1df1-d6ea-4ec4-aae8-1877df1b5ac1" d="M183.93,49.36a24.68,24.68,0,1,0-24.78-24.67,24.68,24.68,0,0,0,24.78,24.67h0" style="fill: url(#linear-gradient-2)"/>
          <path id="a248f5b4-f472-4e98-aa4b-584d06801cf2" d="M104.32,0A11.64,11.64,0,0,1,116,11.65v26.1a11.64,11.64,0,0,1-23.22,1.72,12.34,12.34,0,0,1,0-1.72V11.65A11.65,11.65,0,0,1,104.32,0" style="fill: url(#linear-gradient-3)"/>
          <polygon id="_7bcf67e3-c0fd-4dcb-97fb-d08e2cc1da86" data-name="7bcf67e3-c0fd-4dcb-97fb-d08e2cc1da86" points="280.79 44.17 285.76 44.17 285.76 3.02 280.79 3.02 280.79 44.17" style="fill: url(#linear-gradient-4)"/>
          <polygon id="ded26f76-502f-40d3-9582-a6f0a4c8d680" points="364.97 31.22 363.83 31.22 348.91 10.25 348.91 44.17 343.94 44.17 343.94 3.02 350.05 3.02 364.59 23.97 379.13 3.02 385.26 3.02 385.26 44.17 380.29 44.17 380.29 10.63 364.97 31.22" style="fill: url(#linear-gradient-4)"/>
          <path id="b7e71d89-01d3-4394-8ff1-f67d38a6e490" d="M462.56,3l18.36,41.15h-5.36L471.32,35H447.63l-3.82,9.14h-5.75L456.43,3Zm-3.07,5.29-9.94,22.1h19.52Z" style="fill: url(#linear-gradient-4)"/>
          <polygon id="c7a18c06-cc4b-4b70-b005-aba970784c7e" points="537.56 3.02 562.82 34.27 562.82 3.02 567.79 3.02 567.79 44.17 564.35 44.17 539.09 12.92 539.09 44.17 534.12 44.17 534.12 3.02 537.56 3.02" style="fill: url(#linear-gradient-4)"/>
          <path id="_8d0189b2-cfe2-4ff6-b094-4d892531d30f" data-name="8d0189b2-cfe2-4ff6-b094-4d892531d30f" d="M626,3h14.92c14.16,0,20.67,9.9,20.67,20.2,0,10.66-6.13,21-20.67,21H626Zm30.62,20.2c0-7.63-5-15.25-15.7-15.25h-9.94V39.22h9.94C652,39.22,656.58,30.84,656.58,23.22Z" style="fill: url(#linear-gradient-4)"/>
          <path id="_45a68190-e3d8-4cc9-abe3-b3d12a02b290" data-name="45a68190-e3d8-4cc9-abe3-b3d12a02b290" d="M717.41,11.29l4.6,3.83v9.62H735.4c6.13,0,9.19-3.81,9.19-8.39a8.61,8.61,0,0,0-8.46-8.76H717.41V3h18.76c9.18,0,13.75,6.47,13.75,13,0,6.1-3.44,12.2-11.86,12.58l13.76,15.24H745.4l-13-14.48h-10V44.13h-5Z" style="fill: url(#linear-gradient-9)"/>
          <path id="_079d37bc-98c0-4627-8a1d-f4a77d448d38" data-name="079d37bc-98c0-4627-8a1d-f4a77d448d38" d="M827.25,3,846,44.17h-5.35L836.41,35h-23.7l-3.81,9.14h-5.74L821.5,3Zm-2.68,5.29-10,22.1h19.52Z" style="fill: url(#linear-gradient-4)"/>
        </g>
        <g>
          <path id="cfe77526-c35c-4028-b949-940fdc03eeff" d="M144.83,72.47l6.78,7.36h-1.93L143,72.56h-5.26v7.29h-1.48l0-19.25h8.45a6,6,0,0,1,6.34,6C151.1,69.71,149,72.47,144.83,72.47ZM137.75,62v9.18h6.82c3.36,0,4.81-1.91,4.87-4.6A4.44,4.44,0,0,0,145.16,62h-7.41Zm27.51,0v7.48h11.28v1.37l-11.27,0v7.56l12.16,0v1.44H163.83l0-19.25,13.29,0V61.9Zm42.08,17.83h-1.6L203.62,75H192.13l-2.06,4.74h-1.62l8.61-19.26h1.63ZM192.7,73.68H203L197.83,62Zm40.21-10.21-1.21.68c-1.38-2.25-3.66-2.58-5.83-2.6s-5.83.83-5.83,3.91c0,2.45,2.65,3,5.89,3.63,3.72.68,7.57,1.36,7.57,5.49,0,4.34-4.39,5.39-7.61,5.4-3,0-6.41-1.23-7.9-4.17l1.32-.69c1.19,2.33,4.21,3.48,6.58,3.48s6.13-.69,6.13-4.08c0-2.88-3.17-3.51-6.33-4.11-3.53-.69-7.13-1.37-7.13-5-.09-4.07,4.12-5.34,7.31-5.34C228.6,60.21,231,60.65,232.91,63.47Zm22.31-3.33c6.49,0,9.74,4.74,9.72,9.94S261.71,80,255.24,80s-9.71-4.88-9.72-10,3.21-9.89,9.7-9.9Zm0,1.37c-5.5,0-8.24,4-8.24,8.57,0,4.34,2.76,8.58,8.26,8.57s8.25-4.25,8.24-8.59-2.73-8.54-8.26-8.53Zm23-1.1h.61l13,15.91,0-15.91h1.49l0,19.25h-.58l-13-15.88,0,15.9h-1.48Zm30.56,19.22H307.3l0-19.25h1.46Zm14-19.27h.63l13,15.91,0-15.92h1.45l0,19.26h-.58l-13-15.88,0,15.89h-1.48Zm45.06,2.56-.85.93a9,9,0,0,0-6.19-2.47c-5.64,0-8.52,4.14-8.49,8.6s2.91,8.46,8.51,8.46a8.7,8.7,0,0,0,5.86-2.24V70.8h-6.71V69.5H368v7.22a10,10,0,0,1-7.26,3.1c-6.54,0-9.93-4.55-9.94-9.81,0-6,4.06-10,9.92-10a10,10,0,0,1,7,2.89ZM415.92,79.5h-1.59l-2.12-4.72-11.49,0-2.05,4.73h-1.6l8.61-19.26h1.63Zm-14.64-6.09H411.6l-5.19-11.69Zm40.22-10.2-1.2.69c-1.38-2.25-3.67-2.58-5.84-2.61s-5.83.84-5.83,3.92c0,2.44,2.65,3,5.9,3.62,3.71.68,7.56,1.37,7.57,5.49,0,4.35-4.4,5.4-7.62,5.4-3,0-6.41-1.23-7.9-4.17l1.32-.69c1.19,2.34,4.22,3.49,6.58,3.49s6.13-.7,6.13-4.08c0-2.89-3.17-3.52-6.33-4.12-3.52-.68-7.13-1.37-7.13-4.94-.09-4.07,4.12-5.34,7.31-5.35C437.21,60,439.6,60.39,441.5,63.21Zm47.65,16.2h-1.6l-2.12-4.73h-11.5l-2.05,4.74h-1.63l8.62-19.26h1.62Zm-14.64-6.09h10.31l-5.18-11.69ZM532,63.1l-1.21.69c-1.37-2.26-3.66-2.58-5.83-2.61s-5.83.83-5.83,3.92c0,2.44,2.65,3,5.89,3.62,3.72.68,7.57,1.36,7.58,5.49,0,4.35-4.4,5.4-7.62,5.4-3,0-6.41-1.23-7.9-4.17l1.32-.69c1.19,2.34,4.22,3.49,6.58,3.49s6.13-.7,6.13-4.08c0-2.89-3.17-3.52-6.33-4.12-3.52-.68-7.13-1.37-7.13-4.94-.09-4.07,4.12-5.34,7.31-5.35C527.71,59.85,530.09,60.28,532,63.1Zm14.89-1.61V69l11.28,0v1.38H546.89v7.57l12.16,0v1.43l-13.62,0,0-19.26H558.7v1.37Zm33.7,10.43,6.81,7.37H585.5L578.83,72h-5.25V79.3H572.1l0-19.26h8.44a6,6,0,0,1,6.34,6c0,3.15-2.06,5.9-6.24,5.91Zm-7-10.48v9.17h6.82c3.36,0,4.81-1.9,4.86-4.6A4.43,4.43,0,0,0,581,61.41h-.44ZM614,60h1.6l-7.9,19.32h-1.59l-8-19.3h1.6l7.14,17.6Zm15.38,19.24h-1.46l0-19.25h1.46Zm28.88-3.64,1,.93a9.86,9.86,0,0,1-7,2.91c-6.5,0-9.88-4.52-9.92-9.72s3.29-10,9.89-10a9.93,9.93,0,0,1,7,2.88l-1,.88a8.41,8.41,0,0,0-6-2.45c-5.61,0-8.49,4-8.46,8.59s2.92,8.43,8.48,8.42a8.64,8.64,0,0,0,6-2.47ZM673,61.34v7.49l11.27,0v1.38H673v7.57l12.15,0v1.43l-13.62,0,0-19.26h13.28V61.3Z" style="fill: #577fa1"/>
          <path id="_0901a875-a104-4272-ad1e-05ab779b2f95" data-name="0901a875-a104-4272-ad1e-05ab779b2f95" d="M695.75,66.77V59.45H692.9v-.53h6.29v.53h-2.85v7.32Zm13.35,0v-7L706,64.37h-.2l-3.07-4.6v7h-.61V58.89h.72l3.07,4.59,3-4.6h.81v7.87Z" style="fill: #577fa1"/>
        </g>
      </g>
    </g>
  </g>
</svg>
