<?xml version="1.0" encoding="UTF-8"?>
<svg width="1631px" height="407px" viewBox="0 0 1631 407" version="1.1" xmlns="http://www.w3.org/2000/svg" xmlns:xlink="http://www.w3.org/1999/xlink">
    <!-- Generator: Sketch 48.2 (47327) - http://www.bohemiancoding.com/sketch -->
    <title>Imandra-poweredby-3</title>
    <desc>Created with Sketch.</desc>
    <defs>
        <polygon id="path-1" points="0 1.81097207 31.6050946 1.81097207 31.6050946 41.3654091 0 41.3654091"></polygon>
        <polygon id="path-3" points="0.223301406 0.944915411 19.0009476 0.944915411 19.0009476 42.9673027 0.223301406 42.9673027"></polygon>
    </defs>
    <g id="jupyter_theme" stroke="none" stroke-width="1" fill="none" fill-rule="evenodd" transform="translate(-519.000000, -466.000000)">
        <g id="Imandra-poweredby-3" transform="translate(519.932871, 463.322556)">
            <g id="Page-1">
                <polygon id="Fill-1" fill="#4090BC" points="1162.5642 228.012952 1167.47827 228.012952 1167.47827 188.458515 1162.5642 188.458515"></polygon>
                <polygon id="Fill-2" fill="#4090BC" points="1230.61622 215.583146 1229.59868 215.583146 1215.24891 195.46548 1215.24891 228.016426 1210.39388 228.016426 1210.39388 188.458515 1216.26645 188.458515 1230.16475 208.801988 1243.94845 188.458515 1249.82102 188.458515 1249.82102 228.016426 1244.96599 228.016426 1244.96599 195.58012"></polygon>
                <path d="M1308.8263,193.433217 L1299.44963,214.791084 L1318.20296,214.791084 L1308.8263,193.433217 Z M1311.59762,188.458515 L1329.33341,228.016426 L1324.02344,228.016426 L1320.12692,219.314172 L1297.52915,219.314172 L1293.68819,228.016426 L1288.32265,228.016426 L1306.05844,188.458515 L1311.59762,188.458515 Z" id="Fill-3" fill="#4090BC"></path>
                <polygon id="Fill-4" fill="#4090BC" points="1371.28323 188.459905 1395.52017 218.749307 1395.52017 188.459905 1400.3752 188.459905 1400.3752 228.014342 1396.98571 228.014342 1372.6932 197.83958 1372.6932 228.014342 1367.83817 228.014342 1367.83817 188.459905"></polygon>
                <g id="Group-69" transform="translate(0.000000, 2.529038)">
                    <path d="M1472.74153,205.20054 C1472.74153,197.853128 1467.8865,190.620357 1457.77012,190.620357 L1448.28232,190.620357 L1448.28232,220.569312 L1457.77012,220.569312 C1468.27893,220.569312 1472.74153,212.773759 1472.74153,205.20054 Z M1443.36826,185.874936 L1457.77012,185.874936 C1471.22043,185.874936 1477.6556,195.480418 1477.6556,205.256124 C1477.6556,215.372277 1471.61286,225.484956 1457.77012,225.484956 L1443.36826,225.484956 L1443.36826,185.930519 L1443.36826,185.874936 Z" id="Fill-5" fill="#4090BC"></path>
                    <path d="M1544.74182,198.702162 C1544.80086,194.745329 1541.97397,190.340356 1536.27157,190.340356 L1523.22064,190.340356 L1523.22064,206.838162 L1536.04236,206.838162 C1541.97397,206.838162 1544.74182,203.166193 1544.74182,198.702162 Z M1532.82304,211.246609 L1523.22064,211.246609 L1523.22064,225.486346 L1518.30657,225.486346 L1518.30657,185.931909 L1536.27157,185.931909 C1545.19329,185.931909 1549.65589,192.146812 1549.65589,198.587522 C1549.71493,204.576618 1546.43657,210.173158 1538.30318,210.850579 L1551.35064,225.486346 L1545.13773,225.486346 L1532.82304,211.246609 Z" id="Fill-7" fill="#4090BC"></path>
                    <path d="M1608.67402,190.904179 L1599.29735,212.262046 L1618.05068,212.262046 L1608.67402,190.904179 Z M1611.44534,185.929477 L1629.18113,225.487388 L1623.87116,225.487388 L1619.97464,216.785134 L1597.37687,216.785134 L1593.53938,225.487388 L1588.17037,225.487388 L1605.90616,185.929477 L1611.44534,185.929477 Z" id="Fill-9" fill="#4090BC"></path>
                    <g id="Group-13" transform="translate(0.000000, 184.119547)">
                        <mask id="mask-2" fill="white">
                            <use xlink:href="#path-1"></use>
                        </mask>
                        <g id="Clip-12"></g>
                        <path d="M17.9646502,6.38964307 L4.85815484,6.38964307 L4.85815484,24.0199582 L17.9646502,24.0199582 C29.6021346,24.0199582 29.6021346,6.38964307 17.9646502,6.38964307 Z M4.85815484,41.3654091 L-0.000347283926,41.3654091 L-0.000347283926,1.81097207 L17.9646502,1.81097207 C36.1519094,1.81097207 36.1519094,28.539572 17.9646502,28.5951552 L4.85815484,28.5951552 L4.85815484,41.3654091 Z" id="Fill-11" fill="#4090BC" mask="url(#mask-2)"></path>
                    </g>
                    <path d="M73.9877986,189.773059 C63.9339289,189.773059 58.7350886,197.176055 58.7350886,205.822725 C58.7350886,213.847558 63.5970635,221.643111 73.9877986,221.643111 C84.3820065,221.643111 89.0738123,213.618278 89.0738123,205.822725 C89.1259049,197.797892 84.3299139,189.8877 73.9877986,189.773059 M93.9878799,205.822725 C93.9288416,216.161212 87.4901976,226.277365 73.9322332,226.277365 C60.3742687,226.277365 53.821021,216.220269 53.821021,205.822725 C53.821021,194.35173 61.5029415,185.253445 73.9877986,185.253445 C87.3755939,185.309029 94.0399725,195.366125 93.9878799,205.822725" id="Fill-14" fill="#4090BC"></path>
                    <polygon id="Fill-16" fill="#4090BC" points="119.460114 185.930866 130.364829 218.648563 141.321637 185.930866 144.485394 185.930866 155.556805 218.648563 166.346917 185.930866 171.938188 185.930866 158.098924 225.540887 153.184856 225.540887 142.901779 195.932379 132.681213 225.540887 127.708107 225.540887 113.924408 185.930866"></polygon>
                    <polygon id="Fill-18" fill="#4090BC" points="195.496541 185.930866 223.289673 185.930866 223.289673 190.45048 200.35157 190.45048 200.35157 202.828177 222.331169 202.828177 222.331169 207.403374 200.35157 207.403374 200.35157 220.795466 224.192611 220.795466 224.192611 225.485303 195.496541 225.485303"></polygon>
                    <path d="M275.551389,198.702162 C275.610428,194.745329 272.783536,190.340356 267.081134,190.340356 L254.030204,190.340356 L254.030204,206.838162 L266.851927,206.838162 C272.783536,206.838162 275.551389,203.166193 275.551389,198.702162 Z M263.632605,211.246609 L254.030204,211.246609 L254.030204,225.486346 L249.116137,225.486346 L249.116137,185.931909 L267.081134,185.931909 C276.002858,185.931909 280.465457,192.146812 280.465457,198.587522 C280.524495,204.576618 277.246135,210.173158 269.112745,210.850579 L282.160202,225.486346 L275.947293,225.486346 L263.632605,211.246609 Z" id="Fill-20" fill="#4090BC"></path>
                    <polygon id="Fill-22" fill="#4090BC" points="306.332206 185.930866 334.125338 185.930866 334.125338 190.45048 311.187235 190.45048 311.187235 202.828177 333.166834 202.828177 333.166834 207.403374 311.187235 207.403374 311.187235 220.795466 335.028276 220.795466 335.028276 225.485303 306.332206 225.485303"></polygon>
                    <path d="M389.307365,205.20054 C389.307365,197.853128 384.452336,190.620357 374.335955,190.620357 L364.848158,190.620357 L364.848158,220.569312 L374.335955,220.569312 C384.844766,220.569312 389.307365,212.773759 389.307365,205.20054 Z M359.93409,185.874936 L374.335955,185.874936 C387.786261,185.874936 394.221432,195.480418 394.221432,205.256124 C394.221432,215.372277 388.178692,225.484956 374.335955,225.484956 L359.93409,225.484956 L359.93409,185.930519 L359.93409,185.874936 Z" id="Fill-24" fill="#4090BC"></path>
                    <path d="M456.671417,220.852091 L469.045143,220.852091 C473.167404,220.852091 478.644071,219.77864 478.644071,214.411381 C478.591979,209.436679 473.559834,207.404417 469.267405,207.404417 L456.671417,207.404417 L456.671417,220.852091 Z M456.671417,202.940386 L469.267405,202.940386 C474.014776,202.940386 477.459833,201.189513 477.459833,197.062456 C477.459833,192.654009 473.900173,190.395939 469.045143,190.395939 L456.671417,190.395939 L456.671417,202.940386 Z M469.045143,185.931909 C476.216556,185.931909 482.318335,189.492711 482.318335,197.006873 C482.318335,200.623259 480.227686,203.67339 476.442291,205.146347 C481.245228,206.501189 483.561612,210.906162 483.561612,214.581605 C483.561612,222.998995 476.497856,225.486346 469.045143,225.486346 L451.75735,225.486346 L451.75735,185.931909 L469.045143,185.931909 Z" id="Fill-26" fill="#4090BC"></path>
                    <polygon id="Fill-28" fill="#4090BC" points="503.046323 186.100395 503.046323 185.930172 509.036971 185.930172 520.896717 204.692996 533.044709 185.930172 539.028411 185.930172 539.028411 186.100395 523.438836 209.438416 523.438836 225.484609 518.354599 225.484609 518.354599 209.438416"></polygon>
                    <path d="M921.499492,223.701776 C910.438499,223.698302 901.475101,214.759819 901.478573,203.740438 C901.485519,192.72453 910.455863,183.796469 921.516856,183.803417 C932.574376,183.806891 941.537774,192.7419 941.534301,203.757807 C941.530829,214.777188 932.560485,223.70525 921.499492,223.701776" id="Fill-30" fill="#4090BC"></path>
                    <path d="M792.865526,223.647235 C781.80106,223.643761 772.841134,214.708752 772.844607,203.68937 C772.851553,192.669989 781.818424,183.745402 792.879417,183.748876 C803.936937,183.75235 812.903808,192.687359 812.900335,203.703266 C812.89339,214.726121 803.926519,223.650708 792.865526,223.647235" id="Fill-32" fill="#4090BC"></path>
                    <path d="M857.017896,182.71468 C851.826001,182.700784 847.609975,186.904268 847.606502,192.097829 L847.596083,215.345527 C847.596083,220.518244 851.780854,224.718254 856.951912,224.735624 C862.14728,224.74952 866.359834,220.546036 866.363307,215.352475 L866.373725,192.104777 C866.373725,186.928586 862.192427,182.728576 857.017896,182.71468" id="Fill-34" fill="#4090BC"></path>
                    <g id="Group-38" transform="translate(847.372780, 0.000000)">
                        <mask id="mask-4" fill="white">
                            <use xlink:href="#path-3"></use>
                        </mask>
                        <g id="Clip-37"></g>
                        <path d="M9.64511648,0.942831039 C4.45322178,0.928935224 0.237194922,5.13241922 0.233722082,10.32598 L0.223303564,33.5771522 C0.219830725,38.7533433 4.40807487,42.9533533 9.57913253,42.9672491 C14.7745001,42.9846189 18.9905269,38.777661 18.9905269,33.5841002 L19.0009454,10.3364019 C19.0044183,5.16021085 14.819647,0.956726853 9.64511648,0.942831039" id="Fill-36" fill="#4090BC" mask="url(#mask-4)"></path>
                    </g>
                    <path d="M857.017896,364.427472 C851.826001,364.413576 847.609975,368.61706 847.606502,373.810621 L847.596083,397.061793 C847.59261,402.237984 851.780854,406.437994 856.951912,406.45189 C862.14728,406.46926 866.363307,402.262302 866.363307,397.068741 L866.373725,373.821043 C866.377198,368.644852 862.192427,364.441368 857.017896,364.427472" id="Fill-39" fill="#4090BC"></path>
                    <path d="M1059.67717,203.729668 C1059.69106,198.536107 1055.48892,194.318728 1050.29703,194.315254 L1027.04984,194.304832 C1021.87879,194.304832 1017.68012,198.490946 1017.66276,203.663663 C1017.64887,208.860698 1021.851,213.078078 1027.04637,213.081552 L1050.28661,213.0885 C1055.46114,213.091974 1059.6598,208.905859 1059.67717,203.729668" id="Fill-41" fill="#4090BC"></path>
                    <path d="M696.307745,203.729668 C696.325109,198.536107 692.1195,194.318728 686.927606,194.315254 L663.683893,194.304832 C658.509362,194.304832 654.310699,198.490946 654.296808,203.663663 C654.279444,208.860698 658.485052,213.078078 663.676947,213.081552 L686.92066,213.0885 C692.091718,213.091974 696.293853,208.905859 696.307745,203.729668" id="Fill-43" fill="#4090BC"></path>
                    <path d="M1000.33364,60.3512609 C996.669792,56.66887 990.713873,56.6584481 987.043082,60.3304172 L970.599188,76.7622183 C966.942288,80.4202915 966.93187,86.3503305 970.581824,90.0222996 C974.238723,93.7046906 980.194643,93.7151124 983.868907,90.0431433 L1000.30933,73.6113423 C1003.9697,69.953269 1003.98012,64.02323 1000.33364,60.3512609" id="Fill-45" fill="#4090BC"></path>
                    <path d="M743.39111,317.374506 C739.730738,313.688641 733.774818,313.681693 730.104027,317.350188 L713.660133,333.785463 C710.003234,337.443536 709.992815,343.373575 713.642769,347.045544 C717.299669,350.727935 723.255588,350.738357 726.929852,347.066388 L743.370273,330.631113 C747.030646,326.976514 747.041064,321.043001 743.39111,317.374506" id="Fill-47" fill="#4090BC"></path>
                    <path d="M1000.28606,347.089664 C1003.97074,343.428116 1003.97769,337.470286 1000.31037,333.798317 L983.880367,317.349146 C980.223467,313.687599 974.295331,313.677177 970.62454,317.328302 C966.94333,320.989849 966.932911,326.94768 970.603703,330.619649 L987.033705,347.06882 C990.687132,350.726893 996.615269,350.737315 1000.28606,347.089664" id="Fill-49" fill="#4090BC"></path>
                    <path d="M743.347005,90.0681558 C747.031688,86.4066086 747.038633,80.448778 743.371315,76.7733349 L726.941312,60.327638 C723.284413,56.6660908 717.356276,56.655669 713.685485,60.3067943 C710.000803,63.9683415 709.993857,69.9261722 713.664648,73.5981412 L730.094651,90.0473121 C733.748077,93.7053853 739.676214,93.7158072 743.347005,90.0681558" id="Fill-51" fill="#4090BC"></path>
                    <path d="M736.641994,158.125688 C734.14155,164.139102 727.261856,166.998166 721.271208,164.503867 C715.287506,162.013042 712.457142,155.120718 714.961059,149.10383 C717.461503,143.090417 724.341198,140.234827 730.328373,142.725651 C736.315547,145.216476 739.145911,152.112274 736.641994,158.125688" id="Fill-53" fill="#4090BC"></path>
                    <path d="M999.41785,264.51031 C996.917406,270.523724 990.037711,273.382788 984.047063,270.888489 C978.063361,268.401138 975.232997,261.50534 977.736914,255.488452 C980.237359,249.475038 987.117053,246.619448 993.104228,249.110273 C999.091403,251.601098 1001.92177,258.496896 999.41785,264.51031" id="Fill-55" fill="#4090BC"></path>
                    <path d="M909.388659,336.676487 C915.330687,334.011965 922.297203,336.655644 924.946979,342.575261 C927.600229,348.494878 924.933088,355.453207 918.99106,358.114256 C913.049032,360.778778 906.079044,358.138573 903.429267,352.218956 C900.779491,346.299339 903.443159,339.34101 909.388659,336.676487" id="Fill-57" fill="#4090BC"></path>
                    <path d="M793.197876,67.2567861 C799.139904,64.5922636 806.109893,67.2324685 808.759669,73.1555595 C811.409445,79.0751767 808.745778,86.033506 802.80375,88.6945545 C796.858249,91.359077 789.891733,88.7188722 787.238484,82.7992551 C784.588708,76.8796379 787.255848,69.9213086 793.197876,67.2567861" id="Fill-59" fill="#4090BC"></path>
                    <path d="M910.335008,89.0721733 C904.18461,86.9356917 900.923614,80.237909 903.048991,74.1063807 C905.177842,67.9783263 911.887367,64.7440754 918.041238,66.8805569 C924.191637,69.0170385 927.456106,75.7148212 925.323782,81.8428756 C923.198405,87.9744039 916.485406,91.2086548 910.335008,89.0721733" id="Fill-61" fill="#4090BC"></path>
                    <path d="M794.147351,352.448237 C787.996952,350.311756 784.732483,343.613973 786.861334,337.482445 C788.990184,331.35439 795.69971,328.120139 801.853581,330.256621 C808.000506,332.393102 811.264975,339.090885 809.136125,345.21894 C807.010747,351.350468 800.297749,354.584719 794.147351,352.448237" id="Fill-63" fill="#4090BC"></path>
                    <path d="M742.584022,268.191311 C745.598447,273.965022 743.379303,281.07968 737.631754,284.084649 C731.884205,287.082672 724.782248,284.838497 721.767824,279.064786 C718.753399,273.287601 720.969071,266.172944 726.720093,263.171448 C732.467642,260.169952 739.573071,262.4176 742.584022,268.191311" id="Fill-65" fill="#4090BC"></path>
                    <path d="M998.987218,140.330013 C1001.99817,146.103724 999.782498,153.218381 994.031476,156.219877 C988.283927,159.221373 981.181971,156.977199 978.167546,151.200014 C975.156595,145.426303 977.368793,138.311646 983.119815,135.31015 C988.870837,132.308654 995.972793,134.556302 998.987218,140.330013" id="Fill-67" fill="#4090BC"></path>
                </g>
            </g>
        </g>
    </g>
</svg>