<svg xmlns="http://www.w3.org/2000/svg" xmlns:xlink="http://www.w3.org/1999/xlink" width="85.39" height="85.39" viewBox="0 0 85.39 85.39">
  <defs>
    <linearGradient id="linear-gradient" x1="28.86" y1="43.46" x2="56.52" y2="43.46" gradientUnits="userSpaceOnUse">
      <stop offset="0" stop-color="#0080ff"/>
      <stop offset="0.21" stop-color="#009eea"/>
      <stop offset="0.56" stop-color="#00cacb"/>
      <stop offset="0.84" stop-color="#00e6b8"/>
      <stop offset="1" stop-color="#00f0b1"/>
    </linearGradient>
    <linearGradient id="linear-gradient-2" x1="16.54" y1="43.46" x2="68.84" y2="43.46" xlink:href="#linear-gradient"/>
    <linearGradient id="linear-gradient-3" x1="5.16" y1="43.46" x2="80.22" y2="43.46" xlink:href="#linear-gradient"/>
    <linearGradient id="linear-gradient-4" x1="15.05" y1="45.52" x2="65.8" y2="8.52" xlink:href="#linear-gradient"/>
    <linearGradient id="linear-gradient-5" x1="32.07" y1="68.86" x2="82.82" y2="31.86" xlink:href="#linear-gradient"/>
    <linearGradient id="linear-gradient-6" x1="23.63" y1="57.3" x2="74.38" y2="20.3" xlink:href="#linear-gradient"/>
  </defs>
  <title>consoles_n</title>
  <g id="Layer_2" data-name="Layer 2">
    <g id="Layer_1-2" data-name="Layer 1">
      <g>
        <circle cx="42.69" cy="42.69" r="42.19" style="fill: #fff"/>
        <g>
          <circle cx="42.69" cy="42.69" r="42.19" style="fill: #fff"/>
          <circle cx="42.69" cy="42.69" r="42.19" style="fill: none;stroke: #f9f9f9;stroke-miterlimit: 10"/>
        </g>
      </g>
      <circle cx="42.69" cy="43.46" r="13.83" style="opacity: 0.05;fill: url(#linear-gradient)"/>
      <circle cx="42.69" cy="43.46" r="26.15" style="opacity: 0.05;fill: url(#linear-gradient-2)"/>
      <circle cx="42.69" cy="43.46" r="37.53" style="opacity: 0.05;fill: url(#linear-gradient-3)"/>
      <path id="_7f6ceece-7555-4be5-879c-b08c72a19eb7" data-name="7f6ceece-7555-4be5-879c-b08c72a19eb7" d="M18.19,50.84a7.61,7.61,0,1,0-7.62-7.6,7.61,7.61,0,0,0,7.62,7.6" style="fill: url(#linear-gradient-4)"/>
      <path id="_10dd1df1-d6ea-4ec4-aae8-1877df1b5ac1" data-name="10dd1df1-d6ea-4ec4-aae8-1877df1b5ac1" d="M67.25,50.84a7.61,7.61,0,1,0-7.64-7.6,7.61,7.61,0,0,0,7.64,7.6h0" style="fill: url(#linear-gradient-5)"/>
      <path d="M65.25,45.13H64V44.08h1.36l.17-1.91H64.1v-1h1.45l.2-1.87H67l-.15,1.87h1.6l.16-1.87h1.29l-.15,1.87H71v1H69.64l-.17,1.91h1.34c0,.18,0,.35,0,.53v.52H69.39l-.18,2.08H68l.16-2.08H66.53l-.19,2.08H65.08Zm2.93-1.05.16-1.91H66.77l-.16,1.91Z" style="fill: #fff"/>
      <path d="M15.89,45.09l4-1.88-4-1.79V40l5.68,2.87v.78l-5.68,2.93Z" style="fill: #fff"/>
      <path id="a248f5b4-f472-4e98-aa4b-584d06801cf2" d="M42.71,35.64a3.58,3.58,0,0,1,3.59,3.58v8a3.58,3.58,0,1,1-7.15.53,2.35,2.35,0,0,1,0-.53v-8a3.58,3.58,0,0,1,3.56-3.58" style="fill: url(#linear-gradient-6)"/>
    </g>
  </g>
</svg>
